<svg xmlns="http://www.w3.org/2000/svg" xmlns:xlink="http://www.w3.org/1999/xlink" width="300" zoomAndPan="magnify" viewBox="0 0 224.87999 83.04" height="100" preserveAspectRatio="xMidYMid meet" version="1.0"><defs><g/><clipPath id="bf31ce404a"><path d="M 15.097656 4.121094 L 90.722656 4.121094 L 90.722656 58.984375 L 15.097656 58.984375 Z M 15.097656 4.121094 " clip-rule="nonzero"/></clipPath></defs><path fill="#003153" d="M 47.273438 29.417969 C 47.273438 29.445312 47.269531 29.476562 47.269531 29.507812 L 47.269531 38.304688 L 37.476562 38.304688 C 32.632812 38.304688 28.0625 36.039062 25.132812 32.179688 L 23.578125 30.136719 C 23.355469 29.839844 23.566406 29.417969 23.933594 29.417969 L 47.273438 29.417969 " fill-opacity="1" fill-rule="nonzero"/><path fill="#003153" d="M 47.335938 40.667969 C 47.339844 40.726562 47.34375 40.789062 47.351562 40.847656 C 47.601562 43.972656 48.453125 46.898438 49.878906 49.554688 L 45.289062 49.554688 C 40.570312 49.554688 36.125 47.347656 33.269531 43.59375 L 31.40625 41.136719 C 31.261719 40.945312 31.398438 40.667969 31.640625 40.667969 L 47.335938 40.667969 " fill-opacity="1" fill-rule="nonzero"/><g clip-path="url(#bf31ce404a)"><path fill="#003153" d="M 84.589844 24.027344 C 80.558594 19.996094 75.6875 17.980469 69.984375 17.980469 L 58.269531 17.980469 C 58.222656 17.980469 58.183594 17.941406 58.183594 17.890625 L 58.183594 4.210938 C 58.183594 4.160156 58.144531 4.121094 58.09375 4.121094 L 49.417969 4.121094 C 49.371094 4.121094 49.328125 4.160156 49.328125 4.210938 L 49.328125 17.890625 C 49.328125 17.941406 49.289062 17.980469 49.242188 17.980469 L 15.863281 17.980469 C 15.390625 17.980469 15.121094 18.523438 15.40625 18.898438 L 18.625 23.136719 C 20.410156 25.484375 23.195312 26.867188 26.144531 26.867188 L 69.046875 26.867188 C 69.355469 26.84375 69.667969 26.832031 69.984375 26.832031 C 72.695312 26.832031 75.074219 27.625 77.121094 29.214844 C 77.136719 29.226562 78.28125 30.230469 78.335938 30.285156 C 80.636719 32.585938 81.789062 35.371094 81.789062 38.636719 C 81.789062 39.269531 81.746094 39.882812 81.65625 40.480469 C 81.300781 42.964844 80.191406 45.132812 78.335938 46.984375 C 77.316406 48.007812 76.199219 48.800781 74.988281 49.367188 C 73.46875 50.082031 71.800781 50.4375 69.984375 50.4375 C 68.167969 50.4375 66.5 50.082031 64.980469 49.367188 C 63.769531 48.800781 62.65625 48.007812 61.632812 46.984375 C 59.777344 45.132812 58.671875 42.964844 58.3125 40.480469 C 58.226562 39.882812 58.183594 39.269531 58.183594 38.636719 C 58.183594 38.460938 58.183594 38.289062 58.195312 38.117188 C 58.308594 35.074219 59.457031 32.464844 61.632812 30.285156 L 61.644531 30.273438 C 62.03125 29.886719 61.765625 29.230469 61.222656 29.230469 L 49.417969 29.230469 C 49.371094 29.230469 49.328125 29.269531 49.328125 29.320312 L 49.328125 38.636719 C 49.328125 39.261719 49.355469 39.875 49.402344 40.480469 C 49.664062 43.734375 50.625 46.695312 52.28125 49.367188 C 53.132812 50.734375 54.164062 52.027344 55.378906 53.242188 C 59.410156 57.273438 64.28125 59.292969 69.984375 59.292969 C 75.6875 59.292969 80.558594 57.273438 84.589844 53.242188 C 88.621094 49.210938 90.640625 44.339844 90.640625 38.636719 C 90.640625 32.929688 88.621094 28.0625 84.589844 24.027344 " fill-opacity="1" fill-rule="nonzero"/></g><g fill="#003153" fill-opacity="1"><g transform="translate(51.14691, 68.849511)"><g><path d="M 0.515625 -3.515625 L 1.796875 -3.515625 C 1.992188 -3.515625 2.171875 -3.488281 2.328125 -3.4375 C 2.492188 -3.394531 2.632812 -3.328125 2.75 -3.234375 C 2.863281 -3.140625 2.953125 -3.023438 3.015625 -2.890625 C 3.078125 -2.765625 3.109375 -2.613281 3.109375 -2.4375 C 3.109375 -2.25 3.070312 -2.082031 3 -1.9375 C 2.925781 -1.800781 2.828125 -1.6875 2.703125 -1.59375 C 2.578125 -1.5 2.429688 -1.425781 2.265625 -1.375 C 2.097656 -1.332031 1.921875 -1.3125 1.734375 -1.3125 L 0.78125 -1.3125 L 0.78125 0 L 0.515625 0 Z M 1.75 -1.546875 C 1.914062 -1.546875 2.066406 -1.566406 2.203125 -1.609375 C 2.335938 -1.648438 2.453125 -1.707031 2.546875 -1.78125 C 2.640625 -1.863281 2.710938 -1.957031 2.765625 -2.0625 C 2.816406 -2.164062 2.84375 -2.285156 2.84375 -2.421875 L 2.84375 -2.4375 C 2.84375 -2.570312 2.816406 -2.691406 2.765625 -2.796875 C 2.710938 -2.898438 2.640625 -2.988281 2.546875 -3.0625 C 2.453125 -3.132812 2.335938 -3.1875 2.203125 -3.21875 C 2.078125 -3.257812 1.9375 -3.28125 1.78125 -3.28125 L 0.78125 -3.28125 L 0.78125 -1.546875 Z M 1.75 -1.546875 "/></g></g></g><g fill="#003153" fill-opacity="1"><g transform="translate(56.243005, 68.849511)"><g><path d="M 0.515625 -3.515625 L 2 -3.515625 C 2.21875 -3.515625 2.410156 -3.484375 2.578125 -3.421875 C 2.742188 -3.359375 2.882812 -3.273438 3 -3.171875 C 3.082031 -3.085938 3.144531 -2.988281 3.1875 -2.875 C 3.238281 -2.769531 3.265625 -2.648438 3.265625 -2.515625 C 3.265625 -2.367188 3.238281 -2.234375 3.1875 -2.109375 C 3.132812 -1.992188 3.0625 -1.894531 2.96875 -1.8125 C 2.875 -1.726562 2.765625 -1.660156 2.640625 -1.609375 C 2.515625 -1.554688 2.378906 -1.519531 2.234375 -1.5 L 3.390625 0 L 3.0625 0 L 1.9375 -1.453125 L 0.78125 -1.453125 L 0.78125 0 L 0.515625 0 Z M 1.96875 -1.703125 C 2.113281 -1.703125 2.25 -1.71875 2.375 -1.75 C 2.507812 -1.789062 2.617188 -1.84375 2.703125 -1.90625 C 2.796875 -1.976562 2.867188 -2.0625 2.921875 -2.15625 C 2.972656 -2.257812 3 -2.375 3 -2.5 L 3 -2.515625 C 3 -2.753906 2.910156 -2.941406 2.734375 -3.078125 C 2.554688 -3.210938 2.304688 -3.28125 1.984375 -3.28125 L 0.78125 -3.28125 L 0.78125 -1.703125 Z M 1.96875 -1.703125 "/></g></g></g><g fill="#003153" fill-opacity="1"><g transform="translate(61.615789, 68.849511)"><g><path d="M 2.140625 0.0625 C 1.867188 0.0625 1.625 0.015625 1.40625 -0.078125 C 1.1875 -0.179688 1 -0.316406 0.84375 -0.484375 C 0.695312 -0.648438 0.582031 -0.84375 0.5 -1.0625 C 0.414062 -1.28125 0.375 -1.507812 0.375 -1.75 L 0.375 -1.765625 C 0.375 -2.003906 0.414062 -2.234375 0.5 -2.453125 C 0.582031 -2.671875 0.703125 -2.863281 0.859375 -3.03125 C 1.015625 -3.195312 1.195312 -3.328125 1.40625 -3.421875 C 1.625 -3.523438 1.867188 -3.578125 2.140625 -3.578125 C 2.410156 -3.578125 2.648438 -3.523438 2.859375 -3.421875 C 3.078125 -3.328125 3.265625 -3.195312 3.421875 -3.03125 C 3.578125 -2.863281 3.695312 -2.671875 3.78125 -2.453125 C 3.863281 -2.242188 3.90625 -2.015625 3.90625 -1.765625 C 3.90625 -1.523438 3.863281 -1.289062 3.78125 -1.0625 C 3.695312 -0.84375 3.578125 -0.648438 3.421875 -0.484375 C 3.265625 -0.316406 3.078125 -0.179688 2.859375 -0.078125 C 2.640625 0.015625 2.398438 0.0625 2.140625 0.0625 Z M 2.140625 -0.171875 C 2.359375 -0.171875 2.554688 -0.210938 2.734375 -0.296875 C 2.921875 -0.378906 3.082031 -0.488281 3.21875 -0.625 C 3.351562 -0.769531 3.457031 -0.9375 3.53125 -1.125 C 3.601562 -1.320312 3.640625 -1.53125 3.640625 -1.75 L 3.640625 -1.765625 C 3.640625 -1.984375 3.597656 -2.1875 3.515625 -2.375 C 3.441406 -2.570312 3.335938 -2.738281 3.203125 -2.875 C 3.078125 -3.019531 2.921875 -3.132812 2.734375 -3.21875 C 2.546875 -3.300781 2.347656 -3.34375 2.140625 -3.34375 C 1.921875 -3.34375 1.71875 -3.300781 1.53125 -3.21875 C 1.351562 -3.132812 1.195312 -3.019531 1.0625 -2.875 C 0.925781 -2.738281 0.820312 -2.570312 0.75 -2.375 C 0.675781 -2.1875 0.640625 -1.984375 0.640625 -1.765625 C 0.640625 -1.546875 0.675781 -1.335938 0.75 -1.140625 C 0.820312 -0.953125 0.925781 -0.785156 1.0625 -0.640625 C 1.195312 -0.492188 1.351562 -0.378906 1.53125 -0.296875 C 1.71875 -0.210938 1.921875 -0.171875 2.140625 -0.171875 Z M 2.140625 -0.171875 "/></g></g></g><g fill="#003153" fill-opacity="1"><g transform="translate(67.627476, 68.849511)"><g><path d="M 0.515625 -3.515625 L 3 -3.515625 L 3 -3.28125 L 0.78125 -3.28125 L 0.78125 -1.84375 L 2.78125 -1.84375 L 2.78125 -1.59375 L 0.78125 -1.59375 L 0.78125 0 L 0.515625 0 Z M 0.515625 -3.515625 "/></g></g></g><g fill="#003153" fill-opacity="1"><g transform="translate(72.663204, 68.849511)"><g><path d="M 0.515625 -3.515625 L 3.03125 -3.515625 L 3.03125 -3.28125 L 0.78125 -3.28125 L 0.78125 -1.890625 L 2.796875 -1.890625 L 2.796875 -1.65625 L 0.78125 -1.65625 L 0.78125 -0.234375 L 3.046875 -0.234375 L 3.046875 0 L 0.515625 0 Z M 0.515625 -3.515625 "/></g></g></g><g fill="#003153" fill-opacity="1"><g transform="translate(77.769361, 68.849511)"><g><path d="M 1.71875 0.046875 C 1.4375 0.046875 1.179688 0 0.953125 -0.09375 C 0.722656 -0.1875 0.503906 -0.328125 0.296875 -0.515625 L 0.46875 -0.703125 C 0.5625 -0.617188 0.65625 -0.539062 0.75 -0.46875 C 0.851562 -0.40625 0.953125 -0.351562 1.046875 -0.3125 C 1.148438 -0.269531 1.253906 -0.238281 1.359375 -0.21875 C 1.472656 -0.195312 1.597656 -0.1875 1.734375 -0.1875 C 1.859375 -0.1875 1.976562 -0.203125 2.09375 -0.234375 C 2.207031 -0.273438 2.300781 -0.328125 2.375 -0.390625 C 2.445312 -0.453125 2.503906 -0.523438 2.546875 -0.609375 C 2.597656 -0.691406 2.625 -0.785156 2.625 -0.890625 C 2.625 -0.984375 2.609375 -1.066406 2.578125 -1.140625 C 2.546875 -1.222656 2.492188 -1.289062 2.421875 -1.34375 C 2.347656 -1.40625 2.242188 -1.457031 2.109375 -1.5 C 1.984375 -1.550781 1.820312 -1.597656 1.625 -1.640625 C 1.414062 -1.679688 1.234375 -1.734375 1.078125 -1.796875 C 0.929688 -1.859375 0.804688 -1.925781 0.703125 -2 C 0.609375 -2.082031 0.539062 -2.175781 0.5 -2.28125 C 0.457031 -2.382812 0.4375 -2.503906 0.4375 -2.640625 C 0.4375 -2.773438 0.460938 -2.898438 0.515625 -3.015625 C 0.578125 -3.128906 0.65625 -3.226562 0.75 -3.3125 C 0.851562 -3.394531 0.972656 -3.457031 1.109375 -3.5 C 1.253906 -3.550781 1.40625 -3.578125 1.5625 -3.578125 C 1.820312 -3.578125 2.046875 -3.539062 2.234375 -3.46875 C 2.421875 -3.394531 2.601562 -3.285156 2.78125 -3.140625 L 2.609375 -2.9375 C 2.441406 -3.082031 2.269531 -3.179688 2.09375 -3.234375 C 1.925781 -3.296875 1.75 -3.328125 1.5625 -3.328125 C 1.425781 -3.328125 1.304688 -3.3125 1.203125 -3.28125 C 1.097656 -3.25 1.003906 -3.203125 0.921875 -3.140625 C 0.847656 -3.078125 0.789062 -3.003906 0.75 -2.921875 C 0.71875 -2.847656 0.703125 -2.765625 0.703125 -2.671875 L 0.703125 -2.65625 C 0.703125 -2.5625 0.710938 -2.476562 0.734375 -2.40625 C 0.765625 -2.332031 0.816406 -2.265625 0.890625 -2.203125 C 0.972656 -2.140625 1.078125 -2.082031 1.203125 -2.03125 C 1.335938 -1.976562 1.507812 -1.929688 1.71875 -1.890625 C 2.132812 -1.804688 2.429688 -1.6875 2.609375 -1.53125 C 2.796875 -1.382812 2.890625 -1.179688 2.890625 -0.921875 L 2.890625 -0.90625 C 2.890625 -0.769531 2.859375 -0.640625 2.796875 -0.515625 C 2.734375 -0.398438 2.648438 -0.300781 2.546875 -0.21875 C 2.453125 -0.132812 2.332031 -0.0664062 2.1875 -0.015625 C 2.039062 0.0234375 1.882812 0.046875 1.71875 0.046875 Z M 1.71875 0.046875 "/></g></g></g><g fill="#003153" fill-opacity="1"><g transform="translate(82.724598, 68.849511)"><g><path d="M 1.71875 0.046875 C 1.4375 0.046875 1.179688 0 0.953125 -0.09375 C 0.722656 -0.1875 0.503906 -0.328125 0.296875 -0.515625 L 0.46875 -0.703125 C 0.5625 -0.617188 0.65625 -0.539062 0.75 -0.46875 C 0.851562 -0.40625 0.953125 -0.351562 1.046875 -0.3125 C 1.148438 -0.269531 1.253906 -0.238281 1.359375 -0.21875 C 1.472656 -0.195312 1.597656 -0.1875 1.734375 -0.1875 C 1.859375 -0.1875 1.976562 -0.203125 2.09375 -0.234375 C 2.207031 -0.273438 2.300781 -0.328125 2.375 -0.390625 C 2.445312 -0.453125 2.503906 -0.523438 2.546875 -0.609375 C 2.597656 -0.691406 2.625 -0.785156 2.625 -0.890625 C 2.625 -0.984375 2.609375 -1.066406 2.578125 -1.140625 C 2.546875 -1.222656 2.492188 -1.289062 2.421875 -1.34375 C 2.347656 -1.40625 2.242188 -1.457031 2.109375 -1.5 C 1.984375 -1.550781 1.820312 -1.597656 1.625 -1.640625 C 1.414062 -1.679688 1.234375 -1.734375 1.078125 -1.796875 C 0.929688 -1.859375 0.804688 -1.925781 0.703125 -2 C 0.609375 -2.082031 0.539062 -2.175781 0.5 -2.28125 C 0.457031 -2.382812 0.4375 -2.503906 0.4375 -2.640625 C 0.4375 -2.773438 0.460938 -2.898438 0.515625 -3.015625 C 0.578125 -3.128906 0.65625 -3.226562 0.75 -3.3125 C 0.851562 -3.394531 0.972656 -3.457031 1.109375 -3.5 C 1.253906 -3.550781 1.40625 -3.578125 1.5625 -3.578125 C 1.820312 -3.578125 2.046875 -3.539062 2.234375 -3.46875 C 2.421875 -3.394531 2.601562 -3.285156 2.78125 -3.140625 L 2.609375 -2.9375 C 2.441406 -3.082031 2.269531 -3.179688 2.09375 -3.234375 C 1.925781 -3.296875 1.75 -3.328125 1.5625 -3.328125 C 1.425781 -3.328125 1.304688 -3.3125 1.203125 -3.28125 C 1.097656 -3.25 1.003906 -3.203125 0.921875 -3.140625 C 0.847656 -3.078125 0.789062 -3.003906 0.75 -2.921875 C 0.71875 -2.847656 0.703125 -2.765625 0.703125 -2.671875 L 0.703125 -2.65625 C 0.703125 -2.5625 0.710938 -2.476562 0.734375 -2.40625 C 0.765625 -2.332031 0.816406 -2.265625 0.890625 -2.203125 C 0.972656 -2.140625 1.078125 -2.082031 1.203125 -2.03125 C 1.335938 -1.976562 1.507812 -1.929688 1.71875 -1.890625 C 2.132812 -1.804688 2.429688 -1.6875 2.609375 -1.53125 C 2.796875 -1.382812 2.890625 -1.179688 2.890625 -0.921875 L 2.890625 -0.90625 C 2.890625 -0.769531 2.859375 -0.640625 2.796875 -0.515625 C 2.734375 -0.398438 2.648438 -0.300781 2.546875 -0.21875 C 2.453125 -0.132812 2.332031 -0.0664062 2.1875 -0.015625 C 2.039062 0.0234375 1.882812 0.046875 1.71875 0.046875 Z M 1.71875 0.046875 "/></g></g></g><g fill="#003153" fill-opacity="1"><g transform="translate(87.679835, 68.849511)"><g><path d="M 0.5625 -3.515625 L 0.8125 -3.515625 L 0.8125 0 L 0.5625 0 Z M 0.5625 -3.515625 "/></g></g></g><g fill="#003153" fill-opacity="1"><g transform="translate(90.793833, 68.849511)"><g><path d="M 2.140625 0.0625 C 1.867188 0.0625 1.625 0.015625 1.40625 -0.078125 C 1.1875 -0.179688 1 -0.316406 0.84375 -0.484375 C 0.695312 -0.648438 0.582031 -0.84375 0.5 -1.0625 C 0.414062 -1.28125 0.375 -1.507812 0.375 -1.75 L 0.375 -1.765625 C 0.375 -2.003906 0.414062 -2.234375 0.5 -2.453125 C 0.582031 -2.671875 0.703125 -2.863281 0.859375 -3.03125 C 1.015625 -3.195312 1.195312 -3.328125 1.40625 -3.421875 C 1.625 -3.523438 1.867188 -3.578125 2.140625 -3.578125 C 2.410156 -3.578125 2.648438 -3.523438 2.859375 -3.421875 C 3.078125 -3.328125 3.265625 -3.195312 3.421875 -3.03125 C 3.578125 -2.863281 3.695312 -2.671875 3.78125 -2.453125 C 3.863281 -2.242188 3.90625 -2.015625 3.90625 -1.765625 C 3.90625 -1.523438 3.863281 -1.289062 3.78125 -1.0625 C 3.695312 -0.84375 3.578125 -0.648438 3.421875 -0.484375 C 3.265625 -0.316406 3.078125 -0.179688 2.859375 -0.078125 C 2.640625 0.015625 2.398438 0.0625 2.140625 0.0625 Z M 2.140625 -0.171875 C 2.359375 -0.171875 2.554688 -0.210938 2.734375 -0.296875 C 2.921875 -0.378906 3.082031 -0.488281 3.21875 -0.625 C 3.351562 -0.769531 3.457031 -0.9375 3.53125 -1.125 C 3.601562 -1.320312 3.640625 -1.53125 3.640625 -1.75 L 3.640625 -1.765625 C 3.640625 -1.984375 3.597656 -2.1875 3.515625 -2.375 C 3.441406 -2.570312 3.335938 -2.738281 3.203125 -2.875 C 3.078125 -3.019531 2.921875 -3.132812 2.734375 -3.21875 C 2.546875 -3.300781 2.347656 -3.34375 2.140625 -3.34375 C 1.921875 -3.34375 1.71875 -3.300781 1.53125 -3.21875 C 1.351562 -3.132812 1.195312 -3.019531 1.0625 -2.875 C 0.925781 -2.738281 0.820312 -2.570312 0.75 -2.375 C 0.675781 -2.1875 0.640625 -1.984375 0.640625 -1.765625 C 0.640625 -1.546875 0.675781 -1.335938 0.75 -1.140625 C 0.820312 -0.953125 0.925781 -0.785156 1.0625 -0.640625 C 1.195312 -0.492188 1.351562 -0.378906 1.53125 -0.296875 C 1.71875 -0.210938 1.921875 -0.171875 2.140625 -0.171875 Z M 2.140625 -0.171875 "/></g></g></g><g fill="#003153" fill-opacity="1"><g transform="translate(96.805519, 68.849511)"><g><path d="M 0.515625 -3.515625 L 0.765625 -3.515625 L 3.203125 -0.453125 L 3.203125 -3.515625 L 3.453125 -3.515625 L 3.453125 0 L 3.25 0 L 0.78125 -3.125 L 0.78125 0 L 0.515625 0 Z M 0.515625 -3.515625 "/></g></g></g><g fill="#003153" fill-opacity="1"><g transform="translate(102.515365, 68.849511)"><g><path d="M 1.859375 -3.546875 L 2.109375 -3.546875 L 3.75 0 L 3.46875 0 L 3.015625 -0.984375 L 0.9375 -0.984375 L 0.5 0 L 0.21875 0 Z M 2.90625 -1.21875 L 1.984375 -3.265625 L 1.046875 -1.21875 Z M 2.90625 -1.21875 "/></g></g></g><g fill="#003153" fill-opacity="1"><g transform="translate(108.225211, 68.849511)"><g><path d="M 0.515625 -3.515625 L 0.78125 -3.515625 L 0.78125 -0.234375 L 2.859375 -0.234375 L 2.859375 0 L 0.515625 0 Z M 0.515625 -3.515625 "/></g></g></g><g fill="#003153" fill-opacity="1"><g transform="translate(113.049652, 68.849511)"><g/></g></g><g fill="#003153" fill-opacity="1"><g transform="translate(116.294445, 68.849511)"><g><path d="M 1.71875 0.046875 C 1.4375 0.046875 1.179688 0 0.953125 -0.09375 C 0.722656 -0.1875 0.503906 -0.328125 0.296875 -0.515625 L 0.46875 -0.703125 C 0.5625 -0.617188 0.65625 -0.539062 0.75 -0.46875 C 0.851562 -0.40625 0.953125 -0.351562 1.046875 -0.3125 C 1.148438 -0.269531 1.253906 -0.238281 1.359375 -0.21875 C 1.472656 -0.195312 1.597656 -0.1875 1.734375 -0.1875 C 1.859375 -0.1875 1.976562 -0.203125 2.09375 -0.234375 C 2.207031 -0.273438 2.300781 -0.328125 2.375 -0.390625 C 2.445312 -0.453125 2.503906 -0.523438 2.546875 -0.609375 C 2.597656 -0.691406 2.625 -0.785156 2.625 -0.890625 C 2.625 -0.984375 2.609375 -1.066406 2.578125 -1.140625 C 2.546875 -1.222656 2.492188 -1.289062 2.421875 -1.34375 C 2.347656 -1.40625 2.242188 -1.457031 2.109375 -1.5 C 1.984375 -1.550781 1.820312 -1.597656 1.625 -1.640625 C 1.414062 -1.679688 1.234375 -1.734375 1.078125 -1.796875 C 0.929688 -1.859375 0.804688 -1.925781 0.703125 -2 C 0.609375 -2.082031 0.539062 -2.175781 0.5 -2.28125 C 0.457031 -2.382812 0.4375 -2.503906 0.4375 -2.640625 C 0.4375 -2.773438 0.460938 -2.898438 0.515625 -3.015625 C 0.578125 -3.128906 0.65625 -3.226562 0.75 -3.3125 C 0.851562 -3.394531 0.972656 -3.457031 1.109375 -3.5 C 1.253906 -3.550781 1.40625 -3.578125 1.5625 -3.578125 C 1.820312 -3.578125 2.046875 -3.539062 2.234375 -3.46875 C 2.421875 -3.394531 2.601562 -3.285156 2.78125 -3.140625 L 2.609375 -2.9375 C 2.441406 -3.082031 2.269531 -3.179688 2.09375 -3.234375 C 1.925781 -3.296875 1.75 -3.328125 1.5625 -3.328125 C 1.425781 -3.328125 1.304688 -3.3125 1.203125 -3.28125 C 1.097656 -3.25 1.003906 -3.203125 0.921875 -3.140625 C 0.847656 -3.078125 0.789062 -3.003906 0.75 -2.921875 C 0.71875 -2.847656 0.703125 -2.765625 0.703125 -2.671875 L 0.703125 -2.65625 C 0.703125 -2.5625 0.710938 -2.476562 0.734375 -2.40625 C 0.765625 -2.332031 0.816406 -2.265625 0.890625 -2.203125 C 0.972656 -2.140625 1.078125 -2.082031 1.203125 -2.03125 C 1.335938 -1.976562 1.507812 -1.929688 1.71875 -1.890625 C 2.132812 -1.804688 2.429688 -1.6875 2.609375 -1.53125 C 2.796875 -1.382812 2.890625 -1.179688 2.890625 -0.921875 L 2.890625 -0.90625 C 2.890625 -0.769531 2.859375 -0.640625 2.796875 -0.515625 C 2.734375 -0.398438 2.648438 -0.300781 2.546875 -0.21875 C 2.453125 -0.132812 2.332031 -0.0664062 2.1875 -0.015625 C 2.039062 0.0234375 1.882812 0.046875 1.71875 0.046875 Z M 1.71875 0.046875 "/></g></g></g><g fill="#003153" fill-opacity="1"><g transform="translate(121.249682, 68.849511)"><g><path d="M 0.515625 -3.515625 L 3.03125 -3.515625 L 3.03125 -3.28125 L 0.78125 -3.28125 L 0.78125 -1.890625 L 2.796875 -1.890625 L 2.796875 -1.65625 L 0.78125 -1.65625 L 0.78125 -0.234375 L 3.046875 -0.234375 L 3.046875 0 L 0.515625 0 Z M 0.515625 -3.515625 "/></g></g></g><g fill="#003153" fill-opacity="1"><g transform="translate(126.35584, 68.849511)"><g><path d="M 0.515625 -3.515625 L 2 -3.515625 C 2.21875 -3.515625 2.410156 -3.484375 2.578125 -3.421875 C 2.742188 -3.359375 2.882812 -3.273438 3 -3.171875 C 3.082031 -3.085938 3.144531 -2.988281 3.1875 -2.875 C 3.238281 -2.769531 3.265625 -2.648438 3.265625 -2.515625 C 3.265625 -2.367188 3.238281 -2.234375 3.1875 -2.109375 C 3.132812 -1.992188 3.0625 -1.894531 2.96875 -1.8125 C 2.875 -1.726562 2.765625 -1.660156 2.640625 -1.609375 C 2.515625 -1.554688 2.378906 -1.519531 2.234375 -1.5 L 3.390625 0 L 3.0625 0 L 1.9375 -1.453125 L 0.78125 -1.453125 L 0.78125 0 L 0.515625 0 Z M 1.96875 -1.703125 C 2.113281 -1.703125 2.25 -1.71875 2.375 -1.75 C 2.507812 -1.789062 2.617188 -1.84375 2.703125 -1.90625 C 2.796875 -1.976562 2.867188 -2.0625 2.921875 -2.15625 C 2.972656 -2.257812 3 -2.375 3 -2.5 L 3 -2.515625 C 3 -2.753906 2.910156 -2.941406 2.734375 -3.078125 C 2.554688 -3.210938 2.304688 -3.28125 1.984375 -3.28125 L 0.78125 -3.28125 L 0.78125 -1.703125 Z M 1.96875 -1.703125 "/></g></g></g><g fill="#003153" fill-opacity="1"><g transform="translate(131.728623, 68.849511)"><g><path d="M 0.21875 -3.515625 L 0.515625 -3.515625 L 1.890625 -0.28125 L 3.28125 -3.515625 L 3.546875 -3.515625 L 2 0.03125 L 1.765625 0.03125 Z M 0.21875 -3.515625 "/></g></g></g><g fill="#003153" fill-opacity="1"><g transform="translate(137.237238, 68.849511)"><g><path d="M 0.5625 -3.515625 L 0.8125 -3.515625 L 0.8125 0 L 0.5625 0 Z M 0.5625 -3.515625 "/></g></g></g><g fill="#003153" fill-opacity="1"><g transform="translate(140.351235, 68.849511)"><g><path d="M 2.125 0.0625 C 1.863281 0.0625 1.625 0.015625 1.40625 -0.078125 C 1.195312 -0.171875 1.015625 -0.296875 0.859375 -0.453125 C 0.703125 -0.617188 0.582031 -0.8125 0.5 -1.03125 C 0.414062 -1.257812 0.375 -1.5 0.375 -1.75 L 0.375 -1.765625 C 0.375 -2.015625 0.414062 -2.25 0.5 -2.46875 C 0.59375 -2.6875 0.71875 -2.878906 0.875 -3.046875 C 1.03125 -3.210938 1.210938 -3.34375 1.421875 -3.4375 C 1.640625 -3.53125 1.875 -3.578125 2.125 -3.578125 C 2.28125 -3.578125 2.421875 -3.5625 2.546875 -3.53125 C 2.679688 -3.507812 2.800781 -3.472656 2.90625 -3.421875 C 3.019531 -3.367188 3.125 -3.304688 3.21875 -3.234375 C 3.3125 -3.171875 3.40625 -3.097656 3.5 -3.015625 L 3.3125 -2.828125 C 3.226562 -2.898438 3.144531 -2.96875 3.0625 -3.03125 C 2.976562 -3.09375 2.890625 -3.144531 2.796875 -3.1875 C 2.703125 -3.238281 2.597656 -3.273438 2.484375 -3.296875 C 2.367188 -3.328125 2.25 -3.34375 2.125 -3.34375 C 1.914062 -3.34375 1.71875 -3.300781 1.53125 -3.21875 C 1.351562 -3.144531 1.195312 -3.035156 1.0625 -2.890625 C 0.925781 -2.742188 0.820312 -2.578125 0.75 -2.390625 C 0.675781 -2.203125 0.640625 -1.992188 0.640625 -1.765625 C 0.640625 -1.535156 0.675781 -1.320312 0.75 -1.125 C 0.832031 -0.9375 0.9375 -0.769531 1.0625 -0.625 C 1.195312 -0.488281 1.351562 -0.378906 1.53125 -0.296875 C 1.71875 -0.210938 1.914062 -0.171875 2.125 -0.171875 C 2.382812 -0.171875 2.609375 -0.21875 2.796875 -0.3125 C 2.984375 -0.40625 3.164062 -0.539062 3.34375 -0.71875 L 3.515625 -0.546875 C 3.421875 -0.460938 3.320312 -0.378906 3.21875 -0.296875 C 3.125 -0.222656 3.019531 -0.160156 2.90625 -0.109375 C 2.789062 -0.0546875 2.664062 -0.015625 2.53125 0.015625 C 2.40625 0.046875 2.269531 0.0625 2.125 0.0625 Z M 2.125 0.0625 "/></g></g></g><g fill="#003153" fill-opacity="1"><g transform="translate(145.824635, 68.849511)"><g><path d="M 0.515625 -3.515625 L 3.03125 -3.515625 L 3.03125 -3.28125 L 0.78125 -3.28125 L 0.78125 -1.890625 L 2.796875 -1.890625 L 2.796875 -1.65625 L 0.78125 -1.65625 L 0.78125 -0.234375 L 3.046875 -0.234375 L 3.046875 0 L 0.515625 0 Z M 0.515625 -3.515625 "/></g></g></g><g fill="#003153" fill-opacity="1"><g transform="translate(150.930792, 68.849511)"><g><path d="M 1.71875 0.046875 C 1.4375 0.046875 1.179688 0 0.953125 -0.09375 C 0.722656 -0.1875 0.503906 -0.328125 0.296875 -0.515625 L 0.46875 -0.703125 C 0.5625 -0.617188 0.65625 -0.539062 0.75 -0.46875 C 0.851562 -0.40625 0.953125 -0.351562 1.046875 -0.3125 C 1.148438 -0.269531 1.253906 -0.238281 1.359375 -0.21875 C 1.472656 -0.195312 1.597656 -0.1875 1.734375 -0.1875 C 1.859375 -0.1875 1.976562 -0.203125 2.09375 -0.234375 C 2.207031 -0.273438 2.300781 -0.328125 2.375 -0.390625 C 2.445312 -0.453125 2.503906 -0.523438 2.546875 -0.609375 C 2.597656 -0.691406 2.625 -0.785156 2.625 -0.890625 C 2.625 -0.984375 2.609375 -1.066406 2.578125 -1.140625 C 2.546875 -1.222656 2.492188 -1.289062 2.421875 -1.34375 C 2.347656 -1.40625 2.242188 -1.457031 2.109375 -1.5 C 1.984375 -1.550781 1.820312 -1.597656 1.625 -1.640625 C 1.414062 -1.679688 1.234375 -1.734375 1.078125 -1.796875 C 0.929688 -1.859375 0.804688 -1.925781 0.703125 -2 C 0.609375 -2.082031 0.539062 -2.175781 0.5 -2.28125 C 0.457031 -2.382812 0.4375 -2.503906 0.4375 -2.640625 C 0.4375 -2.773438 0.460938 -2.898438 0.515625 -3.015625 C 0.578125 -3.128906 0.65625 -3.226562 0.75 -3.3125 C 0.851562 -3.394531 0.972656 -3.457031 1.109375 -3.5 C 1.253906 -3.550781 1.40625 -3.578125 1.5625 -3.578125 C 1.820312 -3.578125 2.046875 -3.539062 2.234375 -3.46875 C 2.421875 -3.394531 2.601562 -3.285156 2.78125 -3.140625 L 2.609375 -2.9375 C 2.441406 -3.082031 2.269531 -3.179688 2.09375 -3.234375 C 1.925781 -3.296875 1.75 -3.328125 1.5625 -3.328125 C 1.425781 -3.328125 1.304688 -3.3125 1.203125 -3.28125 C 1.097656 -3.25 1.003906 -3.203125 0.921875 -3.140625 C 0.847656 -3.078125 0.789062 -3.003906 0.75 -2.921875 C 0.71875 -2.847656 0.703125 -2.765625 0.703125 -2.671875 L 0.703125 -2.65625 C 0.703125 -2.5625 0.710938 -2.476562 0.734375 -2.40625 C 0.765625 -2.332031 0.816406 -2.265625 0.890625 -2.203125 C 0.972656 -2.140625 1.078125 -2.082031 1.203125 -2.03125 C 1.335938 -1.976562 1.507812 -1.929688 1.71875 -1.890625 C 2.132812 -1.804688 2.429688 -1.6875 2.609375 -1.53125 C 2.796875 -1.382812 2.890625 -1.179688 2.890625 -0.921875 L 2.890625 -0.90625 C 2.890625 -0.769531 2.859375 -0.640625 2.796875 -0.515625 C 2.734375 -0.398438 2.648438 -0.300781 2.546875 -0.21875 C 2.453125 -0.132812 2.332031 -0.0664062 2.1875 -0.015625 C 2.039062 0.0234375 1.882812 0.046875 1.71875 0.046875 Z M 1.71875 0.046875 "/></g></g></g><g fill="#003153" fill-opacity="1"><g transform="translate(155.886029, 68.849511)"><g/></g></g><g fill="#003153" fill-opacity="1"><g transform="translate(159.130823, 68.849511)"><g><path d="M 0.515625 -3.515625 L 0.78125 -3.515625 L 0.78125 -0.234375 L 2.859375 -0.234375 L 2.859375 0 L 0.515625 0 Z M 0.515625 -3.515625 "/></g></g></g><g fill="#003153" fill-opacity="1"><g transform="translate(163.955264, 68.849511)"><g><path d="M 0.5625 -3.515625 L 0.8125 -3.515625 L 0.8125 0 L 0.5625 0 Z M 0.5625 -3.515625 "/></g></g></g><g fill="#003153" fill-opacity="1"><g transform="translate(167.069268, 68.849511)"><g><path d="M 0.515625 -3.515625 L 0.765625 -3.515625 L 2.1875 -1.4375 L 3.59375 -3.515625 L 3.84375 -3.515625 L 3.84375 0 L 3.578125 0 L 3.578125 -3.0625 L 2.1875 -1.03125 L 2.171875 -1.03125 L 0.78125 -3.0625 L 0.78125 0 L 0.515625 0 Z M 0.515625 -3.515625 "/></g></g></g><g fill="#003153" fill-opacity="1"><g transform="translate(173.171502, 68.849511)"><g><path d="M 0.5625 -3.515625 L 0.8125 -3.515625 L 0.8125 0 L 0.5625 0 Z M 0.5625 -3.515625 "/></g></g></g><g fill="#003153" fill-opacity="1"><g transform="translate(176.285506, 68.849511)"><g><path d="M 1.46875 -3.28125 L 0.25 -3.28125 L 0.25 -3.515625 L 2.96875 -3.515625 L 2.96875 -3.28125 L 1.734375 -3.28125 L 1.734375 0 L 1.46875 0 Z M 1.46875 -3.28125 "/></g></g></g><g fill="#003153" fill-opacity="1"><g transform="translate(181.230681, 68.849511)"><g><path d="M 0.515625 -3.515625 L 3.03125 -3.515625 L 3.03125 -3.28125 L 0.78125 -3.28125 L 0.78125 -1.890625 L 2.796875 -1.890625 L 2.796875 -1.65625 L 0.78125 -1.65625 L 0.78125 -0.234375 L 3.046875 -0.234375 L 3.046875 0 L 0.515625 0 Z M 0.515625 -3.515625 "/></g></g></g><g fill="#003153" fill-opacity="1"><g transform="translate(186.336838, 68.849511)"><g><path d="M 0.515625 -3.515625 L 1.703125 -3.515625 C 1.972656 -3.515625 2.222656 -3.46875 2.453125 -3.375 C 2.679688 -3.289062 2.878906 -3.171875 3.046875 -3.015625 C 3.210938 -2.859375 3.335938 -2.671875 3.421875 -2.453125 C 3.515625 -2.242188 3.5625 -2.015625 3.5625 -1.765625 C 3.5625 -1.515625 3.515625 -1.28125 3.421875 -1.0625 C 3.335938 -0.851562 3.210938 -0.664062 3.046875 -0.5 C 2.878906 -0.34375 2.679688 -0.21875 2.453125 -0.125 C 2.222656 -0.0390625 1.972656 0 1.703125 0 L 0.515625 0 Z M 0.78125 -3.28125 L 0.78125 -0.234375 L 1.703125 -0.234375 C 1.941406 -0.234375 2.160156 -0.273438 2.359375 -0.359375 C 2.554688 -0.441406 2.722656 -0.550781 2.859375 -0.6875 C 2.992188 -0.820312 3.097656 -0.976562 3.171875 -1.15625 C 3.253906 -1.34375 3.296875 -1.539062 3.296875 -1.75 L 3.296875 -1.765625 C 3.296875 -1.972656 3.253906 -2.164062 3.171875 -2.34375 C 3.097656 -2.53125 2.992188 -2.691406 2.859375 -2.828125 C 2.722656 -2.960938 2.554688 -3.070312 2.359375 -3.15625 C 2.160156 -3.238281 1.941406 -3.28125 1.703125 -3.28125 Z M 0.78125 -3.28125 "/></g></g></g><g fill="#003153" fill-opacity="1"><g transform="translate(90.670882, 50.131069)"><g><path d="M 1.84375 0 L 1.84375 -19.609375 L 8.734375 -19.609375 L 8.734375 -15.65625 C 9.285156 -16.988281 10.050781 -18.050781 11.03125 -18.84375 C 12.007812 -19.644531 13.3125 -20.007812 14.9375 -19.9375 L 14.9375 -12.6875 L 14.359375 -12.6875 C 12.566406 -12.6875 11.179688 -12.15625 10.203125 -11.09375 C 9.222656 -10.03125 8.734375 -8.375 8.734375 -6.125 L 8.734375 0 Z M 1.84375 0 "/></g></g></g><g fill="#003153" fill-opacity="1"><g transform="translate(105.826082, 50.131069)"><g><path d="M 11.859375 0.46875 C 10.304688 0.46875 8.863281 0.195312 7.53125 -0.34375 C 6.207031 -0.882812 5.070312 -1.613281 4.125 -2.53125 C 3.1875 -3.457031 2.445312 -4.539062 1.90625 -5.78125 C 1.363281 -7.03125 1.09375 -8.34375 1.09375 -9.71875 L 1.09375 -9.78125 C 1.09375 -11.164062 1.363281 -12.484375 1.90625 -13.734375 C 2.445312 -14.992188 3.191406 -16.085938 4.140625 -17.015625 C 5.097656 -17.953125 6.238281 -18.691406 7.5625 -19.234375 C 8.894531 -19.773438 10.347656 -20.046875 11.921875 -20.046875 C 13.492188 -20.046875 14.9375 -19.773438 16.25 -19.234375 C 17.570312 -18.691406 18.707031 -17.957031 19.65625 -17.03125 C 20.613281 -16.113281 21.363281 -15.03125 21.90625 -13.78125 C 22.457031 -12.539062 22.734375 -11.234375 22.734375 -9.859375 L 22.734375 -9.78125 C 22.734375 -8.40625 22.457031 -7.085938 21.90625 -5.828125 C 21.363281 -4.578125 20.613281 -3.484375 19.65625 -2.546875 C 18.707031 -1.617188 17.5625 -0.882812 16.21875 -0.34375 C 14.875 0.195312 13.421875 0.46875 11.859375 0.46875 Z M 11.921875 -5.359375 C 13.160156 -5.359375 14.160156 -5.785156 14.921875 -6.640625 C 15.679688 -7.503906 16.0625 -8.53125 16.0625 -9.71875 L 16.0625 -9.78125 C 16.0625 -10.988281 15.660156 -12.035156 14.859375 -12.921875 C 14.066406 -13.804688 13.066406 -14.25 11.859375 -14.25 C 10.617188 -14.25 9.625 -13.8125 8.875 -12.9375 C 8.125 -12.070312 7.75 -11.046875 7.75 -9.859375 L 7.75 -9.78125 C 7.75 -8.601562 8.140625 -7.570312 8.921875 -6.6875 C 9.710938 -5.800781 10.710938 -5.359375 11.921875 -5.359375 Z M 11.921875 -5.359375 "/></g></g></g><g fill="#003153" fill-opacity="1"><g transform="translate(129.61032, 50.131069)"><g><path d="M 1.84375 0 L 1.84375 -19.609375 L 8.734375 -19.609375 L 8.734375 -16.859375 C 9.359375 -17.679688 10.148438 -18.414062 11.109375 -19.0625 C 12.066406 -19.71875 13.234375 -20.046875 14.609375 -20.046875 C 16.679688 -20.046875 18.3125 -19.398438 19.5 -18.109375 C 20.6875 -16.816406 21.28125 -15.054688 21.28125 -12.828125 L 21.28125 0 L 14.421875 0 L 14.421875 -10.625 C 14.421875 -11.707031 14.160156 -12.53125 13.640625 -13.09375 C 13.128906 -13.664062 12.460938 -13.953125 11.640625 -13.953125 C 10.816406 -13.953125 10.125 -13.664062 9.5625 -13.09375 C 9.007812 -12.53125 8.734375 -11.707031 8.734375 -10.625 L 8.734375 0 Z M 1.84375 0 "/></g></g></g><g fill="#003153" fill-opacity="1"><g transform="translate(152.596921, 50.131069)"><g><path d="M 9.640625 0.40625 C 7.585938 0.40625 5.976562 -0.09375 4.8125 -1.09375 C 3.65625 -2.101562 3.078125 -3.769531 3.078125 -6.09375 L 3.078125 -14.09375 L 0.765625 -14.09375 L 0.765625 -19.609375 L 3.078125 -19.609375 L 3.078125 -24.578125 L 9.9375 -24.578125 L 9.9375 -19.609375 L 14.5 -19.609375 L 14.5 -14.09375 L 9.9375 -14.09375 L 9.9375 -7.4375 C 9.9375 -6.757812 10.09375 -6.257812 10.40625 -5.9375 C 10.71875 -5.625 11.1875 -5.46875 11.8125 -5.46875 C 12.269531 -5.46875 12.71875 -5.53125 13.15625 -5.65625 C 13.59375 -5.78125 14.015625 -5.9375 14.421875 -6.125 L 14.421875 -0.765625 C 13.816406 -0.421875 13.109375 -0.140625 12.296875 0.078125 C 11.492188 0.296875 10.609375 0.40625 9.640625 0.40625 Z M 9.640625 0.40625 "/></g></g></g><g fill="#003153" fill-opacity="1"><g transform="translate(168.223458, 50.131069)"><g><path d="M 7.46875 0.4375 C 5.601562 0.4375 4.039062 -0.0859375 2.78125 -1.140625 C 1.53125 -2.191406 0.90625 -3.6875 0.90625 -5.625 L 0.90625 -5.6875 C 0.90625 -7.71875 1.609375 -9.253906 3.015625 -10.296875 C 4.429688 -11.335938 6.289062 -11.859375 8.59375 -11.859375 C 9.488281 -11.859375 10.359375 -11.785156 11.203125 -11.640625 C 12.046875 -11.492188 12.742188 -11.3125 13.296875 -11.09375 L 13.296875 -11.421875 C 13.296875 -12.460938 12.96875 -13.257812 12.3125 -13.8125 C 11.664062 -14.363281 10.691406 -14.640625 9.390625 -14.640625 C 8.347656 -14.640625 7.40625 -14.535156 6.5625 -14.328125 C 5.71875 -14.128906 4.847656 -13.875 3.953125 -13.5625 L 2.53125 -18.375 C 3.644531 -18.832031 4.828125 -19.203125 6.078125 -19.484375 C 7.335938 -19.765625 8.800781 -19.90625 10.46875 -19.90625 C 12.21875 -19.90625 13.707031 -19.695312 14.9375 -19.28125 C 16.164062 -18.875 17.164062 -18.285156 17.9375 -17.515625 C 18.6875 -16.785156 19.222656 -15.90625 19.546875 -14.875 C 19.878906 -13.851562 20.046875 -12.65625 20.046875 -11.28125 L 20.046875 0 L 13.265625 0 L 13.265625 -2.0625 C 12.585938 -1.3125 11.769531 -0.707031 10.8125 -0.25 C 9.863281 0.207031 8.75 0.4375 7.46875 0.4375 Z M 9.9375 -3.875 C 10.945312 -3.875 11.769531 -4.171875 12.40625 -4.765625 C 13.050781 -5.359375 13.375 -6.140625 13.375 -7.109375 L 13.375 -8.015625 C 13.007812 -8.160156 12.59375 -8.28125 12.125 -8.375 C 11.65625 -8.46875 11.164062 -8.515625 10.65625 -8.515625 C 9.664062 -8.515625 8.890625 -8.296875 8.328125 -7.859375 C 7.773438 -7.429688 7.5 -6.84375 7.5 -6.09375 L 7.5 -6.015625 C 7.5 -5.335938 7.726562 -4.8125 8.1875 -4.4375 C 8.644531 -4.0625 9.226562 -3.875 9.9375 -3.875 Z M 9.9375 -3.875 "/></g></g></g></svg>