<svg xmlns="http://www.w3.org/2000/svg" xmlns:xlink="http://www.w3.org/1999/xlink" width="300" zoomAndPan="magnify" viewBox="0 0 224.87999 74.999997" height="100" preserveAspectRatio="xMidYMid meet" version="1.0"><defs><g/><clipPath id="d51d221e19"><path d="M 28 13.886719 L 53 13.886719 L 53 50 L 28 50 Z M 28 13.886719 " clip-rule="nonzero"/></clipPath><clipPath id="88a67fb124"><path d="M 6.21875 27 L 60.9375 27 L 60.9375 59 L 6.21875 59 Z M 6.21875 27 " clip-rule="nonzero"/></clipPath><clipPath id="8a4c67622b"><path d="M 27 38 L 60.9375 38 L 60.9375 61.109375 L 27 61.109375 Z M 27 38 " clip-rule="nonzero"/></clipPath></defs><path fill="#0071bc" d="M 31.386719 18.546875 L 31.171875 18.410156 C 31.097656 18.363281 31.027344 18.320312 30.953125 18.273438 C 30.882812 18.226562 30.808594 18.183594 30.738281 18.140625 L 30.519531 18.007812 C 30.226562 17.832031 29.933594 17.664062 29.632812 17.503906 C 29.042969 17.179688 28.4375 16.894531 27.8125 16.636719 C 27.503906 16.511719 27.191406 16.394531 26.878906 16.289062 C 26.5625 16.183594 26.246094 16.089844 25.929688 16.011719 C 25.609375 15.929688 25.289062 15.859375 24.96875 15.804688 C 24.648438 15.753906 24.328125 15.710938 24.007812 15.6875 C 23.6875 15.660156 23.367188 15.652344 23.046875 15.65625 C 22.730469 15.664062 22.417969 15.6875 22.105469 15.726562 C 21.484375 15.808594 20.882812 15.960938 20.296875 16.179688 C 20.007812 16.292969 19.726562 16.417969 19.453125 16.558594 C 19.179688 16.695312 18.917969 16.851562 18.667969 17.023438 C 18.167969 17.363281 17.710938 17.761719 17.335938 18.207031 C 17.148438 18.429688 16.980469 18.660156 16.828125 18.90625 C 16.675781 19.148438 16.550781 19.398438 16.445312 19.664062 L 16.425781 19.710938 L 16.414062 19.734375 L 16.40625 19.757812 L 16.371094 19.859375 L 16.335938 19.957031 C 16.324219 19.988281 16.316406 20.023438 16.304688 20.054688 C 16.261719 20.1875 16.230469 20.328125 16.199219 20.460938 C 16.140625 20.742188 16.101562 21.023438 16.085938 21.308594 C 16.066406 21.597656 16.066406 21.890625 16.089844 22.179688 C 16.097656 22.328125 16.113281 22.472656 16.128906 22.621094 L 16.160156 22.84375 C 16.164062 22.882812 16.171875 22.917969 16.179688 22.957031 L 16.195312 23.066406 L 16.214844 23.179688 L 16.238281 23.292969 L 16.273438 23.457031 L 16.285156 23.515625 L 16.335938 23.738281 L 16.394531 23.960938 C 16.476562 24.257812 16.566406 24.550781 16.671875 24.851562 C 16.695312 24.925781 16.722656 24.996094 16.75 25.070312 L 16.832031 25.292969 L 16.917969 25.511719 L 16.960938 25.625 L 17.007812 25.734375 L 17.097656 25.953125 C 17.128906 26.027344 17.164062 26.097656 17.195312 26.171875 C 17.257812 26.316406 17.328125 26.460938 17.394531 26.605469 C 17.667969 27.1875 17.972656 27.761719 18.296875 28.332031 C 18.9375 29.476562 19.65625 30.617188 20.359375 31.792969 C 20.710938 32.382812 21.058594 32.984375 21.394531 33.601562 C 21.730469 34.21875 22.046875 34.855469 22.339844 35.507812 C 22.375 35.589844 22.410156 35.675781 22.445312 35.757812 C 22.480469 35.839844 22.515625 35.921875 22.550781 36.003906 L 22.648438 36.253906 L 22.699219 36.382812 L 22.746094 36.507812 L 22.84375 36.761719 C 22.875 36.84375 22.902344 36.929688 22.933594 37.015625 C 22.960938 37.097656 22.992188 37.183594 23.019531 37.269531 L 23.101562 37.527344 C 23.117188 37.570312 23.128906 37.613281 23.144531 37.65625 L 23.261719 38.042969 C 23.285156 38.128906 23.308594 38.214844 23.332031 38.300781 C 23.355469 38.386719 23.382812 38.476562 23.402344 38.5625 C 23.445312 38.738281 23.492188 38.910156 23.53125 39.085938 L 23.589844 39.347656 L 23.644531 39.613281 C 23.683594 39.785156 23.710938 39.964844 23.746094 40.140625 C 23.761719 40.226562 23.773438 40.316406 23.789062 40.40625 L 23.832031 40.671875 C 23.882812 41.027344 23.925781 41.382812 23.960938 41.738281 L 23.984375 42.007812 L 24 42.273438 C 24.015625 42.453125 24.019531 42.632812 24.03125 42.808594 C 24.042969 43.167969 24.046875 43.515625 24.050781 43.847656 C 24.058594 44.179688 24.0625 44.5 24.082031 44.808594 C 24.101562 45.101562 24.136719 45.390625 24.1875 45.683594 C 24.195312 45.714844 24.203125 45.75 24.210938 45.785156 L 24.230469 45.886719 C 24.246094 45.957031 24.265625 46.019531 24.28125 46.085938 C 24.292969 46.121094 24.300781 46.148438 24.308594 46.179688 C 24.320312 46.210938 24.328125 46.238281 24.339844 46.269531 L 24.371094 46.359375 C 24.386719 46.386719 24.394531 46.417969 24.410156 46.445312 C 24.507812 46.679688 24.632812 46.898438 24.789062 47.101562 C 24.929688 47.289062 25.097656 47.449219 25.292969 47.582031 C 25.46875 47.703125 25.660156 47.777344 25.867188 47.8125 C 25.96875 47.832031 26.070312 47.835938 26.175781 47.828125 C 26.289062 47.820312 26.398438 47.800781 26.503906 47.769531 C 26.621094 47.738281 26.738281 47.695312 26.847656 47.640625 C 26.964844 47.585938 27.074219 47.519531 27.183594 47.445312 C 27.296875 47.371094 27.402344 47.285156 27.503906 47.195312 C 27.609375 47.105469 27.707031 47.003906 27.800781 46.902344 C 27.824219 46.875 27.84375 46.847656 27.871094 46.824219 L 27.9375 46.738281 C 27.984375 46.679688 28.027344 46.617188 28.074219 46.558594 C 28.160156 46.4375 28.246094 46.3125 28.328125 46.179688 C 28.410156 46.046875 28.488281 45.910156 28.570312 45.769531 C 28.648438 45.628906 28.722656 45.484375 28.800781 45.335938 C 28.953125 45.042969 29.105469 44.734375 29.273438 44.425781 C 29.3125 44.351562 29.355469 44.273438 29.398438 44.195312 C 29.441406 44.117188 29.484375 44.039062 29.53125 43.960938 L 29.597656 43.847656 C 29.621094 43.808594 29.644531 43.769531 29.667969 43.730469 C 29.714844 43.652344 29.765625 43.578125 29.816406 43.5 C 29.839844 43.464844 29.867188 43.425781 29.894531 43.386719 C 29.917969 43.351562 29.945312 43.3125 29.972656 43.277344 C 30.027344 43.203125 30.082031 43.128906 30.140625 43.054688 L 30.226562 42.949219 L 30.316406 42.839844 L 30.359375 42.789062 C 30.375 42.769531 30.390625 42.753906 30.40625 42.734375 L 30.503906 42.632812 C 30.765625 42.355469 31.058594 42.117188 31.386719 41.917969 C 31.472656 41.871094 31.554688 41.820312 31.640625 41.78125 C 31.683594 41.757812 31.726562 41.738281 31.769531 41.71875 L 31.90625 41.660156 C 32.085938 41.59375 32.273438 41.542969 32.464844 41.507812 C 32.839844 41.441406 33.214844 41.441406 33.589844 41.503906 C 33.769531 41.535156 33.949219 41.578125 34.121094 41.640625 C 34.296875 41.699219 34.460938 41.769531 34.621094 41.851562 C 34.941406 42.019531 35.226562 42.234375 35.472656 42.492188 C 35.59375 42.621094 35.703125 42.757812 35.796875 42.90625 C 35.890625 43.050781 35.96875 43.203125 36.03125 43.367188 C 35.84375 43.082031 35.617188 42.839844 35.34375 42.640625 C 35.078125 42.445312 34.789062 42.296875 34.472656 42.195312 C 34.320312 42.144531 34.167969 42.105469 34.007812 42.078125 C 33.96875 42.074219 33.929688 42.066406 33.890625 42.0625 L 33.773438 42.046875 L 33.652344 42.039062 C 33.613281 42.039062 33.574219 42.039062 33.535156 42.035156 C 33.378906 42.035156 33.226562 42.042969 33.070312 42.066406 C 32.921875 42.089844 32.773438 42.125 32.628906 42.171875 C 32.488281 42.21875 32.351562 42.277344 32.222656 42.351562 L 32.128906 42.40625 C 32.097656 42.425781 32.066406 42.449219 32.035156 42.46875 C 31.972656 42.507812 31.917969 42.554688 31.855469 42.601562 C 31.828125 42.621094 31.800781 42.648438 31.773438 42.671875 C 31.742188 42.695312 31.714844 42.71875 31.6875 42.746094 L 31.609375 42.824219 L 31.585938 42.84375 L 31.566406 42.863281 L 31.53125 42.90625 C 31.425781 43.015625 31.328125 43.132812 31.238281 43.253906 C 31.058594 43.507812 30.898438 43.773438 30.757812 44.050781 C 30.722656 44.121094 30.6875 44.191406 30.65625 44.265625 C 30.640625 44.300781 30.621094 44.335938 30.605469 44.375 L 30.558594 44.484375 C 30.523438 44.554688 30.496094 44.632812 30.464844 44.707031 C 30.433594 44.78125 30.402344 44.855469 30.371094 44.933594 C 30.25 45.242188 30.132812 45.554688 30.007812 45.878906 C 29.882812 46.203125 29.746094 46.53125 29.582031 46.863281 C 29.503906 47.027344 29.414062 47.195312 29.320312 47.359375 C 29.269531 47.4375 29.222656 47.519531 29.167969 47.601562 L 29.089844 47.722656 C 29.058594 47.765625 29.03125 47.804688 29 47.84375 C 28.761719 48.175781 28.484375 48.46875 28.167969 48.730469 C 28.007812 48.863281 27.835938 48.984375 27.652344 49.09375 C 27.5625 49.148438 27.46875 49.199219 27.367188 49.25 C 27.320312 49.273438 27.269531 49.296875 27.21875 49.320312 L 27.0625 49.382812 C 26.847656 49.464844 26.628906 49.523438 26.402344 49.558594 C 25.921875 49.636719 25.453125 49.601562 24.988281 49.457031 C 24.761719 49.386719 24.546875 49.296875 24.339844 49.179688 C 23.933594 48.957031 23.59375 48.667969 23.304688 48.34375 C 23.160156 48.183594 23.027344 48.015625 22.90625 47.839844 C 22.789062 47.664062 22.679688 47.480469 22.585938 47.292969 C 22.5625 47.246094 22.539062 47.195312 22.515625 47.148438 C 22.496094 47.101562 22.472656 47.050781 22.453125 47.003906 C 22.429688 46.953125 22.410156 46.90625 22.394531 46.855469 C 22.375 46.804688 22.355469 46.753906 22.339844 46.707031 C 22.308594 46.613281 22.269531 46.515625 22.246094 46.417969 L 22.203125 46.273438 C 22.1875 46.226562 22.175781 46.179688 22.164062 46.132812 C 22.074219 45.757812 22.003906 45.378906 21.960938 45 C 21.917969 44.632812 21.890625 44.273438 21.871094 43.929688 C 21.851562 43.585938 21.832031 43.253906 21.804688 42.9375 L 21.78125 42.695312 C 21.773438 42.617188 21.765625 42.539062 21.757812 42.457031 L 21.730469 42.222656 L 21.699219 41.984375 C 21.617188 41.351562 21.5 40.722656 21.351562 40.101562 C 21.207031 39.480469 21.03125 38.871094 20.820312 38.265625 L 20.742188 38.042969 C 20.714844 37.964844 20.6875 37.890625 20.660156 37.816406 C 20.632812 37.742188 20.605469 37.667969 20.574219 37.59375 L 20.488281 37.375 L 20.441406 37.261719 L 20.398438 37.152344 L 20.304688 36.933594 C 20.273438 36.859375 20.238281 36.785156 20.207031 36.714844 C 20.175781 36.640625 20.144531 36.566406 20.109375 36.496094 C 20.039062 36.351562 19.976562 36.203125 19.902344 36.058594 L 19.796875 35.84375 L 19.6875 35.625 C 19.617188 35.480469 19.539062 35.339844 19.460938 35.195312 C 19.386719 35.050781 19.308594 34.90625 19.230469 34.765625 C 19.148438 34.621094 19.070312 34.476562 18.988281 34.332031 L 18.867188 34.117188 L 18.742188 33.902344 C 18.660156 33.761719 18.574219 33.617188 18.492188 33.472656 L 18.234375 33.042969 C 17.546875 31.890625 16.824219 30.722656 16.15625 29.492188 C 16.074219 29.339844 15.992188 29.183594 15.910156 29.027344 L 15.789062 28.792969 L 15.667969 28.554688 L 15.609375 28.4375 L 15.550781 28.316406 L 15.4375 28.078125 C 15.398438 27.996094 15.363281 27.914062 15.324219 27.835938 C 15.285156 27.753906 15.25 27.671875 15.214844 27.589844 C 15.140625 27.425781 15.070312 27.265625 15 27.097656 C 14.96875 27.011719 14.933594 26.929688 14.898438 26.847656 L 14.800781 26.59375 L 14.753906 26.46875 L 14.707031 26.339844 L 14.613281 26.085938 L 14.527344 25.828125 C 14.5 25.742188 14.46875 25.65625 14.445312 25.566406 C 14.335938 25.222656 14.238281 24.863281 14.152344 24.503906 L 14.09375 24.230469 L 14.042969 23.957031 L 14.027344 23.890625 L 14.015625 23.820312 L 13.996094 23.679688 L 13.972656 23.542969 L 13.953125 23.402344 L 13.9375 23.261719 C 13.929688 23.214844 13.921875 23.167969 13.917969 23.121094 L 13.890625 22.839844 C 13.878906 22.648438 13.867188 22.460938 13.867188 22.269531 C 13.855469 21.878906 13.871094 21.496094 13.917969 21.109375 C 13.960938 20.71875 14.035156 20.332031 14.136719 19.949219 C 14.246094 19.566406 14.382812 19.191406 14.554688 18.832031 C 14.726562 18.472656 14.925781 18.128906 15.152344 17.804688 C 15.378906 17.484375 15.632812 17.1875 15.90625 16.90625 L 16.007812 16.804688 L 16.058594 16.75 C 16.074219 16.734375 16.09375 16.71875 16.113281 16.703125 C 16.183594 16.636719 16.253906 16.570312 16.324219 16.503906 L 16.542969 16.320312 C 16.617188 16.257812 16.695312 16.199219 16.769531 16.140625 C 17.375 15.679688 18.03125 15.308594 18.738281 15.019531 C 19.082031 14.875 19.433594 14.753906 19.796875 14.652344 C 20.152344 14.550781 20.519531 14.472656 20.886719 14.414062 C 21.253906 14.355469 21.621094 14.324219 21.992188 14.3125 C 22.359375 14.300781 22.730469 14.3125 23.09375 14.34375 C 23.457031 14.375 23.816406 14.425781 24.171875 14.496094 C 24.527344 14.566406 24.875 14.648438 25.21875 14.75 C 25.5625 14.851562 25.898438 14.96875 26.226562 15.097656 C 26.558594 15.230469 26.878906 15.371094 27.195312 15.527344 C 27.511719 15.679688 27.820312 15.847656 28.121094 16.023438 C 29.324219 16.730469 30.410156 17.59375 31.386719 18.546875 Z M 31.386719 18.546875 " fill-opacity="1" fill-rule="nonzero"/><g clip-path="url(#d51d221e19)"><path fill="#0071bc" d="M 28.605469 28.238281 C 29.113281 26.714844 29.742188 25.242188 30.496094 23.820312 C 31.25 22.398438 32.128906 21.027344 33.152344 19.753906 C 33.667969 19.109375 34.21875 18.5 34.804688 17.921875 C 35.097656 17.632812 35.40625 17.351562 35.722656 17.082031 C 36.035156 16.808594 36.363281 16.546875 36.703125 16.300781 C 37.386719 15.792969 38.113281 15.351562 38.878906 14.980469 C 39.65625 14.609375 40.484375 14.308594 41.355469 14.128906 C 42.246094 13.941406 43.140625 13.890625 44.046875 13.980469 C 44.273438 14.003906 44.492188 14.035156 44.707031 14.074219 C 44.925781 14.109375 45.136719 14.152344 45.351562 14.203125 C 45.566406 14.25 45.777344 14.304688 45.988281 14.363281 C 46.199219 14.421875 46.410156 14.488281 46.617188 14.5625 C 47.039062 14.707031 47.445312 14.875 47.847656 15.070312 C 48.253906 15.269531 48.644531 15.492188 49.019531 15.746094 C 49.398438 16.003906 49.757812 16.292969 50.09375 16.609375 C 50.433594 16.929688 50.742188 17.277344 51.019531 17.65625 L 51.125 17.796875 C 51.15625 17.84375 51.1875 17.894531 51.222656 17.945312 C 51.285156 18.042969 51.351562 18.136719 51.410156 18.238281 L 51.5 18.390625 L 51.585938 18.546875 C 51.644531 18.648438 51.695312 18.753906 51.746094 18.859375 C 51.773438 18.910156 51.796875 18.964844 51.820312 19.019531 C 51.84375 19.070312 51.867188 19.125 51.890625 19.179688 L 51.960938 19.339844 L 52.023438 19.503906 L 52.082031 19.671875 L 52.164062 19.917969 C 52.175781 19.945312 52.183594 19.976562 52.191406 20.003906 L 52.238281 20.171875 C 52.363281 20.617188 52.445312 21.066406 52.496094 21.527344 C 52.542969 21.972656 52.5625 22.421875 52.550781 22.875 C 52.539062 23.316406 52.503906 23.753906 52.449219 24.179688 C 52.421875 24.390625 52.394531 24.601562 52.359375 24.804688 L 52.3125 25.105469 L 52.253906 25.425781 L 52.226562 25.582031 C 52.21875 25.636719 52.203125 25.6875 52.195312 25.742188 L 52.125 26.058594 C 52.101562 26.164062 52.074219 26.269531 52.050781 26.375 C 52.035156 26.429688 52.023438 26.484375 52.007812 26.535156 L 51.964844 26.695312 L 51.917969 26.851562 C 51.902344 26.90625 51.890625 26.957031 51.871094 27.011719 L 51.769531 27.328125 C 51.695312 27.535156 51.621094 27.746094 51.53125 27.953125 C 51.363281 28.363281 51.171875 28.765625 50.957031 29.15625 C 50.742188 29.539062 50.507812 29.90625 50.273438 30.257812 C 50.035156 30.609375 49.796875 30.941406 49.558594 31.265625 C 49.324219 31.59375 49.09375 31.90625 48.871094 32.222656 C 48.757812 32.378906 48.648438 32.535156 48.539062 32.695312 L 48.378906 32.929688 L 48.300781 33.050781 L 48.222656 33.167969 C 48.011719 33.484375 47.816406 33.808594 47.621094 34.132812 C 47.234375 34.78125 46.882812 35.453125 46.554688 36.140625 L 46.496094 36.269531 L 46.433594 36.402344 L 46.316406 36.660156 L 46.257812 36.792969 C 46.238281 36.835938 46.21875 36.878906 46.199219 36.921875 L 46.089844 37.179688 C 46.070312 37.222656 46.054688 37.265625 46.035156 37.308594 L 45.984375 37.441406 C 45.949219 37.527344 45.910156 37.613281 45.878906 37.699219 L 45.777344 37.964844 L 45.683594 38.226562 C 45.667969 38.273438 45.652344 38.316406 45.636719 38.359375 L 45.59375 38.496094 C 45.5625 38.582031 45.53125 38.671875 45.503906 38.761719 C 45.449219 38.941406 45.394531 39.121094 45.34375 39.300781 C 45.289062 39.480469 45.242188 39.664062 45.195312 39.84375 L 45.125 40.117188 L 45.0625 40.390625 C 44.980469 40.757812 44.910156 41.128906 44.847656 41.496094 L 44.804688 41.777344 C 44.789062 41.867188 44.777344 41.960938 44.765625 42.054688 L 44.746094 42.195312 L 44.699219 42.617188 C 44.683594 42.804688 44.664062 42.988281 44.648438 43.179688 C 44.636719 43.371094 44.621094 43.566406 44.609375 43.765625 C 44.585938 44.164062 44.554688 44.582031 44.503906 45.007812 L 44.480469 45.171875 L 44.46875 45.25 L 44.433594 45.496094 L 44.386719 45.742188 L 44.367188 45.828125 L 44.332031 45.992188 L 44.289062 46.160156 C 44.28125 46.1875 44.273438 46.214844 44.265625 46.242188 L 44.242188 46.324219 C 44.226562 46.382812 44.210938 46.4375 44.191406 46.492188 L 44.136719 46.660156 C 44.125 46.6875 44.117188 46.714844 44.105469 46.742188 L 44.074219 46.828125 C 44.050781 46.886719 44.027344 46.941406 44.003906 46.996094 C 43.90625 47.222656 43.792969 47.4375 43.664062 47.644531 C 43.398438 48.070312 43.070312 48.441406 42.679688 48.757812 C 42.578125 48.835938 42.472656 48.914062 42.367188 48.984375 C 42.253906 49.054688 42.140625 49.117188 42.019531 49.175781 L 41.976562 49.199219 L 41.929688 49.21875 L 41.839844 49.257812 C 41.777344 49.28125 41.714844 49.308594 41.652344 49.328125 C 41.523438 49.375 41.390625 49.410156 41.257812 49.4375 L 41.15625 49.457031 C 41.125 49.464844 41.089844 49.46875 41.054688 49.472656 C 40.988281 49.480469 40.921875 49.488281 40.851562 49.492188 C 40.71875 49.503906 40.582031 49.503906 40.445312 49.492188 C 40.3125 49.484375 40.179688 49.464844 40.046875 49.441406 C 39.917969 49.414062 39.792969 49.378906 39.667969 49.339844 C 39.546875 49.300781 39.429688 49.253906 39.3125 49.199219 C 39.199219 49.148438 39.089844 49.089844 38.980469 49.027344 C 38.875 48.96875 38.773438 48.902344 38.675781 48.832031 C 38.574219 48.761719 38.480469 48.6875 38.390625 48.609375 C 38.300781 48.535156 38.214844 48.453125 38.128906 48.371094 C 38.046875 48.289062 37.96875 48.203125 37.890625 48.117188 C 37.8125 48.03125 37.742188 47.941406 37.671875 47.851562 C 37.601562 47.757812 37.535156 47.664062 37.476562 47.570312 C 37.417969 47.476562 37.359375 47.382812 37.300781 47.289062 C 37.246094 47.191406 37.191406 47.097656 37.144531 47 C 37.09375 46.90625 37.046875 46.808594 37 46.714844 C 36.953125 46.617188 36.910156 46.523438 36.867188 46.425781 C 36.78125 46.234375 36.703125 46.046875 36.628906 45.855469 C 36.554688 45.667969 36.484375 45.480469 36.414062 45.296875 C 36.34375 45.113281 36.269531 44.929688 36.199219 44.753906 C 36.125 44.574219 36.046875 44.398438 35.96875 44.222656 C 35.890625 44.050781 35.808594 43.878906 35.71875 43.714844 C 35.675781 43.632812 35.628906 43.554688 35.582031 43.472656 C 35.558594 43.433594 35.535156 43.394531 35.511719 43.355469 C 35.496094 43.339844 35.484375 43.316406 35.472656 43.300781 L 35.433594 43.242188 L 35.398438 43.1875 L 35.359375 43.132812 L 35.277344 43.027344 L 35.191406 42.925781 C 35.183594 42.917969 35.179688 42.90625 35.171875 42.898438 L 35.101562 42.828125 C 34.984375 42.699219 34.851562 42.589844 34.710938 42.492188 C 34.671875 42.46875 34.636719 42.445312 34.601562 42.425781 L 34.488281 42.363281 L 34.371094 42.3125 C 34.351562 42.300781 34.332031 42.292969 34.3125 42.289062 L 34.25 42.265625 C 34.082031 42.210938 33.910156 42.179688 33.734375 42.167969 C 33.550781 42.15625 33.367188 42.164062 33.183594 42.1875 C 32.996094 42.214844 32.808594 42.253906 32.628906 42.308594 C 32.25 42.417969 31.890625 42.566406 31.542969 42.746094 C 31.367188 42.835938 31.191406 42.933594 31.023438 43.035156 C 30.851562 43.140625 30.683594 43.246094 30.519531 43.363281 C 30.804688 43.078125 31.109375 42.816406 31.4375 42.582031 C 31.769531 42.335938 32.121094 42.128906 32.496094 41.960938 C 32.691406 41.875 32.886719 41.800781 33.089844 41.746094 C 33.300781 41.6875 33.511719 41.648438 33.730469 41.632812 C 33.957031 41.617188 34.179688 41.632812 34.402344 41.675781 L 34.488281 41.691406 C 34.515625 41.699219 34.542969 41.703125 34.570312 41.710938 C 34.625 41.730469 34.679688 41.746094 34.734375 41.761719 L 34.894531 41.824219 C 34.949219 41.847656 35 41.871094 35.050781 41.894531 C 35.253906 42 35.445312 42.125 35.621094 42.269531 L 35.683594 42.324219 L 35.71875 42.351562 C 35.726562 42.359375 35.738281 42.371094 35.746094 42.378906 L 35.867188 42.496094 L 35.984375 42.613281 L 36.039062 42.675781 L 36.09375 42.734375 L 36.144531 42.796875 C 36.164062 42.820312 36.179688 42.839844 36.195312 42.859375 C 36.230469 42.902344 36.265625 42.945312 36.296875 42.988281 C 36.359375 43.074219 36.425781 43.160156 36.484375 43.246094 C 36.609375 43.421875 36.71875 43.597656 36.824219 43.777344 C 36.878906 43.863281 36.929688 43.953125 36.980469 44.042969 C 37.03125 44.132812 37.082031 44.222656 37.128906 44.3125 C 37.226562 44.496094 37.320312 44.675781 37.410156 44.855469 L 37.679688 45.382812 C 37.769531 45.558594 37.859375 45.726562 37.953125 45.890625 C 38 45.972656 38.046875 46.054688 38.09375 46.132812 C 38.140625 46.214844 38.191406 46.292969 38.242188 46.367188 C 38.292969 46.445312 38.34375 46.519531 38.394531 46.59375 C 38.445312 46.667969 38.5 46.734375 38.554688 46.804688 C 38.609375 46.871094 38.664062 46.9375 38.71875 47 C 38.777344 47.0625 38.835938 47.121094 38.894531 47.179688 C 38.957031 47.238281 39.019531 47.292969 39.082031 47.34375 C 39.144531 47.398438 39.210938 47.445312 39.277344 47.492188 C 39.542969 47.679688 39.828125 47.816406 40.101562 47.878906 C 40.171875 47.894531 40.238281 47.90625 40.308594 47.914062 C 40.375 47.921875 40.4375 47.925781 40.503906 47.921875 C 40.570312 47.921875 40.632812 47.917969 40.699219 47.90625 C 40.730469 47.902344 40.761719 47.898438 40.792969 47.890625 C 40.804688 47.886719 40.820312 47.882812 40.835938 47.878906 L 40.882812 47.863281 C 41.125 47.792969 41.359375 47.652344 41.570312 47.457031 C 41.789062 47.25 41.96875 47.011719 42.109375 46.742188 C 42.179688 46.605469 42.242188 46.464844 42.296875 46.320312 C 42.308594 46.285156 42.320312 46.246094 42.332031 46.210938 L 42.347656 46.15625 C 42.355469 46.140625 42.359375 46.117188 42.363281 46.097656 L 42.398438 45.980469 C 42.40625 45.941406 42.414062 45.898438 42.425781 45.859375 L 42.4375 45.796875 C 42.441406 45.777344 42.445312 45.757812 42.449219 45.738281 L 42.472656 45.613281 L 42.492188 45.484375 L 42.503906 45.421875 L 42.511719 45.359375 L 42.527344 45.230469 L 42.539062 45.097656 L 42.546875 45.03125 L 42.550781 44.960938 L 42.5625 44.828125 C 42.582031 44.464844 42.585938 44.085938 42.59375 43.691406 C 42.59375 43.496094 42.597656 43.292969 42.601562 43.085938 C 42.605469 42.882812 42.617188 42.671875 42.625 42.460938 C 42.667969 41.625 42.765625 40.792969 42.914062 39.96875 L 42.941406 39.8125 L 42.972656 39.660156 L 43.035156 39.351562 C 43.082031 39.144531 43.125 38.941406 43.175781 38.738281 C 43.273438 38.328125 43.390625 37.925781 43.515625 37.523438 L 43.613281 37.222656 L 43.714844 36.925781 C 43.75 36.824219 43.785156 36.726562 43.820312 36.628906 C 43.859375 36.53125 43.894531 36.429688 43.933594 36.332031 L 44.046875 36.039062 C 44.066406 35.988281 44.085938 35.941406 44.105469 35.894531 L 44.167969 35.75 L 44.285156 35.464844 L 44.347656 35.324219 L 44.410156 35.179688 C 44.746094 34.421875 45.117188 33.675781 45.527344 32.949219 C 45.734375 32.585938 45.945312 32.226562 46.171875 31.875 L 46.253906 31.742188 L 46.339844 31.609375 L 46.507812 31.351562 C 46.625 31.179688 46.738281 31.007812 46.855469 30.839844 C 47.089844 30.503906 47.324219 30.171875 47.554688 29.851562 C 47.78125 29.53125 48.007812 29.214844 48.210938 28.90625 C 48.417969 28.59375 48.609375 28.285156 48.78125 27.976562 C 48.953125 27.667969 49.101562 27.351562 49.234375 27.027344 C 49.304688 26.867188 49.363281 26.703125 49.421875 26.539062 L 49.503906 26.285156 C 49.519531 26.246094 49.53125 26.203125 49.542969 26.160156 L 49.578125 26.03125 L 49.617188 25.90625 C 49.628906 25.863281 49.640625 25.816406 49.648438 25.773438 L 49.714844 25.515625 L 49.773438 25.25 C 49.78125 25.203125 49.792969 25.160156 49.800781 25.117188 L 49.824219 24.980469 L 49.875 24.710938 L 49.925781 24.425781 C 49.953125 24.238281 49.984375 24.054688 50.007812 23.871094 C 50.058594 23.511719 50.089844 23.15625 50.105469 22.804688 C 50.109375 22.628906 50.113281 22.457031 50.109375 22.285156 C 50.101562 22.113281 50.09375 21.941406 50.078125 21.773438 C 50.074219 21.6875 50.058594 21.605469 50.050781 21.519531 L 50.035156 21.394531 L 50.023438 21.332031 L 50.015625 21.273438 C 49.988281 21.105469 49.949219 20.945312 49.914062 20.785156 L 49.878906 20.664062 C 49.875 20.644531 49.871094 20.625 49.863281 20.605469 L 49.847656 20.546875 L 49.75 20.253906 L 49.726562 20.199219 L 49.683594 20.082031 C 49.667969 20.046875 49.652344 20.007812 49.636719 19.972656 C 49.621094 19.933594 49.605469 19.894531 49.589844 19.859375 C 49.554688 19.785156 49.519531 19.710938 49.480469 19.640625 L 49.425781 19.53125 L 49.367188 19.425781 C 49.328125 19.351562 49.28125 19.285156 49.238281 19.214844 C 49.21875 19.179688 49.199219 19.144531 49.175781 19.113281 L 49.105469 19.011719 C 48.917969 18.738281 48.707031 18.488281 48.472656 18.253906 C 48.234375 18.011719 47.976562 17.792969 47.703125 17.59375 C 47.148438 17.191406 46.519531 16.855469 45.851562 16.59375 C 45.8125 16.578125 45.769531 16.5625 45.726562 16.546875 L 45.539062 16.476562 L 45.472656 16.453125 L 45.347656 16.410156 C 45.175781 16.355469 45.003906 16.296875 44.828125 16.253906 C 44.652344 16.207031 44.476562 16.160156 44.300781 16.121094 C 44.125 16.082031 43.949219 16.050781 43.777344 16.023438 C 43.433594 15.96875 43.089844 15.945312 42.746094 15.949219 C 42.390625 15.949219 42.042969 15.976562 41.691406 16.027344 C 40.972656 16.140625 40.277344 16.332031 39.601562 16.609375 C 38.917969 16.882812 38.25 17.230469 37.609375 17.632812 C 37.289062 17.832031 36.972656 18.046875 36.664062 18.269531 C 36.355469 18.496094 36.054688 18.730469 35.757812 18.976562 C 35.160156 19.46875 34.59375 19.996094 34.054688 20.550781 C 32.96875 21.664062 31.980469 22.886719 31.074219 24.179688 C 30.171875 25.472656 29.363281 26.832031 28.605469 28.238281 Z M 28.605469 28.238281 " fill-opacity="1" fill-rule="nonzero"/></g><g clip-path="url(#88a67fb124)"><path fill="#22b573" d="M 6.21875 58.65625 C 6.238281 58.269531 6.292969 57.890625 6.382812 57.515625 L 6.417969 57.371094 C 6.429688 57.324219 6.441406 57.277344 6.457031 57.230469 L 6.542969 56.949219 L 6.644531 56.675781 C 6.660156 56.628906 6.679688 56.582031 6.699219 56.539062 L 6.757812 56.402344 C 6.917969 56.039062 7.101562 55.691406 7.3125 55.355469 L 7.480469 55.105469 C 7.507812 55.0625 7.539062 55.023438 7.566406 54.984375 L 7.65625 54.863281 C 7.710938 54.78125 7.777344 54.707031 7.835938 54.628906 L 7.929688 54.507812 C 7.964844 54.472656 7.996094 54.433594 8.027344 54.394531 L 8.128906 54.28125 L 8.175781 54.226562 L 8.226562 54.171875 L 8.433594 53.953125 L 8.648438 53.742188 C 8.683594 53.703125 8.722656 53.671875 8.757812 53.636719 L 8.871094 53.535156 C 9.171875 53.265625 9.484375 53.015625 9.8125 52.78125 C 10.144531 52.546875 10.488281 52.332031 10.84375 52.136719 L 11.109375 51.992188 L 11.453125 51.820312 C 11.472656 51.8125 11.496094 51.800781 11.519531 51.789062 L 11.800781 51.664062 L 11.941406 51.605469 L 12.082031 51.542969 L 12.222656 51.488281 L 12.511719 51.378906 L 12.800781 51.28125 L 13.097656 51.1875 C 13.144531 51.175781 13.195312 51.160156 13.242188 51.144531 L 13.394531 51.105469 C 13.492188 51.078125 13.59375 51.050781 13.691406 51.027344 C 13.792969 51.007812 13.894531 50.980469 13.996094 50.960938 L 14.292969 50.898438 C 14.695312 50.824219 15.097656 50.769531 15.503906 50.726562 C 15.910156 50.683594 16.316406 50.660156 16.722656 50.652344 C 16.824219 50.648438 16.921875 50.644531 17.027344 50.644531 C 17.128906 50.644531 17.226562 50.644531 17.328125 50.644531 L 17.632812 50.652344 L 17.933594 50.660156 C 18.335938 50.679688 18.738281 50.710938 19.140625 50.75 C 19.539062 50.789062 19.9375 50.84375 20.332031 50.902344 C 20.527344 50.933594 20.722656 50.964844 20.921875 51 C 21.117188 51.03125 21.3125 51.070312 21.507812 51.109375 C 21.894531 51.183594 22.285156 51.265625 22.667969 51.355469 C 23.050781 51.445312 23.433594 51.539062 23.8125 51.636719 C 24.191406 51.734375 24.566406 51.835938 24.941406 51.941406 L 25.5 52.097656 L 26.054688 52.257812 C 26.792969 52.472656 27.523438 52.6875 28.25 52.890625 L 28.796875 53.042969 L 29.335938 53.191406 C 29.519531 53.238281 29.699219 53.285156 29.878906 53.332031 L 30.6875 53.53125 L 30.820312 53.5625 L 30.957031 53.59375 L 31.492188 53.710938 L 32.03125 53.816406 C 32.074219 53.824219 32.121094 53.835938 32.164062 53.84375 L 32.300781 53.863281 L 32.566406 53.910156 C 33.269531 54.03125 33.980469 54.117188 34.691406 54.164062 C 34.738281 54.167969 34.78125 54.167969 34.824219 54.171875 L 34.957031 54.175781 L 35.21875 54.1875 L 35.351562 54.195312 C 35.394531 54.195312 35.4375 54.195312 35.480469 54.195312 L 36.007812 54.195312 L 36.265625 54.183594 L 36.527344 54.171875 C 36.570312 54.171875 36.613281 54.167969 36.65625 54.164062 L 36.785156 54.15625 C 37.480469 54.105469 38.171875 54.007812 38.855469 53.859375 C 39.539062 53.714844 40.214844 53.523438 40.878906 53.289062 C 40.960938 53.261719 41.042969 53.230469 41.125 53.199219 L 41.371094 53.109375 L 41.496094 53.0625 L 41.617188 53.011719 L 41.863281 52.910156 L 41.984375 52.859375 C 42.027344 52.84375 42.066406 52.824219 42.105469 52.804688 L 42.347656 52.699219 L 42.46875 52.644531 L 42.53125 52.617188 L 42.589844 52.585938 L 42.832031 52.46875 C 44.105469 51.847656 45.324219 51.082031 46.46875 50.203125 C 47.617188 49.316406 48.683594 48.339844 49.664062 47.273438 C 50.15625 46.742188 50.628906 46.1875 51.082031 45.613281 C 51.527344 45.039062 51.960938 44.441406 52.375 43.832031 C 52.785156 43.222656 53.183594 42.59375 53.5625 41.957031 C 53.9375 41.316406 54.304688 40.667969 54.652344 40.007812 C 55.347656 38.6875 55.992188 37.328125 56.597656 35.945312 C 57.207031 34.558594 57.78125 33.152344 58.34375 31.738281 L 59.183594 29.609375 C 59.464844 28.898438 59.746094 28.1875 60.039062 27.480469 C 59.90625 28.234375 59.761719 28.984375 59.609375 29.734375 C 59.457031 30.484375 59.292969 31.230469 59.121094 31.976562 C 58.777344 33.46875 58.394531 34.957031 57.949219 36.433594 C 57.5 37.910156 56.992188 39.375 56.394531 40.8125 C 56.097656 41.535156 55.777344 42.246094 55.433594 42.953125 C 55.089844 43.65625 54.722656 44.351562 54.328125 45.035156 C 53.933594 45.714844 53.515625 46.386719 53.0625 47.046875 C 52.609375 47.707031 52.125 48.339844 51.613281 48.957031 C 50.582031 50.195312 49.445312 51.328125 48.203125 52.359375 L 47.726562 52.738281 L 47.242188 53.105469 C 47.203125 53.136719 47.164062 53.164062 47.121094 53.191406 L 46.996094 53.28125 L 46.75 53.460938 C 46.707031 53.488281 46.667969 53.519531 46.625 53.546875 L 46.5 53.632812 L 46.246094 53.800781 C 45.5625 54.253906 44.855469 54.664062 44.125 55.035156 L 43.78125 55.207031 L 43.714844 55.238281 L 43.574219 55.304688 L 43.292969 55.433594 C 43.246094 55.457031 43.199219 55.480469 43.152344 55.5 L 43.011719 55.558594 L 42.726562 55.679688 L 42.582031 55.742188 L 42.441406 55.796875 L 42.152344 55.90625 C 42.054688 55.945312 41.957031 55.984375 41.859375 56.015625 L 41.566406 56.117188 L 41.421875 56.167969 C 41.371094 56.183594 41.324219 56.203125 41.273438 56.21875 C 41.074219 56.277344 40.875 56.339844 40.675781 56.398438 L 40.074219 56.558594 C 39.871094 56.609375 39.667969 56.65625 39.464844 56.699219 C 38.648438 56.875 37.820312 56.988281 36.984375 57.042969 L 36.828125 57.054688 C 36.777344 57.054688 36.722656 57.0625 36.671875 57.0625 L 36.355469 57.070312 L 36.042969 57.078125 L 35.417969 57.070312 C 35.363281 57.070312 35.3125 57.070312 35.257812 57.066406 L 35.105469 57.058594 C 34.898438 57.046875 34.6875 57.035156 34.484375 57.023438 L 33.867188 56.960938 C 33.765625 56.953125 33.664062 56.9375 33.5625 56.925781 L 33.257812 56.882812 C 33.054688 56.859375 32.851562 56.824219 32.652344 56.789062 L 32.351562 56.738281 C 32.25 56.722656 32.152344 56.703125 32.054688 56.683594 L 31.753906 56.625 L 31.605469 56.59375 C 31.558594 56.582031 31.507812 56.570312 31.460938 56.5625 L 30.871094 56.425781 L 30.289062 56.28125 L 30.144531 56.242188 L 30.003906 56.203125 L 29.714844 56.125 C 28.953125 55.914062 28.199219 55.679688 27.460938 55.4375 C 26.722656 55.195312 25.996094 54.941406 25.273438 54.695312 L 24.734375 54.507812 L 24.199219 54.324219 C 23.839844 54.203125 23.484375 54.082031 23.128906 53.964844 C 22.414062 53.734375 21.703125 53.515625 20.988281 53.324219 C 19.5625 52.941406 18.125 52.648438 16.683594 52.550781 C 16.59375 52.542969 16.503906 52.539062 16.414062 52.535156 C 16.324219 52.53125 16.234375 52.523438 16.144531 52.523438 L 15.875 52.515625 L 15.605469 52.515625 C 15.246094 52.515625 14.886719 52.53125 14.527344 52.558594 L 14.257812 52.582031 C 14.167969 52.59375 14.082031 52.605469 13.992188 52.613281 C 13.902344 52.625 13.816406 52.636719 13.730469 52.652344 L 13.597656 52.671875 C 13.550781 52.679688 13.507812 52.6875 13.464844 52.695312 L 13.335938 52.71875 L 13.269531 52.730469 L 13.203125 52.746094 L 12.941406 52.804688 L 12.679688 52.871094 L 12.617188 52.886719 L 12.550781 52.902344 L 12.421875 52.941406 C 11.042969 53.335938 9.71875 54.007812 8.609375 54.964844 C 8.328125 55.203125 8.066406 55.457031 7.820312 55.730469 C 7.574219 56.007812 7.351562 56.300781 7.144531 56.609375 L 7.070312 56.726562 C 7.042969 56.765625 7.019531 56.804688 6.996094 56.84375 L 6.855469 57.085938 L 6.722656 57.335938 C 6.703125 57.375 6.683594 57.417969 6.664062 57.460938 L 6.601562 57.589844 C 6.449219 57.933594 6.320312 58.292969 6.21875 58.65625 Z M 6.21875 58.65625 " fill-opacity="1" fill-rule="nonzero"/></g><path fill="#22b573" d="M 46.359375 23.945312 L 42.648438 23.945312 L 42.648438 20.257812 L 37.296875 20.257812 L 37.296875 23.945312 L 33.582031 23.945312 L 33.582031 29.261719 L 37.296875 29.261719 L 37.296875 32.949219 L 42.648438 32.949219 L 42.648438 29.261719 L 46.359375 29.261719 Z M 46.359375 23.945312 " fill-opacity="1" fill-rule="nonzero"/><g clip-path="url(#8a4c67622b)"><path fill="#0071bc" d="M 27.046875 58.722656 C 27.167969 58.742188 27.28125 58.765625 27.398438 58.789062 L 27.75 58.851562 C 27.984375 58.894531 28.21875 58.933594 28.453125 58.972656 C 28.917969 59.046875 29.386719 59.113281 29.851562 59.171875 C 30.785156 59.289062 31.714844 59.367188 32.640625 59.40625 C 33.570312 59.445312 34.492188 59.445312 35.410156 59.402344 C 35.640625 59.390625 35.867188 59.378906 36.097656 59.363281 L 36.4375 59.335938 L 36.609375 59.324219 C 36.667969 59.320312 36.722656 59.3125 36.78125 59.304688 L 37.121094 59.273438 C 37.179688 59.265625 37.234375 59.261719 37.292969 59.253906 L 37.460938 59.234375 C 37.6875 59.203125 37.914062 59.179688 38.140625 59.144531 C 39.933594 58.886719 41.683594 58.449219 43.386719 57.828125 C 45.078125 57.210938 46.679688 56.417969 48.195312 55.449219 C 48.949219 54.964844 49.671875 54.441406 50.371094 53.878906 L 50.5 53.773438 C 50.542969 53.738281 50.585938 53.703125 50.628906 53.667969 L 50.886719 53.453125 C 50.929688 53.414062 50.972656 53.378906 51.015625 53.34375 L 51.140625 53.230469 L 51.269531 53.117188 C 51.308594 53.082031 51.355469 53.046875 51.394531 53.007812 L 51.769531 52.667969 L 51.890625 52.550781 L 52.132812 52.320312 L 52.375 52.082031 C 53.65625 50.816406 54.8125 49.414062 55.867188 47.925781 L 56.0625 47.644531 L 56.253906 47.359375 L 56.351562 47.21875 L 56.445312 47.074219 C 56.507812 46.980469 56.574219 46.882812 56.632812 46.789062 C 56.882812 46.402344 57.125 46.011719 57.363281 45.617188 C 57.832031 44.828125 58.28125 44.019531 58.703125 43.191406 C 59.125 42.367188 59.523438 41.523438 59.894531 40.667969 C 60.082031 40.238281 60.265625 39.804688 60.4375 39.367188 C 60.613281 38.929688 60.78125 38.488281 60.9375 38.042969 C 60.933594 38.160156 60.925781 38.277344 60.917969 38.398438 C 60.910156 38.519531 60.898438 38.636719 60.886719 38.753906 C 60.863281 38.992188 60.832031 39.226562 60.800781 39.460938 C 60.734375 39.933594 60.652344 40.40625 60.554688 40.871094 C 60.363281 41.8125 60.121094 42.734375 59.828125 43.648438 C 59.535156 44.566406 59.195312 45.46875 58.8125 46.355469 C 58.621094 46.796875 58.414062 47.234375 58.199219 47.667969 C 58.144531 47.777344 58.089844 47.882812 58.035156 47.992188 L 57.953125 48.15625 L 57.867188 48.316406 C 57.808594 48.421875 57.753906 48.53125 57.695312 48.636719 L 57.515625 48.953125 C 56.558594 50.644531 55.410156 52.25 54.070312 53.695312 L 53.820312 53.96875 L 53.5625 54.234375 L 53.300781 54.496094 L 53.035156 54.753906 C 52.945312 54.839844 52.855469 54.925781 52.765625 55.007812 L 52.628906 55.132812 C 52.582031 55.175781 52.539062 55.21875 52.492188 55.257812 L 52.210938 55.503906 C 52.164062 55.546875 52.121094 55.585938 52.074219 55.625 L 51.929688 55.746094 C 50.40625 57.035156 48.734375 58.105469 46.921875 58.949219 L 46.753906 59.027344 L 46.582031 59.105469 L 46.242188 59.253906 C 46.015625 59.355469 45.78125 59.441406 45.550781 59.535156 L 45.378906 59.601562 L 45.203125 59.664062 L 44.851562 59.792969 C 44.734375 59.835938 44.617188 59.875 44.5 59.914062 L 44.144531 60.027344 L 43.96875 60.085938 C 43.910156 60.101562 43.847656 60.117188 43.789062 60.136719 L 43.433594 60.238281 C 43.195312 60.308594 42.953125 60.367188 42.710938 60.425781 L 42.53125 60.472656 C 42.472656 60.488281 42.414062 60.503906 42.351562 60.515625 L 41.988281 60.59375 L 41.808594 60.632812 C 41.746094 60.644531 41.6875 60.65625 41.625 60.667969 L 41.261719 60.734375 C 40.289062 60.90625 39.308594 61.015625 38.320312 61.0625 C 37.339844 61.109375 36.359375 61.089844 35.378906 61.011719 C 34.40625 60.933594 33.445312 60.792969 32.488281 60.597656 C 31.542969 60.402344 30.609375 60.148438 29.695312 59.835938 C 28.785156 59.523438 27.898438 59.160156 27.046875 58.722656 Z M 27.046875 58.722656 " fill-opacity="1" fill-rule="nonzero"/></g><g fill="#0071bc" fill-opacity="1"><g transform="translate(63.563446, 41.073082)"><g><path d="M 1.265625 -10.484375 L 9.171875 -10.484375 L 9.171875 -8.4375 L 3.546875 -8.4375 L 3.546875 -6.3125 L 8.5 -6.3125 L 8.5 -4.25 L 3.546875 -4.25 L 3.546875 -2.046875 L 9.25 -2.046875 L 9.25 0 L 1.265625 0 Z M 1.265625 -10.484375 "/></g></g></g><g fill="#0071bc" fill-opacity="1"><g transform="translate(73.600291, 41.073082)"><g><path d="M 3.6875 0.15625 C 2.8125 0.15625 2.132812 -0.109375 1.65625 -0.640625 C 1.1875 -1.171875 0.953125 -1.898438 0.953125 -2.828125 L 0.953125 -8.03125 L 3.234375 -8.03125 L 3.234375 -3.546875 C 3.234375 -3.003906 3.351562 -2.597656 3.59375 -2.328125 C 3.832031 -2.054688 4.171875 -1.921875 4.609375 -1.921875 C 5.054688 -1.921875 5.40625 -2.054688 5.65625 -2.328125 C 5.90625 -2.597656 6.03125 -3.003906 6.03125 -3.546875 L 6.03125 -8.03125 L 8.3125 -8.03125 L 8.3125 0 L 6.03125 0 L 6.03125 -1.140625 C 5.90625 -0.972656 5.765625 -0.8125 5.609375 -0.65625 C 5.453125 -0.5 5.28125 -0.359375 5.09375 -0.234375 C 4.90625 -0.117188 4.695312 -0.0234375 4.46875 0.046875 C 4.238281 0.117188 3.976562 0.15625 3.6875 0.15625 Z M 3.6875 0.15625 "/></g></g></g><g fill="#0071bc" fill-opacity="1"><g transform="translate(82.933059, 41.073082)"><g><path d="M 1.015625 -8.03125 L 3.296875 -8.03125 L 3.296875 -6.40625 C 3.523438 -6.957031 3.835938 -7.394531 4.234375 -7.71875 C 4.640625 -8.050781 5.179688 -8.207031 5.859375 -8.1875 L 5.859375 -5.796875 L 5.734375 -5.796875 C 4.972656 -5.796875 4.375 -5.566406 3.9375 -5.109375 C 3.507812 -4.648438 3.296875 -3.9375 3.296875 -2.96875 L 3.296875 0 L 1.015625 0 Z M 1.015625 -8.03125 "/></g></g></g><g fill="#0071bc" fill-opacity="1"><g transform="translate(88.970086, 41.073082)"><g><path d="M 4.953125 0.1875 C 4.335938 0.1875 3.765625 0.078125 3.234375 -0.140625 C 2.703125 -0.359375 2.242188 -0.65625 1.859375 -1.03125 C 1.472656 -1.40625 1.171875 -1.84375 0.953125 -2.34375 C 0.734375 -2.851562 0.625 -3.394531 0.625 -3.96875 L 0.625 -4 C 0.625 -4.582031 0.734375 -5.125 0.953125 -5.625 C 1.171875 -6.132812 1.472656 -6.578125 1.859375 -6.953125 C 2.253906 -7.328125 2.71875 -7.625 3.25 -7.84375 C 3.78125 -8.070312 4.359375 -8.1875 4.984375 -8.1875 C 5.609375 -8.1875 6.179688 -8.078125 6.703125 -7.859375 C 7.234375 -7.640625 7.691406 -7.34375 8.078125 -6.96875 C 8.460938 -6.59375 8.765625 -6.15625 8.984375 -5.65625 C 9.203125 -5.15625 9.3125 -4.613281 9.3125 -4.03125 L 9.3125 -4 C 9.3125 -3.414062 9.203125 -2.875 8.984375 -2.375 C 8.765625 -1.875 8.457031 -1.429688 8.0625 -1.046875 C 7.675781 -0.671875 7.21875 -0.367188 6.6875 -0.140625 C 6.164062 0.078125 5.585938 0.1875 4.953125 0.1875 Z M 4.984375 -1.78125 C 5.316406 -1.78125 5.609375 -1.835938 5.859375 -1.953125 C 6.117188 -2.066406 6.335938 -2.222656 6.515625 -2.421875 C 6.691406 -2.628906 6.828125 -2.863281 6.921875 -3.125 C 7.023438 -3.382812 7.078125 -3.664062 7.078125 -3.96875 L 7.078125 -4 C 7.078125 -4.300781 7.023438 -4.582031 6.921875 -4.84375 C 6.816406 -5.113281 6.671875 -5.347656 6.484375 -5.546875 C 6.296875 -5.753906 6.070312 -5.914062 5.8125 -6.03125 C 5.550781 -6.15625 5.265625 -6.21875 4.953125 -6.21875 C 4.628906 -6.21875 4.335938 -6.160156 4.078125 -6.046875 C 3.828125 -5.929688 3.609375 -5.773438 3.421875 -5.578125 C 3.242188 -5.378906 3.109375 -5.144531 3.015625 -4.875 C 2.921875 -4.613281 2.875 -4.332031 2.875 -4.03125 L 2.875 -4 C 2.875 -3.695312 2.921875 -3.410156 3.015625 -3.140625 C 3.117188 -2.878906 3.265625 -2.644531 3.453125 -2.4375 C 3.648438 -2.238281 3.875 -2.078125 4.125 -1.953125 C 4.382812 -1.835938 4.671875 -1.78125 4.984375 -1.78125 Z M 4.984375 -1.78125 "/></g></g></g><g fill="#0071bc" fill-opacity="1"><g transform="translate(98.917052, 41.073082)"><g><path d="M 1.015625 -8.03125 L 3.296875 -8.03125 L 3.296875 -6.875 C 3.578125 -7.257812 3.914062 -7.570312 4.3125 -7.8125 C 4.707031 -8.0625 5.203125 -8.1875 5.796875 -8.1875 C 6.265625 -8.1875 6.71875 -8.09375 7.15625 -7.90625 C 7.601562 -7.726562 7.992188 -7.460938 8.328125 -7.109375 C 8.671875 -6.753906 8.941406 -6.316406 9.140625 -5.796875 C 9.347656 -5.285156 9.453125 -4.695312 9.453125 -4.03125 L 9.453125 -4 C 9.453125 -3.332031 9.347656 -2.738281 9.140625 -2.21875 C 8.941406 -1.707031 8.675781 -1.273438 8.34375 -0.921875 C 8.007812 -0.566406 7.617188 -0.296875 7.171875 -0.109375 C 6.734375 0.0664062 6.273438 0.15625 5.796875 0.15625 C 5.191406 0.15625 4.691406 0.0351562 4.296875 -0.203125 C 3.898438 -0.441406 3.566406 -0.722656 3.296875 -1.046875 L 3.296875 2.390625 L 1.015625 2.390625 Z M 5.21875 -1.78125 C 5.488281 -1.78125 5.738281 -1.832031 5.96875 -1.9375 C 6.207031 -2.039062 6.414062 -2.191406 6.59375 -2.390625 C 6.769531 -2.585938 6.910156 -2.816406 7.015625 -3.078125 C 7.117188 -3.347656 7.171875 -3.65625 7.171875 -4 L 7.171875 -4.03125 C 7.171875 -4.363281 7.117188 -4.664062 7.015625 -4.9375 C 6.910156 -5.207031 6.769531 -5.441406 6.59375 -5.640625 C 6.414062 -5.835938 6.207031 -5.988281 5.96875 -6.09375 C 5.738281 -6.195312 5.488281 -6.25 5.21875 -6.25 C 4.945312 -6.25 4.691406 -6.195312 4.453125 -6.09375 C 4.222656 -5.988281 4.019531 -5.835938 3.84375 -5.640625 C 3.664062 -5.441406 3.523438 -5.207031 3.421875 -4.9375 C 3.316406 -4.664062 3.265625 -4.363281 3.265625 -4.03125 L 3.265625 -4 C 3.265625 -3.664062 3.316406 -3.363281 3.421875 -3.09375 C 3.523438 -2.820312 3.664062 -2.585938 3.84375 -2.390625 C 4.019531 -2.191406 4.222656 -2.039062 4.453125 -1.9375 C 4.691406 -1.832031 4.945312 -1.78125 5.21875 -1.78125 Z M 5.21875 -1.78125 "/></g></g></g><g fill="#0071bc" fill-opacity="1"><g transform="translate(109.028805, 41.073082)"><g><path d="M 4.828125 0.1875 C 4.222656 0.1875 3.660156 0.0859375 3.140625 -0.109375 C 2.628906 -0.316406 2.1875 -0.601562 1.8125 -0.96875 C 1.445312 -1.34375 1.15625 -1.78125 0.9375 -2.28125 C 0.726562 -2.789062 0.625 -3.351562 0.625 -3.96875 L 0.625 -4 C 0.625 -4.570312 0.722656 -5.113281 0.921875 -5.625 C 1.117188 -6.132812 1.390625 -6.578125 1.734375 -6.953125 C 2.085938 -7.328125 2.503906 -7.625 2.984375 -7.84375 C 3.472656 -8.070312 4.007812 -8.1875 4.59375 -8.1875 C 5.269531 -8.1875 5.851562 -8.066406 6.34375 -7.828125 C 6.832031 -7.585938 7.238281 -7.265625 7.5625 -6.859375 C 7.882812 -6.453125 8.125 -5.984375 8.28125 -5.453125 C 8.4375 -4.929688 8.515625 -4.390625 8.515625 -3.828125 C 8.515625 -3.734375 8.507812 -3.632812 8.5 -3.53125 C 8.5 -3.4375 8.492188 -3.332031 8.484375 -3.21875 L 2.890625 -3.21875 C 3.003906 -2.695312 3.234375 -2.300781 3.578125 -2.03125 C 3.921875 -1.769531 4.347656 -1.640625 4.859375 -1.640625 C 5.234375 -1.640625 5.570312 -1.703125 5.875 -1.828125 C 6.175781 -1.960938 6.484375 -2.175781 6.796875 -2.46875 L 8.109375 -1.3125 C 7.722656 -0.84375 7.257812 -0.472656 6.71875 -0.203125 C 6.1875 0.0546875 5.554688 0.1875 4.828125 0.1875 Z M 6.296875 -4.640625 C 6.222656 -5.148438 6.039062 -5.5625 5.75 -5.875 C 5.457031 -6.195312 5.070312 -6.359375 4.59375 -6.359375 C 4.113281 -6.359375 3.726562 -6.203125 3.4375 -5.890625 C 3.144531 -5.578125 2.953125 -5.160156 2.859375 -4.640625 Z M 6.296875 -4.640625 "/></g></g></g><g fill="#0071bc" fill-opacity="1"><g transform="translate(118.21177, 41.073082)"><g/></g></g><g fill="#0071bc" fill-opacity="1"><g transform="translate(122.705881, 41.073082)"><g><path d="M 1.265625 -10.484375 L 5.34375 -10.484375 C 6.164062 -10.484375 6.914062 -10.347656 7.59375 -10.078125 C 8.28125 -9.816406 8.867188 -9.453125 9.359375 -8.984375 C 9.859375 -8.515625 10.242188 -7.960938 10.515625 -7.328125 C 10.785156 -6.703125 10.921875 -6.019531 10.921875 -5.28125 L 10.921875 -5.25 C 10.921875 -4.507812 10.785156 -3.816406 10.515625 -3.171875 C 10.242188 -2.535156 9.859375 -1.984375 9.359375 -1.515625 C 8.867188 -1.046875 8.28125 -0.675781 7.59375 -0.40625 C 6.914062 -0.132812 6.164062 0 5.34375 0 L 1.265625 0 Z M 3.5625 -8.40625 L 3.5625 -2.078125 L 5.34375 -2.078125 C 5.8125 -2.078125 6.238281 -2.148438 6.625 -2.296875 C 7.019531 -2.453125 7.351562 -2.671875 7.625 -2.953125 C 7.90625 -3.234375 8.125 -3.5625 8.28125 -3.9375 C 8.4375 -4.320312 8.515625 -4.75 8.515625 -5.21875 L 8.515625 -5.25 C 8.515625 -5.707031 8.4375 -6.128906 8.28125 -6.515625 C 8.125 -6.910156 7.90625 -7.242188 7.625 -7.515625 C 7.351562 -7.796875 7.019531 -8.015625 6.625 -8.171875 C 6.238281 -8.328125 5.8125 -8.40625 5.34375 -8.40625 Z M 3.5625 -8.40625 "/></g></g></g><g fill="#0071bc" fill-opacity="1"><g transform="translate(134.42053, 41.073082)"><g><path d="M 4.828125 0.1875 C 4.222656 0.1875 3.660156 0.0859375 3.140625 -0.109375 C 2.628906 -0.316406 2.1875 -0.601562 1.8125 -0.96875 C 1.445312 -1.34375 1.15625 -1.78125 0.9375 -2.28125 C 0.726562 -2.789062 0.625 -3.351562 0.625 -3.96875 L 0.625 -4 C 0.625 -4.570312 0.722656 -5.113281 0.921875 -5.625 C 1.117188 -6.132812 1.390625 -6.578125 1.734375 -6.953125 C 2.085938 -7.328125 2.503906 -7.625 2.984375 -7.84375 C 3.472656 -8.070312 4.007812 -8.1875 4.59375 -8.1875 C 5.269531 -8.1875 5.851562 -8.066406 6.34375 -7.828125 C 6.832031 -7.585938 7.238281 -7.265625 7.5625 -6.859375 C 7.882812 -6.453125 8.125 -5.984375 8.28125 -5.453125 C 8.4375 -4.929688 8.515625 -4.390625 8.515625 -3.828125 C 8.515625 -3.734375 8.507812 -3.632812 8.5 -3.53125 C 8.5 -3.4375 8.492188 -3.332031 8.484375 -3.21875 L 2.890625 -3.21875 C 3.003906 -2.695312 3.234375 -2.300781 3.578125 -2.03125 C 3.921875 -1.769531 4.347656 -1.640625 4.859375 -1.640625 C 5.234375 -1.640625 5.570312 -1.703125 5.875 -1.828125 C 6.175781 -1.960938 6.484375 -2.175781 6.796875 -2.46875 L 8.109375 -1.3125 C 7.722656 -0.84375 7.257812 -0.472656 6.71875 -0.203125 C 6.1875 0.0546875 5.554688 0.1875 4.828125 0.1875 Z M 6.296875 -4.640625 C 6.222656 -5.148438 6.039062 -5.5625 5.75 -5.875 C 5.457031 -6.195312 5.070312 -6.359375 4.59375 -6.359375 C 4.113281 -6.359375 3.726562 -6.203125 3.4375 -5.890625 C 3.144531 -5.578125 2.953125 -5.160156 2.859375 -4.640625 Z M 6.296875 -4.640625 "/></g></g></g><g fill="#0071bc" fill-opacity="1"><g transform="translate(143.603495, 41.073082)"><g><path d="M 1.015625 -8.03125 L 3.296875 -8.03125 L 3.296875 -6.890625 C 3.421875 -7.054688 3.5625 -7.21875 3.71875 -7.375 C 3.875 -7.53125 4.046875 -7.664062 4.234375 -7.78125 C 4.429688 -7.90625 4.644531 -8.003906 4.875 -8.078125 C 5.101562 -8.148438 5.363281 -8.1875 5.65625 -8.1875 C 6.519531 -8.1875 7.1875 -7.921875 7.65625 -7.390625 C 8.132812 -6.859375 8.375 -6.128906 8.375 -5.203125 L 8.375 0 L 6.09375 0 L 6.09375 -4.484375 C 6.09375 -5.023438 5.972656 -5.429688 5.734375 -5.703125 C 5.492188 -5.972656 5.15625 -6.109375 4.71875 -6.109375 C 4.28125 -6.109375 3.929688 -5.972656 3.671875 -5.703125 C 3.421875 -5.429688 3.296875 -5.023438 3.296875 -4.484375 L 3.296875 0 L 1.015625 0 Z M 1.015625 -8.03125 "/></g></g></g><g fill="#0071bc" fill-opacity="1"><g transform="translate(152.936264, 41.073082)"><g><path d="M 3.734375 0.140625 C 3.378906 0.140625 3.0625 0.0976562 2.78125 0.015625 C 2.5 -0.0546875 2.253906 -0.1875 2.046875 -0.375 C 1.835938 -0.5625 1.675781 -0.804688 1.5625 -1.109375 C 1.445312 -1.421875 1.390625 -1.8125 1.390625 -2.28125 L 1.390625 -6.078125 L 0.4375 -6.078125 L 0.4375 -8.03125 L 1.390625 -8.03125 L 1.390625 -10.078125 L 3.671875 -10.078125 L 3.671875 -8.03125 L 5.5625 -8.03125 L 5.5625 -6.078125 L 3.671875 -6.078125 L 3.671875 -2.65625 C 3.671875 -2.132812 3.914062 -1.875 4.40625 -1.875 C 4.800781 -1.875 5.175781 -1.96875 5.53125 -2.15625 L 5.53125 -0.328125 C 5.289062 -0.191406 5.023438 -0.0820312 4.734375 0 C 4.441406 0.09375 4.109375 0.140625 3.734375 0.140625 Z M 3.734375 0.140625 "/></g></g></g><g fill="#0071bc" fill-opacity="1"><g transform="translate(159.153119, 41.073082)"><g><path d="M 3.296875 0.15625 C 2.921875 0.15625 2.5625 0.101562 2.21875 0 C 1.882812 -0.113281 1.59375 -0.273438 1.34375 -0.484375 C 1.09375 -0.691406 0.894531 -0.945312 0.75 -1.25 C 0.613281 -1.550781 0.546875 -1.90625 0.546875 -2.3125 L 0.546875 -2.34375 C 0.546875 -2.78125 0.625 -3.15625 0.78125 -3.46875 C 0.9375 -3.789062 1.15625 -4.054688 1.4375 -4.265625 C 1.726562 -4.472656 2.070312 -4.628906 2.46875 -4.734375 C 2.863281 -4.847656 3.300781 -4.90625 3.78125 -4.90625 C 4.1875 -4.90625 4.539062 -4.875 4.84375 -4.8125 C 5.144531 -4.75 5.441406 -4.664062 5.734375 -4.5625 L 5.734375 -4.703125 C 5.734375 -5.179688 5.585938 -5.546875 5.296875 -5.796875 C 5.015625 -6.046875 4.585938 -6.171875 4.015625 -6.171875 C 3.578125 -6.171875 3.191406 -6.132812 2.859375 -6.0625 C 2.523438 -5.988281 2.171875 -5.878906 1.796875 -5.734375 L 1.234375 -7.484375 C 1.671875 -7.671875 2.128906 -7.820312 2.609375 -7.9375 C 3.085938 -8.0625 3.664062 -8.125 4.34375 -8.125 C 4.976562 -8.125 5.515625 -8.046875 5.953125 -7.890625 C 6.398438 -7.734375 6.769531 -7.507812 7.0625 -7.21875 C 7.351562 -6.914062 7.566406 -6.546875 7.703125 -6.109375 C 7.847656 -5.679688 7.921875 -5.195312 7.921875 -4.65625 L 7.921875 0 L 5.71875 0 L 5.71875 -0.875 C 5.4375 -0.5625 5.101562 -0.3125 4.71875 -0.125 C 4.332031 0.0625 3.859375 0.15625 3.296875 0.15625 Z M 3.984375 -1.421875 C 4.523438 -1.421875 4.957031 -1.550781 5.28125 -1.8125 C 5.601562 -2.070312 5.765625 -2.410156 5.765625 -2.828125 L 5.765625 -3.234375 C 5.566406 -3.328125 5.34375 -3.398438 5.09375 -3.453125 C 4.851562 -3.503906 4.59375 -3.53125 4.3125 -3.53125 C 3.820312 -3.53125 3.4375 -3.4375 3.15625 -3.25 C 2.875 -3.0625 2.734375 -2.785156 2.734375 -2.421875 L 2.734375 -2.390625 C 2.734375 -2.085938 2.847656 -1.847656 3.078125 -1.671875 C 3.316406 -1.503906 3.617188 -1.421875 3.984375 -1.421875 Z M 3.984375 -1.421875 "/></g></g></g><g fill="#0071bc" fill-opacity="1"><g transform="translate(168.021494, 41.073082)"><g><path d="M 1.125 -10.9375 L 3.40625 -10.9375 L 3.40625 0 L 1.125 0 Z M 1.125 -10.9375 "/></g></g></g><g fill="#0071bc" fill-opacity="1"><g transform="translate(172.545561, 41.073082)"><g/></g></g><g fill="#01943e" fill-opacity="1"><g transform="translate(177.045848, 41.073082)"><g><path d="M 6.171875 0.1875 C 5.398438 0.1875 4.6875 0.046875 4.03125 -0.234375 C 3.375 -0.515625 2.804688 -0.894531 2.328125 -1.375 C 1.847656 -1.863281 1.472656 -2.4375 1.203125 -3.09375 C 0.929688 -3.757812 0.796875 -4.46875 0.796875 -5.21875 L 0.796875 -5.25 C 0.796875 -6 0.929688 -6.695312 1.203125 -7.34375 C 1.472656 -8 1.847656 -8.570312 2.328125 -9.0625 C 2.804688 -9.5625 3.378906 -9.953125 4.046875 -10.234375 C 4.710938 -10.523438 5.453125 -10.671875 6.265625 -10.671875 C 6.753906 -10.671875 7.203125 -10.628906 7.609375 -10.546875 C 8.015625 -10.460938 8.378906 -10.351562 8.703125 -10.21875 C 9.035156 -10.082031 9.34375 -9.910156 9.625 -9.703125 C 9.90625 -9.503906 10.164062 -9.285156 10.40625 -9.046875 L 8.9375 -7.359375 C 8.519531 -7.722656 8.097656 -8.007812 7.671875 -8.21875 C 7.253906 -8.4375 6.78125 -8.546875 6.25 -8.546875 C 5.8125 -8.546875 5.40625 -8.457031 5.03125 -8.28125 C 4.65625 -8.113281 4.332031 -7.878906 4.0625 -7.578125 C 3.789062 -7.273438 3.578125 -6.925781 3.421875 -6.53125 C 3.273438 -6.144531 3.203125 -5.726562 3.203125 -5.28125 L 3.203125 -5.25 C 3.203125 -4.789062 3.273438 -4.363281 3.421875 -3.96875 C 3.578125 -3.570312 3.785156 -3.222656 4.046875 -2.921875 C 4.316406 -2.617188 4.640625 -2.378906 5.015625 -2.203125 C 5.390625 -2.035156 5.800781 -1.953125 6.25 -1.953125 C 6.84375 -1.953125 7.347656 -2.0625 7.765625 -2.28125 C 8.179688 -2.5 8.59375 -2.796875 9 -3.171875 L 10.46875 -1.6875 C 10.195312 -1.40625 9.914062 -1.144531 9.625 -0.90625 C 9.34375 -0.675781 9.03125 -0.476562 8.6875 -0.3125 C 8.34375 -0.15625 7.960938 -0.0351562 7.546875 0.046875 C 7.140625 0.140625 6.679688 0.1875 6.171875 0.1875 Z M 6.171875 0.1875 "/></g></g></g><g fill="#01943e" fill-opacity="1"><g transform="translate(188.101361, 41.073082)"><g><path d="M 1.125 -10.9375 L 3.40625 -10.9375 L 3.40625 0 L 1.125 0 Z M 1.125 -10.9375 "/></g></g></g><g fill="#01943e" fill-opacity="1"><g transform="translate(192.625428, 41.073082)"><g><path d="M 1.0625 -10.9375 L 3.46875 -10.9375 L 3.46875 -8.921875 L 1.0625 -8.921875 Z M 1.125 -8.03125 L 3.40625 -8.03125 L 3.40625 0 L 1.125 0 Z M 1.125 -8.03125 "/></g></g></g><g fill="#01943e" fill-opacity="1"><g transform="translate(197.149495, 41.073082)"><g><path d="M 1.015625 -8.03125 L 3.296875 -8.03125 L 3.296875 -6.890625 C 3.421875 -7.054688 3.5625 -7.21875 3.71875 -7.375 C 3.875 -7.53125 4.046875 -7.664062 4.234375 -7.78125 C 4.429688 -7.90625 4.644531 -8.003906 4.875 -8.078125 C 5.101562 -8.148438 5.363281 -8.1875 5.65625 -8.1875 C 6.519531 -8.1875 7.1875 -7.921875 7.65625 -7.390625 C 8.132812 -6.859375 8.375 -6.128906 8.375 -5.203125 L 8.375 0 L 6.09375 0 L 6.09375 -4.484375 C 6.09375 -5.023438 5.972656 -5.429688 5.734375 -5.703125 C 5.492188 -5.972656 5.15625 -6.109375 4.71875 -6.109375 C 4.28125 -6.109375 3.929688 -5.972656 3.671875 -5.703125 C 3.421875 -5.429688 3.296875 -5.023438 3.296875 -4.484375 L 3.296875 0 L 1.015625 0 Z M 1.015625 -8.03125 "/></g></g></g><g fill="#01943e" fill-opacity="1"><g transform="translate(206.482263, 41.073082)"><g><path d="M 1.0625 -10.9375 L 3.46875 -10.9375 L 3.46875 -8.921875 L 1.0625 -8.921875 Z M 1.125 -8.03125 L 3.40625 -8.03125 L 3.40625 0 L 1.125 0 Z M 1.125 -8.03125 "/></g></g></g><g fill="#01943e" fill-opacity="1"><g transform="translate(211.00633, 41.073082)"><g><path d="M 4.8125 0.1875 C 4.207031 0.1875 3.648438 0.078125 3.140625 -0.140625 C 2.628906 -0.367188 2.1875 -0.671875 1.8125 -1.046875 C 1.445312 -1.421875 1.15625 -1.859375 0.9375 -2.359375 C 0.726562 -2.859375 0.625 -3.394531 0.625 -3.96875 L 0.625 -4 C 0.625 -4.570312 0.726562 -5.113281 0.9375 -5.625 C 1.15625 -6.132812 1.445312 -6.578125 1.8125 -6.953125 C 2.1875 -7.328125 2.628906 -7.625 3.140625 -7.84375 C 3.648438 -8.070312 4.21875 -8.1875 4.84375 -8.1875 C 5.601562 -8.1875 6.234375 -8.066406 6.734375 -7.828125 C 7.234375 -7.585938 7.671875 -7.253906 8.046875 -6.828125 L 6.65625 -5.328125 C 6.394531 -5.597656 6.125 -5.8125 5.84375 -5.96875 C 5.570312 -6.132812 5.234375 -6.21875 4.828125 -6.21875 C 4.535156 -6.21875 4.269531 -6.160156 4.03125 -6.046875 C 3.800781 -5.929688 3.597656 -5.773438 3.421875 -5.578125 C 3.242188 -5.378906 3.109375 -5.144531 3.015625 -4.875 C 2.921875 -4.613281 2.875 -4.332031 2.875 -4.03125 L 2.875 -4 C 2.875 -3.6875 2.921875 -3.394531 3.015625 -3.125 C 3.109375 -2.863281 3.242188 -2.628906 3.421875 -2.421875 C 3.609375 -2.222656 3.828125 -2.066406 4.078125 -1.953125 C 4.328125 -1.835938 4.609375 -1.78125 4.921875 -1.78125 C 5.296875 -1.78125 5.625 -1.859375 5.90625 -2.015625 C 6.195312 -2.171875 6.484375 -2.378906 6.765625 -2.640625 L 8.09375 -1.28125 C 7.695312 -0.851562 7.25 -0.5 6.75 -0.21875 C 6.257812 0.0507812 5.613281 0.1875 4.8125 0.1875 Z M 4.8125 0.1875 "/></g></g></g></svg>