<svg xmlns="http://www.w3.org/2000/svg" xmlns:xlink="http://www.w3.org/1999/xlink" width="300" zoomAndPan="magnify" viewBox="0 0 224.87999 74.999997" height="100" preserveAspectRatio="xMidYMid meet" version="1.0"><defs><g/><clipPath id="e0c22d66e1"><path d="M 0 17 L 224.761719 17 L 224.761719 54 L 0 54 Z M 0 17 " clip-rule="nonzero"/></clipPath><clipPath id="f6ad1e2656"><rect x="0" width="225" y="0" height="37"/></clipPath><clipPath id="288cc10a03"><rect x="0" width="40" y="0" height="49"/></clipPath></defs><g clip-path="url(#e0c22d66e1)"><g transform="matrix(1, 0, 0, 1, 0, 17)"><g clip-path="url(#f6ad1e2656)"><g fill="#000000" fill-opacity="1"><g transform="translate(0.00000000000004261, 28.104337)"><g><path d="M 10.171875 0.296875 C 8.492188 0.296875 6.957031 0.0234375 5.5625 -0.515625 C 4.175781 -1.066406 2.851562 -1.914062 1.59375 -3.0625 L 3.0625 -4.796875 C 4.15625 -3.796875 5.257812 -3.050781 6.375 -2.5625 C 7.5 -2.070312 8.796875 -1.828125 10.265625 -1.828125 C 11.679688 -1.828125 12.8125 -2.160156 13.65625 -2.828125 C 14.507812 -3.503906 14.9375 -4.363281 14.9375 -5.40625 L 14.9375 -5.453125 C 14.9375 -5.941406 14.851562 -6.378906 14.6875 -6.765625 C 14.53125 -7.148438 14.253906 -7.503906 13.859375 -7.828125 C 13.460938 -8.148438 12.90625 -8.441406 12.1875 -8.703125 C 11.476562 -8.960938 10.578125 -9.210938 9.484375 -9.453125 C 8.285156 -9.710938 7.238281 -10.007812 6.34375 -10.34375 C 5.457031 -10.6875 4.722656 -11.097656 4.140625 -11.578125 C 3.554688 -12.054688 3.125 -12.613281 2.84375 -13.25 C 2.570312 -13.894531 2.4375 -14.648438 2.4375 -15.515625 L 2.4375 -15.5625 C 2.4375 -16.382812 2.601562 -17.144531 2.9375 -17.84375 C 3.28125 -18.550781 3.757812 -19.160156 4.375 -19.671875 C 5 -20.179688 5.726562 -20.578125 6.5625 -20.859375 C 7.40625 -21.148438 8.328125 -21.296875 9.328125 -21.296875 C 10.867188 -21.296875 12.210938 -21.082031 13.359375 -20.65625 C 14.515625 -20.226562 15.628906 -19.582031 16.703125 -18.71875 L 15.328125 -16.890625 C 14.347656 -17.691406 13.363281 -18.269531 12.375 -18.625 C 11.382812 -18.988281 10.347656 -19.171875 9.265625 -19.171875 C 7.890625 -19.171875 6.800781 -18.84375 6 -18.1875 C 5.195312 -17.539062 4.796875 -16.738281 4.796875 -15.78125 L 4.796875 -15.71875 C 4.796875 -15.21875 4.875 -14.769531 5.03125 -14.375 C 5.195312 -13.988281 5.488281 -13.628906 5.90625 -13.296875 C 6.332031 -12.972656 6.914062 -12.675781 7.65625 -12.40625 C 8.394531 -12.132812 9.34375 -11.878906 10.5 -11.640625 C 12.84375 -11.117188 14.566406 -10.394531 15.671875 -9.46875 C 16.785156 -8.550781 17.34375 -7.296875 17.34375 -5.703125 L 17.34375 -5.640625 C 17.34375 -4.742188 17.160156 -3.925781 16.796875 -3.1875 C 16.441406 -2.457031 15.945312 -1.832031 15.3125 -1.3125 C 14.6875 -0.800781 13.929688 -0.40625 13.046875 -0.125 C 12.171875 0.15625 11.210938 0.296875 10.171875 0.296875 Z M 10.171875 0.296875 "/></g></g></g><g fill="#000000" fill-opacity="1"><g transform="translate(19.196157, 28.104337)"><g><path d="M 2.640625 -21.453125 L 5.28125 -21.453125 L 5.28125 -18.90625 L 2.640625 -18.90625 Z M 2.796875 -15.515625 L 5.09375 -15.515625 L 5.09375 0 L 2.796875 0 Z M 2.796875 -15.515625 "/></g></g></g><g fill="#000000" fill-opacity="1"><g transform="translate(27.084573, 28.104337)"><g><path d="M 2.578125 -15.515625 L 4.890625 -15.515625 L 4.890625 -11.453125 C 5.171875 -12.097656 5.519531 -12.691406 5.9375 -13.234375 C 6.351562 -13.773438 6.832031 -14.238281 7.375 -14.625 C 7.914062 -15.007812 8.503906 -15.300781 9.140625 -15.5 C 9.785156 -15.707031 10.476562 -15.800781 11.21875 -15.78125 L 11.21875 -13.296875 L 11.046875 -13.296875 C 10.203125 -13.296875 9.40625 -13.144531 8.65625 -12.84375 C 7.90625 -12.539062 7.25 -12.085938 6.6875 -11.484375 C 6.125 -10.890625 5.679688 -10.144531 5.359375 -9.25 C 5.046875 -8.363281 4.890625 -7.34375 4.890625 -6.1875 L 4.890625 0 L 2.578125 0 Z M 2.578125 -15.515625 "/></g></g></g><g fill="#000000" fill-opacity="1"><g transform="translate(39.246295, 28.104337)"><g/></g></g><g fill="#000000" fill-opacity="1"><g transform="translate(48.244493, 28.104337)"><g/></g></g><g fill="#000000" fill-opacity="1"><g transform="translate(57.242691, 28.104337)"><g/></g></g><g fill="#000000" fill-opacity="1"><g transform="translate(66.240888, 28.104337)"><g/></g></g><g fill="#000000" fill-opacity="1"><g transform="translate(75.239086, 28.104337)"><g/></g></g><g fill="#000000" fill-opacity="1"><g transform="translate(84.237284, 28.104337)"><g/></g></g><g fill="#000000" fill-opacity="1"><g transform="translate(93.235481, 28.104337)"><g/></g></g><g fill="#000000" fill-opacity="1"><g transform="translate(102.238517, 28.104337)"><g><path d="M 12.71875 0.359375 C 11.113281 0.359375 9.65625 0.0703125 8.34375 -0.5 C 7.039062 -1.082031 5.914062 -1.867188 4.96875 -2.859375 C 4.03125 -3.847656 3.304688 -5 2.796875 -6.3125 C 2.296875 -7.625 2.046875 -9 2.046875 -10.4375 L 2.046875 -10.5 C 2.046875 -11.9375 2.300781 -13.316406 2.8125 -14.640625 C 3.332031 -15.960938 4.0625 -17.117188 5 -18.109375 C 5.945312 -19.097656 7.078125 -19.882812 8.390625 -20.46875 C 9.710938 -21.0625 11.175781 -21.359375 12.78125 -21.359375 C 14.382812 -21.359375 15.835938 -21.066406 17.140625 -20.484375 C 18.453125 -19.910156 19.578125 -19.128906 20.515625 -18.140625 C 21.460938 -17.148438 22.1875 -16 22.6875 -14.6875 C 23.195312 -13.375 23.453125 -12 23.453125 -10.5625 L 23.453125 -10.5 C 23.453125 -9.0625 23.191406 -7.679688 22.671875 -6.359375 C 22.160156 -5.035156 21.429688 -3.878906 20.484375 -2.890625 C 19.546875 -1.898438 18.414062 -1.109375 17.09375 -0.515625 C 15.78125 0.0664062 14.320312 0.359375 12.71875 0.359375 Z M 12.78125 -1.828125 C 13.976562 -1.828125 15.082031 -2.050781 16.09375 -2.5 C 17.101562 -2.957031 17.96875 -3.570312 18.6875 -4.34375 C 19.40625 -5.125 19.96875 -6.035156 20.375 -7.078125 C 20.789062 -8.117188 21 -9.238281 21 -10.4375 L 21 -10.5 C 21 -11.695312 20.789062 -12.820312 20.375 -13.875 C 19.96875 -14.925781 19.394531 -15.84375 18.65625 -16.625 C 17.914062 -17.40625 17.039062 -18.023438 16.03125 -18.484375 C 15.019531 -18.941406 13.914062 -19.171875 12.71875 -19.171875 C 11.519531 -19.171875 10.414062 -18.941406 9.40625 -18.484375 C 8.394531 -18.035156 7.53125 -17.421875 6.8125 -16.640625 C 6.09375 -15.867188 5.523438 -14.960938 5.109375 -13.921875 C 4.703125 -12.878906 4.5 -11.757812 4.5 -10.5625 L 4.5 -10.5 C 4.5 -9.300781 4.703125 -8.175781 5.109375 -7.125 C 5.523438 -6.070312 6.101562 -5.15625 6.84375 -4.375 C 7.582031 -3.59375 8.457031 -2.972656 9.46875 -2.515625 C 10.476562 -2.054688 11.582031 -1.828125 12.78125 -1.828125 Z M 12.78125 -1.828125 "/></g></g></g><g fill="#000000" fill-opacity="1"><g transform="translate(127.733415, 28.104337)"><g><path d="M 2.578125 -21.90625 L 4.890625 -21.90625 L 4.890625 -6.78125 L 13.265625 -15.515625 L 16.140625 -15.515625 L 9.625 -8.84375 L 16.34375 0 L 13.59375 0 L 8.046875 -7.234375 L 4.890625 -4.046875 L 4.890625 0 L 2.578125 0 Z M 2.578125 -21.90625 "/></g></g></g><g fill="#000000" fill-opacity="1"><g transform="translate(144.05011, 28.104337)"><g><path d="M 9.359375 0.359375 C 8.296875 0.359375 7.296875 0.164062 6.359375 -0.21875 C 5.421875 -0.613281 4.597656 -1.164062 3.890625 -1.875 C 3.191406 -2.582031 2.640625 -3.429688 2.234375 -4.421875 C 1.828125 -5.410156 1.625 -6.503906 1.625 -7.703125 L 1.625 -7.765625 C 1.625 -8.890625 1.804688 -9.941406 2.171875 -10.921875 C 2.546875 -11.898438 3.0625 -12.753906 3.71875 -13.484375 C 4.375 -14.210938 5.15625 -14.785156 6.0625 -15.203125 C 6.976562 -15.628906 7.976562 -15.84375 9.0625 -15.84375 C 10.195312 -15.84375 11.210938 -15.625 12.109375 -15.1875 C 13.015625 -14.757812 13.773438 -14.175781 14.390625 -13.4375 C 15.015625 -12.695312 15.488281 -11.832031 15.8125 -10.84375 C 16.132812 -9.851562 16.296875 -8.789062 16.296875 -7.65625 C 16.296875 -7.488281 16.296875 -7.351562 16.296875 -7.25 C 16.296875 -7.15625 16.285156 -7.039062 16.265625 -6.90625 L 3.953125 -6.90625 C 4.035156 -6.0625 4.238281 -5.3125 4.5625 -4.65625 C 4.882812 -4.007812 5.289062 -3.460938 5.78125 -3.015625 C 6.269531 -2.566406 6.820312 -2.226562 7.4375 -2 C 8.0625 -1.769531 8.722656 -1.65625 9.421875 -1.65625 C 10.503906 -1.65625 11.425781 -1.851562 12.1875 -2.25 C 12.957031 -2.644531 13.664062 -3.175781 14.3125 -3.84375 L 15.75 -2.546875 C 14.96875 -1.671875 14.078125 -0.96875 13.078125 -0.4375 C 12.078125 0.09375 10.835938 0.359375 9.359375 0.359375 Z M 13.953125 -8.609375 C 13.890625 -9.304688 13.742188 -9.972656 13.515625 -10.609375 C 13.285156 -11.253906 12.960938 -11.816406 12.546875 -12.296875 C 12.140625 -12.773438 11.640625 -13.160156 11.046875 -13.453125 C 10.460938 -13.742188 9.78125 -13.890625 9 -13.890625 C 8.320312 -13.890625 7.691406 -13.753906 7.109375 -13.484375 C 6.523438 -13.210938 6.015625 -12.84375 5.578125 -12.375 C 5.140625 -11.90625 4.78125 -11.347656 4.5 -10.703125 C 4.21875 -10.066406 4.035156 -9.367188 3.953125 -8.609375 Z M 13.953125 -8.609375 "/></g></g></g><g fill="#000000" fill-opacity="1"><g transform="translate(161.806559, 28.104337)"><g><path d="M 9.65625 0.359375 C 8.5 0.359375 7.429688 0.144531 6.453125 -0.28125 C 5.472656 -0.71875 4.617188 -1.300781 3.890625 -2.03125 C 3.171875 -2.757812 2.613281 -3.609375 2.21875 -4.578125 C 1.820312 -5.546875 1.625 -6.582031 1.625 -7.6875 L 1.625 -7.734375 C 1.625 -8.835938 1.820312 -9.878906 2.21875 -10.859375 C 2.613281 -11.835938 3.171875 -12.695312 3.890625 -13.4375 C 4.617188 -14.175781 5.476562 -14.757812 6.46875 -15.1875 C 7.457031 -15.625 8.539062 -15.84375 9.71875 -15.84375 C 10.875 -15.84375 11.945312 -15.625 12.9375 -15.1875 C 13.9375 -14.757812 14.796875 -14.179688 15.515625 -13.453125 C 16.234375 -12.722656 16.789062 -11.875 17.1875 -10.90625 C 17.59375 -9.9375 17.796875 -8.898438 17.796875 -7.796875 L 17.796875 -7.734375 C 17.796875 -6.640625 17.585938 -5.601562 17.171875 -4.625 C 16.765625 -3.644531 16.203125 -2.785156 15.484375 -2.046875 C 14.765625 -1.304688 13.90625 -0.71875 12.90625 -0.28125 C 11.90625 0.144531 10.820312 0.359375 9.65625 0.359375 Z M 9.71875 -1.703125 C 10.5625 -1.703125 11.332031 -1.863281 12.03125 -2.1875 C 12.726562 -2.507812 13.328125 -2.941406 13.828125 -3.484375 C 14.328125 -4.023438 14.71875 -4.65625 15 -5.375 C 15.28125 -6.09375 15.421875 -6.863281 15.421875 -7.6875 L 15.421875 -7.734375 C 15.421875 -8.578125 15.273438 -9.363281 14.984375 -10.09375 C 14.691406 -10.820312 14.285156 -11.460938 13.765625 -12.015625 C 13.242188 -12.566406 12.632812 -13 11.9375 -13.3125 C 11.238281 -13.632812 10.476562 -13.796875 9.65625 -13.796875 C 8.820312 -13.796875 8.050781 -13.632812 7.34375 -13.3125 C 6.644531 -13 6.050781 -12.570312 5.5625 -12.03125 C 5.070312 -11.488281 4.6875 -10.851562 4.40625 -10.125 C 4.125 -9.394531 3.984375 -8.617188 3.984375 -7.796875 L 3.984375 -7.734375 C 3.984375 -6.898438 4.128906 -6.117188 4.421875 -5.390625 C 4.710938 -4.660156 5.113281 -4.023438 5.625 -3.484375 C 6.132812 -2.941406 6.738281 -2.507812 7.4375 -2.1875 C 8.132812 -1.863281 8.894531 -1.703125 9.71875 -1.703125 Z M 9.71875 -1.703125 "/></g></g></g><g fill="#000000" fill-opacity="1"><g transform="translate(180.432783, 28.104337)"><g><path d="M 1.265625 -15.515625 L 3.71875 -15.515625 L 7.796875 -3.0625 L 11.96875 -15.5625 L 13.890625 -15.5625 L 18.09375 -3.0625 L 22.171875 -15.515625 L 24.5625 -15.515625 L 19.109375 0.125 L 17.09375 0.125 L 12.9375 -12.125 L 8.734375 0.125 L 6.6875 0.125 Z M 1.265625 -15.515625 "/></g></g></g><g fill="#000000" fill-opacity="1"><g transform="translate(205.507714, 28.104337)"><g><path d="M 9.65625 0.359375 C 8.5 0.359375 7.429688 0.144531 6.453125 -0.28125 C 5.472656 -0.71875 4.617188 -1.300781 3.890625 -2.03125 C 3.171875 -2.757812 2.613281 -3.609375 2.21875 -4.578125 C 1.820312 -5.546875 1.625 -6.582031 1.625 -7.6875 L 1.625 -7.734375 C 1.625 -8.835938 1.820312 -9.878906 2.21875 -10.859375 C 2.613281 -11.835938 3.171875 -12.695312 3.890625 -13.4375 C 4.617188 -14.175781 5.476562 -14.757812 6.46875 -15.1875 C 7.457031 -15.625 8.539062 -15.84375 9.71875 -15.84375 C 10.875 -15.84375 11.945312 -15.625 12.9375 -15.1875 C 13.9375 -14.757812 14.796875 -14.179688 15.515625 -13.453125 C 16.234375 -12.722656 16.789062 -11.875 17.1875 -10.90625 C 17.59375 -9.9375 17.796875 -8.898438 17.796875 -7.796875 L 17.796875 -7.734375 C 17.796875 -6.640625 17.585938 -5.601562 17.171875 -4.625 C 16.765625 -3.644531 16.203125 -2.785156 15.484375 -2.046875 C 14.765625 -1.304688 13.90625 -0.71875 12.90625 -0.28125 C 11.90625 0.144531 10.820312 0.359375 9.65625 0.359375 Z M 9.71875 -1.703125 C 10.5625 -1.703125 11.332031 -1.863281 12.03125 -2.1875 C 12.726562 -2.507812 13.328125 -2.941406 13.828125 -3.484375 C 14.328125 -4.023438 14.71875 -4.65625 15 -5.375 C 15.28125 -6.09375 15.421875 -6.863281 15.421875 -7.6875 L 15.421875 -7.734375 C 15.421875 -8.578125 15.273438 -9.363281 14.984375 -10.09375 C 14.691406 -10.820312 14.285156 -11.460938 13.765625 -12.015625 C 13.242188 -12.566406 12.632812 -13 11.9375 -13.3125 C 11.238281 -13.632812 10.476562 -13.796875 9.65625 -13.796875 C 8.820312 -13.796875 8.050781 -13.632812 7.34375 -13.3125 C 6.644531 -13 6.050781 -12.570312 5.5625 -12.03125 C 5.070312 -11.488281 4.6875 -10.851562 4.40625 -10.125 C 4.125 -9.394531 3.984375 -8.617188 3.984375 -7.796875 L 3.984375 -7.734375 C 3.984375 -6.898438 4.128906 -6.117188 4.421875 -5.390625 C 4.710938 -4.660156 5.113281 -4.023438 5.625 -3.484375 C 6.132812 -2.941406 6.738281 -2.507812 7.4375 -2.1875 C 8.132812 -1.863281 8.894531 -1.703125 9.71875 -1.703125 Z M 9.71875 -1.703125 "/></g></g></g></g></g></g><g transform="matrix(1, 0, 0, 1, 53, 15)"><g clip-path="url(#288cc10a03)"><g fill="#000000" fill-opacity="1"><g transform="translate(0.779059, 32.354308)"><g><path d="M 9.359375 2.25 C 9.078125 2.25 8.796875 2.25 8.515625 2.25 C 8.234375 2.25 7.953125 2.238281 7.671875 2.21875 C 5.660156 2.113281 4.03125 1.445312 2.78125 0.21875 C 1.539062 -1 0.921875 -2.660156 0.921875 -4.765625 C 0.921875 -6.597656 1.441406 -8.675781 2.484375 -11 C 3.804688 -13.925781 6.300781 -16.695312 9.96875 -19.3125 C 12.070312 -20.8125 14.320312 -22.015625 16.71875 -22.921875 C 19.113281 -23.828125 21.53125 -24.28125 23.96875 -24.28125 C 25.394531 -24.28125 26.695312 -24.085938 27.875 -23.703125 C 29.0625 -23.316406 30.003906 -22.742188 30.703125 -21.984375 C 31.410156 -21.222656 31.765625 -20.253906 31.765625 -19.078125 C 31.765625 -18.671875 31.710938 -18.242188 31.609375 -17.796875 C 31.503906 -17.359375 31.335938 -16.921875 31.109375 -16.484375 L 30.6875 -15.6875 C 30.894531 -15 31 -14.300781 31 -13.59375 C 31 -10.40625 29.367188 -7.363281 26.109375 -4.46875 C 21.117188 0.0078125 15.535156 2.25 9.359375 2.25 Z M 9.125 1.484375 C 14.132812 1.484375 18.90625 -0.535156 23.4375 -4.578125 C 26.695312 -7.484375 28.453125 -10.242188 28.703125 -12.859375 C 27.378906 -11.410156 25.085938 -9.679688 21.828125 -7.671875 L 21.53125 -7.59375 C 21.320312 -7.59375 21.648438 -7.953125 22.515625 -8.671875 L 24.65625 -10.421875 C 25.570312 -11.179688 26.359375 -11.890625 27.015625 -12.546875 C 27.679688 -13.210938 28.234375 -13.816406 28.671875 -14.359375 C 28.492188 -15.773438 27.804688 -16.992188 26.609375 -18.015625 C 25.585938 -18.910156 24.363281 -19.570312 22.9375 -20 C 22.226562 -20.175781 21.054688 -20.289062 19.421875 -20.34375 C 18.078125 -20.394531 17.40625 -20.457031 17.40625 -20.53125 C 17.40625 -20.5625 17.429688 -20.601562 17.484375 -20.65625 C 18.679688 -21.03125 19.828125 -21.21875 20.921875 -21.21875 C 21.429688 -21.21875 21.988281 -21.179688 22.59375 -21.109375 C 23.207031 -21.035156 23.867188 -20.910156 24.578125 -20.734375 C 27.253906 -20.085938 29.125 -18.785156 30.1875 -16.828125 C 30.445312 -17.441406 30.578125 -18.066406 30.578125 -18.703125 C 30.578125 -19.742188 30.273438 -20.617188 29.671875 -21.328125 C 29.078125 -22.046875 28.273438 -22.582031 27.265625 -22.9375 C 26.265625 -23.289062 25.15625 -23.46875 23.9375 -23.46875 C 20.09375 -23.46875 16.398438 -22.234375 12.859375 -19.765625 C 9.578125 -17.484375 6.984375 -14.535156 5.078125 -10.921875 C 3.679688 -8.296875 2.984375 -5.941406 2.984375 -3.859375 C 2.984375 -0.492188 4.671875 1.273438 8.046875 1.453125 C 8.234375 1.472656 8.414062 1.484375 8.59375 1.484375 C 8.769531 1.484375 8.945312 1.484375 9.125 1.484375 Z M 9.125 1.484375 "/></g></g></g><g fill="#000000" fill-opacity="1"><g transform="translate(30.708872, 32.354308)"><g><path d="M 4.96875 0.03125 C 4.53125 0.03125 4.148438 -0.0976562 3.828125 -0.359375 C 3.515625 -0.628906 3.359375 -0.941406 3.359375 -1.296875 C 3.359375 -2.035156 3.84375 -2.40625 4.8125 -2.40625 C 5.164062 -2.40625 5.519531 -2.28125 5.875 -2.03125 C 6.226562 -1.789062 6.40625 -1.484375 6.40625 -1.109375 C 6.40625 -0.804688 6.238281 -0.539062 5.90625 -0.3125 C 5.582031 -0.0820312 5.269531 0.03125 4.96875 0.03125 Z M 4.96875 0.03125 "/></g></g></g></g></g></svg>