<svg xmlns="http://www.w3.org/2000/svg" xmlns:xlink="http://www.w3.org/1999/xlink" width="300" zoomAndPan="magnify" viewBox="0 0 224.87999 74.999997" height="100" preserveAspectRatio="xMidYMid meet" version="1.0"><defs><g/><clipPath id="effd07e5d7"><path d="M 0 23 L 224.761719 23 L 224.761719 53 L 0 53 Z M 0 23 " clip-rule="nonzero"/></clipPath><clipPath id="7e3ec112b8"><rect x="0" width="225" y="0" height="30"/></clipPath></defs><g clip-path="url(#effd07e5d7)"><g transform="matrix(1, 0, 0, 1, 0, 23)"><g clip-path="url(#7e3ec112b8)"><g fill="#000000" fill-opacity="1"><g transform="translate(0.0119923, 22.888553)"><g><path d="M 9.765625 0.28125 C 8.546875 0.28125 7.414062 0.0625 6.375 -0.375 C 5.332031 -0.820312 4.429688 -1.425781 3.671875 -2.1875 C 2.910156 -2.957031 2.316406 -3.863281 1.890625 -4.90625 C 1.460938 -5.945312 1.25 -7.0625 1.25 -8.25 L 1.25 -8.296875 C 1.25 -9.484375 1.460938 -10.59375 1.890625 -11.625 C 2.316406 -12.65625 2.910156 -13.5625 3.671875 -14.34375 C 4.429688 -15.132812 5.335938 -15.753906 6.390625 -16.203125 C 7.453125 -16.648438 8.625 -16.875 9.90625 -16.875 C 10.675781 -16.875 11.378906 -16.8125 12.015625 -16.6875 C 12.660156 -16.5625 13.242188 -16.382812 13.765625 -16.15625 C 14.285156 -15.9375 14.765625 -15.671875 15.203125 -15.359375 C 15.648438 -15.046875 16.066406 -14.695312 16.453125 -14.3125 L 14.125 -11.640625 C 13.476562 -12.222656 12.816406 -12.679688 12.140625 -13.015625 C 11.472656 -13.347656 10.722656 -13.515625 9.890625 -13.515625 C 9.191406 -13.515625 8.546875 -13.378906 7.953125 -13.109375 C 7.359375 -12.835938 6.847656 -12.460938 6.421875 -11.984375 C 5.992188 -11.515625 5.660156 -10.96875 5.421875 -10.34375 C 5.191406 -9.71875 5.078125 -9.050781 5.078125 -8.34375 L 5.078125 -8.296875 C 5.078125 -7.585938 5.191406 -6.914062 5.421875 -6.28125 C 5.660156 -5.644531 5.988281 -5.085938 6.40625 -4.609375 C 6.832031 -4.140625 7.335938 -3.765625 7.921875 -3.484375 C 8.515625 -3.210938 9.171875 -3.078125 9.890625 -3.078125 C 10.835938 -3.078125 11.640625 -3.25 12.296875 -3.59375 C 12.953125 -3.945312 13.601562 -4.425781 14.25 -5.03125 L 16.5625 -2.671875 C 16.132812 -2.210938 15.691406 -1.800781 15.234375 -1.4375 C 14.773438 -1.082031 14.273438 -0.773438 13.734375 -0.515625 C 13.191406 -0.253906 12.59375 -0.0546875 11.9375 0.078125 C 11.289062 0.210938 10.566406 0.28125 9.765625 0.28125 Z M 9.765625 0.28125 "/></g></g></g><g fill="#000000" fill-opacity="1"><g transform="translate(17.500226, 22.888553)"><g><path d="M 1.609375 -17.296875 L 5.21875 -17.296875 L 5.21875 -10.90625 C 5.414062 -11.175781 5.632812 -11.429688 5.875 -11.671875 C 6.125 -11.921875 6.398438 -12.140625 6.703125 -12.328125 C 7.003906 -12.515625 7.335938 -12.660156 7.703125 -12.765625 C 8.066406 -12.878906 8.476562 -12.9375 8.9375 -12.9375 C 10.3125 -12.9375 11.375 -12.515625 12.125 -11.671875 C 12.875 -10.835938 13.25 -9.6875 13.25 -8.21875 L 13.25 0 L 9.640625 0 L 9.640625 -7.09375 C 9.640625 -7.945312 9.453125 -8.585938 9.078125 -9.015625 C 8.703125 -9.453125 8.164062 -9.671875 7.46875 -9.671875 C 6.769531 -9.671875 6.21875 -9.453125 5.8125 -9.015625 C 5.414062 -8.585938 5.21875 -7.945312 5.21875 -7.09375 L 5.21875 0 L 1.609375 0 Z M 1.609375 -17.296875 "/></g></g></g><g fill="#000000" fill-opacity="1"><g transform="translate(32.263333, 22.888553)"><g><path d="M 1.6875 -17.296875 L 5.46875 -17.296875 L 5.46875 -14.109375 L 1.6875 -14.109375 Z M 1.78125 -12.703125 L 5.375 -12.703125 L 5.375 0 L 1.78125 0 Z M 1.78125 -12.703125 "/></g></g></g><g fill="#000000" fill-opacity="1"><g transform="translate(39.419761, 22.888553)"><g><path d="M 7.625 0.28125 C 6.675781 0.28125 5.796875 0.125 4.984375 -0.1875 C 4.171875 -0.5 3.46875 -0.945312 2.875 -1.53125 C 2.28125 -2.125 1.816406 -2.816406 1.484375 -3.609375 C 1.160156 -4.410156 1 -5.300781 1 -6.28125 L 1 -6.328125 C 1 -7.234375 1.148438 -8.085938 1.453125 -8.890625 C 1.765625 -9.691406 2.195312 -10.394531 2.75 -11 C 3.300781 -11.601562 3.957031 -12.078125 4.71875 -12.421875 C 5.488281 -12.765625 6.34375 -12.9375 7.28125 -12.9375 C 8.332031 -12.9375 9.242188 -12.742188 10.015625 -12.359375 C 10.796875 -11.984375 11.441406 -11.476562 11.953125 -10.84375 C 12.472656 -10.207031 12.851562 -9.472656 13.09375 -8.640625 C 13.34375 -7.804688 13.46875 -6.941406 13.46875 -6.046875 C 13.46875 -5.898438 13.460938 -5.75 13.453125 -5.59375 C 13.441406 -5.4375 13.429688 -5.269531 13.421875 -5.09375 L 4.578125 -5.09375 C 4.742188 -4.269531 5.097656 -3.648438 5.640625 -3.234375 C 6.191406 -2.816406 6.875 -2.609375 7.6875 -2.609375 C 8.28125 -2.609375 8.8125 -2.707031 9.28125 -2.90625 C 9.757812 -3.113281 10.253906 -3.445312 10.765625 -3.90625 L 12.828125 -2.078125 C 12.222656 -1.335938 11.492188 -0.757812 10.640625 -0.34375 C 9.785156 0.0703125 8.78125 0.28125 7.625 0.28125 Z M 9.953125 -7.34375 C 9.847656 -8.15625 9.566406 -8.804688 9.109375 -9.296875 C 8.648438 -9.796875 8.039062 -10.046875 7.28125 -10.046875 C 6.519531 -10.046875 5.90625 -9.800781 5.4375 -9.3125 C 4.96875 -8.820312 4.664062 -8.164062 4.53125 -7.34375 Z M 9.953125 -7.34375 "/></g></g></g><g fill="#000000" fill-opacity="1"><g transform="translate(53.945903, 22.888553)"><g><path d="M 2.234375 -9.625 L 0.734375 -9.625 L 0.734375 -12.59375 L 2.234375 -12.59375 L 2.234375 -13.390625 C 2.234375 -14.765625 2.570312 -15.789062 3.25 -16.46875 C 3.914062 -17.132812 4.882812 -17.46875 6.15625 -17.46875 C 6.726562 -17.46875 7.210938 -17.4375 7.609375 -17.375 C 8.015625 -17.3125 8.382812 -17.222656 8.71875 -17.109375 L 8.71875 -14.125 C 8.445312 -14.21875 8.1875 -14.289062 7.9375 -14.34375 C 7.6875 -14.40625 7.40625 -14.4375 7.09375 -14.4375 C 6.21875 -14.4375 5.78125 -13.976562 5.78125 -13.0625 L 5.78125 -12.5625 L 8.703125 -12.5625 L 8.703125 -9.625 L 5.828125 -9.625 L 5.828125 0 L 2.234375 0 Z M 2.234375 -9.625 "/></g></g></g><g fill="#000000" fill-opacity="1"><g transform="translate(70.107122, 22.888553)"><g><path d="M 10.046875 0.28125 C 8.765625 0.28125 7.585938 0.0546875 6.515625 -0.390625 C 5.441406 -0.835938 4.515625 -1.441406 3.734375 -2.203125 C 2.953125 -2.972656 2.34375 -3.875 1.90625 -4.90625 C 1.46875 -5.945312 1.25 -7.0625 1.25 -8.25 L 1.25 -8.296875 C 1.25 -9.484375 1.46875 -10.59375 1.90625 -11.625 C 2.351562 -12.65625 2.96875 -13.5625 3.75 -14.34375 C 4.539062 -15.132812 5.472656 -15.753906 6.546875 -16.203125 C 7.628906 -16.648438 8.8125 -16.875 10.09375 -16.875 C 11.375 -16.875 12.550781 -16.648438 13.625 -16.203125 C 14.695312 -15.753906 15.625 -15.144531 16.40625 -14.375 C 17.195312 -13.601562 17.804688 -12.703125 18.234375 -11.671875 C 18.671875 -10.640625 18.890625 -9.53125 18.890625 -8.34375 L 18.890625 -8.296875 C 18.890625 -7.109375 18.664062 -5.992188 18.21875 -4.953125 C 17.78125 -3.921875 17.171875 -3.015625 16.390625 -2.234375 C 15.609375 -1.453125 14.675781 -0.835938 13.59375 -0.390625 C 12.507812 0.0546875 11.328125 0.28125 10.046875 0.28125 Z M 10.09375 -3.078125 C 10.820312 -3.078125 11.492188 -3.210938 12.109375 -3.484375 C 12.722656 -3.753906 13.25 -4.125 13.6875 -4.59375 C 14.125 -5.070312 14.460938 -5.625 14.703125 -6.25 C 14.953125 -6.875 15.078125 -7.539062 15.078125 -8.25 L 15.078125 -8.296875 C 15.078125 -9.003906 14.953125 -9.675781 14.703125 -10.3125 C 14.460938 -10.945312 14.113281 -11.5 13.65625 -11.96875 C 13.207031 -12.445312 12.675781 -12.820312 12.0625 -13.09375 C 11.445312 -13.375 10.773438 -13.515625 10.046875 -13.515625 C 9.304688 -13.515625 8.628906 -13.378906 8.015625 -13.109375 C 7.410156 -12.835938 6.890625 -12.460938 6.453125 -11.984375 C 6.023438 -11.515625 5.6875 -10.96875 5.4375 -10.34375 C 5.195312 -9.71875 5.078125 -9.050781 5.078125 -8.34375 L 5.078125 -8.296875 C 5.078125 -7.585938 5.195312 -6.914062 5.4375 -6.28125 C 5.6875 -5.644531 6.035156 -5.085938 6.484375 -4.609375 C 6.929688 -4.140625 7.457031 -3.765625 8.0625 -3.484375 C 8.675781 -3.210938 9.351562 -3.078125 10.09375 -3.078125 Z M 10.09375 -3.078125 "/></g></g></g><g fill="#000000" fill-opacity="1"><g transform="translate(90.249406, 22.888553)"><g><path d="M 1.78125 -17.296875 L 5.375 -17.296875 L 5.375 0 L 1.78125 0 Z M 1.78125 -17.296875 "/></g></g></g><g fill="#000000" fill-opacity="1"><g transform="translate(97.405834, 22.888553)"><g><path d="M 5.828125 0.234375 C 4.453125 0.234375 3.390625 -0.179688 2.640625 -1.015625 C 1.890625 -1.859375 1.515625 -3.015625 1.515625 -4.484375 L 1.515625 -12.703125 L 5.125 -12.703125 L 5.125 -5.625 C 5.125 -4.769531 5.3125 -4.125 5.6875 -3.6875 C 6.0625 -3.25 6.597656 -3.03125 7.296875 -3.03125 C 7.992188 -3.03125 8.539062 -3.25 8.9375 -3.6875 C 9.34375 -4.125 9.546875 -4.769531 9.546875 -5.625 L 9.546875 -12.703125 L 13.15625 -12.703125 L 13.15625 0 L 9.546875 0 L 9.546875 -1.796875 C 9.347656 -1.535156 9.125 -1.28125 8.875 -1.03125 C 8.632812 -0.78125 8.363281 -0.5625 8.0625 -0.375 C 7.757812 -0.1875 7.425781 -0.0390625 7.0625 0.0625 C 6.695312 0.175781 6.285156 0.234375 5.828125 0.234375 Z M 5.828125 0.234375 "/></g></g></g><g fill="#000000" fill-opacity="1"><g transform="translate(112.168941, 22.888553)"><g><path d="M 1.46875 -3.796875 L 5.3125 -3.796875 L 5.3125 0 L 1.46875 0 Z M 1.46875 -3.796875 "/></g></g></g><g fill="#000000" fill-opacity="1"><g transform="translate(118.94623, 22.888553)"><g/></g></g><g fill="#000000" fill-opacity="1"><g transform="translate(126.055274, 22.888553)"><g><path d="M 10.046875 0.28125 C 8.765625 0.28125 7.585938 0.0546875 6.515625 -0.390625 C 5.441406 -0.835938 4.515625 -1.441406 3.734375 -2.203125 C 2.953125 -2.972656 2.34375 -3.875 1.90625 -4.90625 C 1.46875 -5.945312 1.25 -7.0625 1.25 -8.25 L 1.25 -8.296875 C 1.25 -9.484375 1.46875 -10.59375 1.90625 -11.625 C 2.351562 -12.65625 2.96875 -13.5625 3.75 -14.34375 C 4.539062 -15.132812 5.472656 -15.753906 6.546875 -16.203125 C 7.628906 -16.648438 8.8125 -16.875 10.09375 -16.875 C 11.375 -16.875 12.550781 -16.648438 13.625 -16.203125 C 14.695312 -15.753906 15.625 -15.144531 16.40625 -14.375 C 17.195312 -13.601562 17.804688 -12.703125 18.234375 -11.671875 C 18.671875 -10.640625 18.890625 -9.53125 18.890625 -8.34375 L 18.890625 -8.296875 C 18.890625 -7.109375 18.664062 -5.992188 18.21875 -4.953125 C 17.78125 -3.921875 17.171875 -3.015625 16.390625 -2.234375 C 15.609375 -1.453125 14.675781 -0.835938 13.59375 -0.390625 C 12.507812 0.0546875 11.328125 0.28125 10.046875 0.28125 Z M 10.09375 -3.078125 C 10.820312 -3.078125 11.492188 -3.210938 12.109375 -3.484375 C 12.722656 -3.753906 13.25 -4.125 13.6875 -4.59375 C 14.125 -5.070312 14.460938 -5.625 14.703125 -6.25 C 14.953125 -6.875 15.078125 -7.539062 15.078125 -8.25 L 15.078125 -8.296875 C 15.078125 -9.003906 14.953125 -9.675781 14.703125 -10.3125 C 14.460938 -10.945312 14.113281 -11.5 13.65625 -11.96875 C 13.207031 -12.445312 12.675781 -12.820312 12.0625 -13.09375 C 11.445312 -13.375 10.773438 -13.515625 10.046875 -13.515625 C 9.304688 -13.515625 8.628906 -13.378906 8.015625 -13.109375 C 7.410156 -12.835938 6.890625 -12.460938 6.453125 -11.984375 C 6.023438 -11.515625 5.6875 -10.96875 5.4375 -10.34375 C 5.195312 -9.71875 5.078125 -9.050781 5.078125 -8.34375 L 5.078125 -8.296875 C 5.078125 -7.585938 5.195312 -6.914062 5.4375 -6.28125 C 5.6875 -5.644531 6.035156 -5.085938 6.484375 -4.609375 C 6.929688 -4.140625 7.457031 -3.765625 8.0625 -3.484375 C 8.675781 -3.210938 9.351562 -3.078125 10.09375 -3.078125 Z M 10.09375 -3.078125 "/></g></g></g><g fill="#000000" fill-opacity="1"><g transform="translate(146.197558, 22.888553)"><g><path d="M 1.609375 -17.296875 L 5.21875 -17.296875 L 5.21875 -8.078125 L 9.4375 -12.703125 L 13.75 -12.703125 L 8.90625 -7.703125 L 13.90625 0 L 9.734375 0 L 6.5 -5.21875 L 5.21875 -3.859375 L 5.21875 0 L 1.609375 0 Z M 1.609375 -17.296875 "/></g></g></g><g fill="#000000" fill-opacity="1"><g transform="translate(159.633546, 22.888553)"><g><path d="M 7.625 0.28125 C 6.675781 0.28125 5.796875 0.125 4.984375 -0.1875 C 4.171875 -0.5 3.46875 -0.945312 2.875 -1.53125 C 2.28125 -2.125 1.816406 -2.816406 1.484375 -3.609375 C 1.160156 -4.410156 1 -5.300781 1 -6.28125 L 1 -6.328125 C 1 -7.234375 1.148438 -8.085938 1.453125 -8.890625 C 1.765625 -9.691406 2.195312 -10.394531 2.75 -11 C 3.300781 -11.601562 3.957031 -12.078125 4.71875 -12.421875 C 5.488281 -12.765625 6.34375 -12.9375 7.28125 -12.9375 C 8.332031 -12.9375 9.242188 -12.742188 10.015625 -12.359375 C 10.796875 -11.984375 11.441406 -11.476562 11.953125 -10.84375 C 12.472656 -10.207031 12.851562 -9.472656 13.09375 -8.640625 C 13.34375 -7.804688 13.46875 -6.941406 13.46875 -6.046875 C 13.46875 -5.898438 13.460938 -5.75 13.453125 -5.59375 C 13.441406 -5.4375 13.429688 -5.269531 13.421875 -5.09375 L 4.578125 -5.09375 C 4.742188 -4.269531 5.097656 -3.648438 5.640625 -3.234375 C 6.191406 -2.816406 6.875 -2.609375 7.6875 -2.609375 C 8.28125 -2.609375 8.8125 -2.707031 9.28125 -2.90625 C 9.757812 -3.113281 10.253906 -3.445312 10.765625 -3.90625 L 12.828125 -2.078125 C 12.222656 -1.335938 11.492188 -0.757812 10.640625 -0.34375 C 9.785156 0.0703125 8.78125 0.28125 7.625 0.28125 Z M 9.953125 -7.34375 C 9.847656 -8.15625 9.566406 -8.804688 9.109375 -9.296875 C 8.648438 -9.796875 8.039062 -10.046875 7.28125 -10.046875 C 6.519531 -10.046875 5.90625 -9.800781 5.4375 -9.3125 C 4.96875 -8.820312 4.664062 -8.164062 4.53125 -7.34375 Z M 9.953125 -7.34375 "/></g></g></g><g fill="#000000" fill-opacity="1"><g transform="translate(174.159688, 22.888553)"><g><path d="M 7.84375 0.28125 C 6.863281 0.28125 5.953125 0.113281 5.109375 -0.21875 C 4.273438 -0.5625 3.550781 -1.03125 2.9375 -1.625 C 2.332031 -2.21875 1.859375 -2.910156 1.515625 -3.703125 C 1.171875 -4.503906 1 -5.363281 1 -6.28125 L 1 -6.328125 C 1 -7.242188 1.171875 -8.097656 1.515625 -8.890625 C 1.859375 -9.691406 2.335938 -10.394531 2.953125 -11 C 3.578125 -11.601562 4.304688 -12.078125 5.140625 -12.421875 C 5.984375 -12.765625 6.898438 -12.9375 7.890625 -12.9375 C 8.867188 -12.9375 9.773438 -12.765625 10.609375 -12.421875 C 11.453125 -12.085938 12.175781 -11.625 12.78125 -11.03125 C 13.394531 -10.4375 13.875 -9.738281 14.21875 -8.9375 C 14.570312 -8.144531 14.75 -7.289062 14.75 -6.375 L 14.75 -6.328125 C 14.75 -5.410156 14.570312 -4.550781 14.21875 -3.75 C 13.875 -2.957031 13.390625 -2.257812 12.765625 -1.65625 C 12.148438 -1.0625 11.425781 -0.585938 10.59375 -0.234375 C 9.757812 0.109375 8.84375 0.28125 7.84375 0.28125 Z M 7.890625 -2.828125 C 8.410156 -2.828125 8.875 -2.914062 9.28125 -3.09375 C 9.6875 -3.269531 10.03125 -3.515625 10.3125 -3.828125 C 10.59375 -4.148438 10.804688 -4.519531 10.953125 -4.9375 C 11.109375 -5.351562 11.1875 -5.800781 11.1875 -6.28125 L 11.1875 -6.328125 C 11.1875 -6.804688 11.109375 -7.253906 10.953125 -7.671875 C 10.796875 -8.085938 10.566406 -8.457031 10.265625 -8.78125 C 9.960938 -9.101562 9.601562 -9.359375 9.1875 -9.546875 C 8.78125 -9.742188 8.332031 -9.84375 7.84375 -9.84375 C 7.320312 -9.84375 6.859375 -9.75 6.453125 -9.5625 C 6.054688 -9.382812 5.710938 -9.132812 5.421875 -8.8125 C 5.140625 -8.5 4.921875 -8.132812 4.765625 -7.71875 C 4.617188 -7.300781 4.546875 -6.851562 4.546875 -6.375 L 4.546875 -6.328125 C 4.546875 -5.859375 4.625 -5.410156 4.78125 -4.984375 C 4.945312 -4.566406 5.175781 -4.195312 5.46875 -3.875 C 5.769531 -3.550781 6.125 -3.296875 6.53125 -3.109375 C 6.9375 -2.921875 7.390625 -2.828125 7.890625 -2.828125 Z M 7.890625 -2.828125 "/></g></g></g><g fill="#000000" fill-opacity="1"><g transform="translate(189.301841, 22.888553)"><g><path d="M 0.5625 -12.703125 L 4.21875 -12.703125 L 6.25 -5 L 8.65625 -12.75 L 11.75 -12.75 L 14.171875 -4.984375 L 16.265625 -12.703125 L 19.84375 -12.703125 L 15.875 0.09375 L 12.640625 0.09375 L 10.1875 -7.703125 L 7.703125 0.09375 L 4.484375 0.09375 Z M 0.5625 -12.703125 "/></g></g></g><g fill="#000000" fill-opacity="1"><g transform="translate(209.112275, 22.888553)"><g><path d="M 7.84375 0.28125 C 6.863281 0.28125 5.953125 0.113281 5.109375 -0.21875 C 4.273438 -0.5625 3.550781 -1.03125 2.9375 -1.625 C 2.332031 -2.21875 1.859375 -2.910156 1.515625 -3.703125 C 1.171875 -4.503906 1 -5.363281 1 -6.28125 L 1 -6.328125 C 1 -7.242188 1.171875 -8.097656 1.515625 -8.890625 C 1.859375 -9.691406 2.335938 -10.394531 2.953125 -11 C 3.578125 -11.601562 4.304688 -12.078125 5.140625 -12.421875 C 5.984375 -12.765625 6.898438 -12.9375 7.890625 -12.9375 C 8.867188 -12.9375 9.773438 -12.765625 10.609375 -12.421875 C 11.453125 -12.085938 12.175781 -11.625 12.78125 -11.03125 C 13.394531 -10.4375 13.875 -9.738281 14.21875 -8.9375 C 14.570312 -8.144531 14.75 -7.289062 14.75 -6.375 L 14.75 -6.328125 C 14.75 -5.410156 14.570312 -4.550781 14.21875 -3.75 C 13.875 -2.957031 13.390625 -2.257812 12.765625 -1.65625 C 12.148438 -1.0625 11.425781 -0.585938 10.59375 -0.234375 C 9.757812 0.109375 8.84375 0.28125 7.84375 0.28125 Z M 7.890625 -2.828125 C 8.410156 -2.828125 8.875 -2.914062 9.28125 -3.09375 C 9.6875 -3.269531 10.03125 -3.515625 10.3125 -3.828125 C 10.59375 -4.148438 10.804688 -4.519531 10.953125 -4.9375 C 11.109375 -5.351562 11.1875 -5.800781 11.1875 -6.28125 L 11.1875 -6.328125 C 11.1875 -6.804688 11.109375 -7.253906 10.953125 -7.671875 C 10.796875 -8.085938 10.566406 -8.457031 10.265625 -8.78125 C 9.960938 -9.101562 9.601562 -9.359375 9.1875 -9.546875 C 8.78125 -9.742188 8.332031 -9.84375 7.84375 -9.84375 C 7.320312 -9.84375 6.859375 -9.75 6.453125 -9.5625 C 6.054688 -9.382812 5.710938 -9.132812 5.421875 -8.8125 C 5.140625 -8.5 4.921875 -8.132812 4.765625 -7.71875 C 4.617188 -7.300781 4.546875 -6.851562 4.546875 -6.375 L 4.546875 -6.328125 C 4.546875 -5.859375 4.625 -5.410156 4.78125 -4.984375 C 4.945312 -4.566406 5.175781 -4.195312 5.46875 -3.875 C 5.769531 -3.550781 6.125 -3.296875 6.53125 -3.109375 C 6.9375 -2.921875 7.390625 -2.828125 7.890625 -2.828125 Z M 7.890625 -2.828125 "/></g></g></g></g></g></g></svg>