<svg xmlns="http://www.w3.org/2000/svg" xmlns:xlink="http://www.w3.org/1999/xlink" width="300" zoomAndPan="magnify" viewBox="0 0 224.87999 74.999997" height="100" preserveAspectRatio="xMidYMid meet" version="1.0"><defs><filter x="0%" y="0%" width="100%" height="100%" id="80381fa0e6"><feColorMatrix values="0 0 0 0 1 0 0 0 0 1 0 0 0 0 1 0 0 0 1 0" color-interpolation-filters="sRGB"/></filter><g/><clipPath id="41345bae46"><path d="M 8 11.296875 L 46 11.296875 L 46 46.527344 L 8 46.527344 Z M 8 11.296875 " clip-rule="nonzero"/></clipPath><clipPath id="dead3460cf"><path d="M 0 0.0195312 L 185 0.0195312 L 185 74.980469 L 0 74.980469 Z M 0 0.0195312 " clip-rule="nonzero"/></clipPath><clipPath id="62c31702d2"><path d="M 0 0.0195312 L 184.773438 0.0195312 L 184.773438 74.980469 L 0 74.980469 Z M 0 0.0195312 " clip-rule="nonzero"/></clipPath><clipPath id="e8d90d6e97"><path d="M 0 0.0195312 L 184.773438 0.0195312 L 184.773438 74.980469 L 0 74.980469 Z M 0 0.0195312 " clip-rule="nonzero"/></clipPath><clipPath id="0ff17f5ce2"><path d="M 0 0.0195312 L 184.773438 0.0195312 L 184.773438 74.980469 L 0 74.980469 Z M 0 0.0195312 " clip-rule="nonzero"/></clipPath><linearGradient x1="-48.146927" gradientTransform="matrix(1.003792, 0, 0, 1.002098, 48.329519, 18.219517)" y1="17" x2="135.927008" gradientUnits="userSpaceOnUse" y2="17" id="704e109c4e"><stop stop-opacity="1" stop-color="rgb(0%, 0%, 0%)" offset="0"/><stop stop-opacity="1" stop-color="rgb(0%, 0%, 0%)" offset="0.25"/><stop stop-opacity="1" stop-color="rgb(0.193787%, 0.193787%, 0.193787%)" offset="0.265625"/><stop stop-opacity="1" stop-color="rgb(0.762939%, 0.762939%, 0.762939%)" offset="0.269531"/><stop stop-opacity="1" stop-color="rgb(1.138306%, 1.138306%, 1.138306%)" offset="0.273438"/><stop stop-opacity="1" stop-color="rgb(1.512146%, 1.512146%, 1.512146%)" offset="0.277344"/><stop stop-opacity="1" stop-color="rgb(1.887512%, 1.887512%, 1.887512%)" offset="0.28125"/><stop stop-opacity="1" stop-color="rgb(2.261353%, 2.261353%, 2.261353%)" offset="0.285156"/><stop stop-opacity="1" stop-color="rgb(2.636719%, 2.636719%, 2.636719%)" offset="0.289062"/><stop stop-opacity="1" stop-color="rgb(3.010559%, 3.010559%, 3.010559%)" offset="0.292969"/><stop stop-opacity="1" stop-color="rgb(3.385925%, 3.385925%, 3.385925%)" offset="0.296875"/><stop stop-opacity="1" stop-color="rgb(3.759766%, 3.759766%, 3.759766%)" offset="0.300781"/><stop stop-opacity="1" stop-color="rgb(4.135132%, 4.135132%, 4.135132%)" offset="0.304688"/><stop stop-opacity="1" stop-color="rgb(4.508972%, 4.508972%, 4.508972%)" offset="0.308594"/><stop stop-opacity="1" stop-color="rgb(4.884338%, 4.884338%, 4.884338%)" offset="0.3125"/><stop stop-opacity="1" stop-color="rgb(5.258179%, 5.258179%, 5.258179%)" offset="0.316406"/><stop stop-opacity="1" stop-color="rgb(5.633545%, 5.633545%, 5.633545%)" offset="0.320312"/><stop stop-opacity="1" stop-color="rgb(6.007385%, 6.007385%, 6.007385%)" offset="0.324219"/><stop stop-opacity="1" stop-color="rgb(6.382751%, 6.382751%, 6.382751%)" offset="0.328125"/><stop stop-opacity="1" stop-color="rgb(6.756592%, 6.756592%, 6.756592%)" offset="0.332031"/><stop stop-opacity="1" stop-color="rgb(7.131958%, 7.131958%, 7.131958%)" offset="0.335938"/><stop stop-opacity="1" stop-color="rgb(7.505798%, 7.505798%, 7.505798%)" offset="0.339844"/><stop stop-opacity="1" stop-color="rgb(7.881165%, 7.881165%, 7.881165%)" offset="0.34375"/><stop stop-opacity="1" stop-color="rgb(8.255005%, 8.255005%, 8.255005%)" offset="0.347656"/><stop stop-opacity="1" stop-color="rgb(8.630371%, 8.630371%, 8.630371%)" offset="0.351563"/><stop stop-opacity="1" stop-color="rgb(9.004211%, 9.004211%, 9.004211%)" offset="0.355469"/><stop stop-opacity="1" stop-color="rgb(9.379578%, 9.379578%, 9.379578%)" offset="0.359375"/><stop stop-opacity="1" stop-color="rgb(9.753418%, 9.753418%, 9.753418%)" offset="0.363281"/><stop stop-opacity="1" stop-color="rgb(10.128784%, 10.128784%, 10.128784%)" offset="0.367188"/><stop stop-opacity="1" stop-color="rgb(10.502625%, 10.502625%, 10.502625%)" offset="0.371094"/><stop stop-opacity="1" stop-color="rgb(10.877991%, 10.877991%, 10.877991%)" offset="0.375"/><stop stop-opacity="1" stop-color="rgb(11.251831%, 11.251831%, 11.251831%)" offset="0.378906"/><stop stop-opacity="1" stop-color="rgb(11.627197%, 11.627197%, 11.627197%)" offset="0.382812"/><stop stop-opacity="1" stop-color="rgb(12.001038%, 12.001038%, 12.001038%)" offset="0.386719"/><stop stop-opacity="1" stop-color="rgb(12.376404%, 12.376404%, 12.376404%)" offset="0.390625"/><stop stop-opacity="1" stop-color="rgb(12.750244%, 12.750244%, 12.750244%)" offset="0.394531"/><stop stop-opacity="1" stop-color="rgb(13.12561%, 13.12561%, 13.12561%)" offset="0.398438"/><stop stop-opacity="1" stop-color="rgb(13.499451%, 13.499451%, 13.499451%)" offset="0.402344"/><stop stop-opacity="1" stop-color="rgb(13.874817%, 13.874817%, 13.874817%)" offset="0.40625"/><stop stop-opacity="1" stop-color="rgb(14.248657%, 14.248657%, 14.248657%)" offset="0.410156"/><stop stop-opacity="1" stop-color="rgb(14.624023%, 14.624023%, 14.624023%)" offset="0.414063"/><stop stop-opacity="1" stop-color="rgb(14.997864%, 14.997864%, 14.997864%)" offset="0.417969"/><stop stop-opacity="1" stop-color="rgb(15.37323%, 15.37323%, 15.37323%)" offset="0.421875"/><stop stop-opacity="1" stop-color="rgb(15.74707%, 15.74707%, 15.74707%)" offset="0.425781"/><stop stop-opacity="1" stop-color="rgb(16.122437%, 16.122437%, 16.122437%)" offset="0.429688"/><stop stop-opacity="1" stop-color="rgb(16.496277%, 16.496277%, 16.496277%)" offset="0.433594"/><stop stop-opacity="1" stop-color="rgb(16.871643%, 16.871643%, 16.871643%)" offset="0.4375"/><stop stop-opacity="1" stop-color="rgb(17.245483%, 17.245483%, 17.245483%)" offset="0.441406"/><stop stop-opacity="1" stop-color="rgb(17.62085%, 17.62085%, 17.62085%)" offset="0.445313"/><stop stop-opacity="1" stop-color="rgb(17.99469%, 17.99469%, 17.99469%)" offset="0.449219"/><stop stop-opacity="1" stop-color="rgb(18.370056%, 18.370056%, 18.370056%)" offset="0.453125"/><stop stop-opacity="1" stop-color="rgb(18.745422%, 18.745422%, 18.745422%)" offset="0.457031"/><stop stop-opacity="1" stop-color="rgb(19.120789%, 19.120789%, 19.120789%)" offset="0.460938"/><stop stop-opacity="1" stop-color="rgb(19.494629%, 19.494629%, 19.494629%)" offset="0.464844"/><stop stop-opacity="1" stop-color="rgb(19.869995%, 19.869995%, 19.869995%)" offset="0.46875"/><stop stop-opacity="1" stop-color="rgb(20.243835%, 20.243835%, 20.243835%)" offset="0.472656"/><stop stop-opacity="1" stop-color="rgb(20.619202%, 20.619202%, 20.619202%)" offset="0.476563"/><stop stop-opacity="1" stop-color="rgb(20.993042%, 20.993042%, 20.993042%)" offset="0.480469"/><stop stop-opacity="1" stop-color="rgb(21.368408%, 21.368408%, 21.368408%)" offset="0.484375"/><stop stop-opacity="1" stop-color="rgb(21.742249%, 21.742249%, 21.742249%)" offset="0.488281"/><stop stop-opacity="1" stop-color="rgb(22.117615%, 22.117615%, 22.117615%)" offset="0.492188"/><stop stop-opacity="1" stop-color="rgb(22.491455%, 22.491455%, 22.491455%)" offset="0.496094"/><stop stop-opacity="1" stop-color="rgb(22.866821%, 22.866821%, 22.866821%)" offset="0.5"/><stop stop-opacity="1" stop-color="rgb(23.240662%, 23.240662%, 23.240662%)" offset="0.503906"/><stop stop-opacity="1" stop-color="rgb(23.616028%, 23.616028%, 23.616028%)" offset="0.507812"/><stop stop-opacity="1" stop-color="rgb(23.989868%, 23.989868%, 23.989868%)" offset="0.511719"/><stop stop-opacity="1" stop-color="rgb(24.365234%, 24.365234%, 24.365234%)" offset="0.515625"/><stop stop-opacity="1" stop-color="rgb(24.739075%, 24.739075%, 24.739075%)" offset="0.519531"/><stop stop-opacity="1" stop-color="rgb(25.114441%, 25.114441%, 25.114441%)" offset="0.523438"/><stop stop-opacity="1" stop-color="rgb(25.488281%, 25.488281%, 25.488281%)" offset="0.527344"/><stop stop-opacity="1" stop-color="rgb(25.863647%, 25.863647%, 25.863647%)" offset="0.53125"/><stop stop-opacity="1" stop-color="rgb(26.237488%, 26.237488%, 26.237488%)" offset="0.535156"/><stop stop-opacity="1" stop-color="rgb(26.612854%, 26.612854%, 26.612854%)" offset="0.539063"/><stop stop-opacity="1" stop-color="rgb(26.986694%, 26.986694%, 26.986694%)" offset="0.542969"/><stop stop-opacity="1" stop-color="rgb(27.362061%, 27.362061%, 27.362061%)" offset="0.546875"/><stop stop-opacity="1" stop-color="rgb(27.735901%, 27.735901%, 27.735901%)" offset="0.550781"/><stop stop-opacity="1" stop-color="rgb(28.111267%, 28.111267%, 28.111267%)" offset="0.554688"/><stop stop-opacity="1" stop-color="rgb(28.485107%, 28.485107%, 28.485107%)" offset="0.558594"/><stop stop-opacity="1" stop-color="rgb(28.860474%, 28.860474%, 28.860474%)" offset="0.5625"/><stop stop-opacity="1" stop-color="rgb(29.234314%, 29.234314%, 29.234314%)" offset="0.566406"/><stop stop-opacity="1" stop-color="rgb(29.60968%, 29.60968%, 29.60968%)" offset="0.570313"/><stop stop-opacity="1" stop-color="rgb(29.983521%, 29.983521%, 29.983521%)" offset="0.574219"/><stop stop-opacity="1" stop-color="rgb(30.358887%, 30.358887%, 30.358887%)" offset="0.578125"/><stop stop-opacity="1" stop-color="rgb(30.732727%, 30.732727%, 30.732727%)" offset="0.582031"/><stop stop-opacity="1" stop-color="rgb(31.108093%, 31.108093%, 31.108093%)" offset="0.585938"/><stop stop-opacity="1" stop-color="rgb(31.481934%, 31.481934%, 31.481934%)" offset="0.589844"/><stop stop-opacity="1" stop-color="rgb(31.8573%, 31.8573%, 31.8573%)" offset="0.59375"/><stop stop-opacity="1" stop-color="rgb(32.23114%, 32.23114%, 32.23114%)" offset="0.597656"/><stop stop-opacity="1" stop-color="rgb(32.606506%, 32.606506%, 32.606506%)" offset="0.601563"/><stop stop-opacity="1" stop-color="rgb(32.980347%, 32.980347%, 32.980347%)" offset="0.605469"/><stop stop-opacity="1" stop-color="rgb(33.355713%, 33.355713%, 33.355713%)" offset="0.609375"/><stop stop-opacity="1" stop-color="rgb(33.729553%, 33.729553%, 33.729553%)" offset="0.613281"/><stop stop-opacity="1" stop-color="rgb(34.104919%, 34.104919%, 34.104919%)" offset="0.617188"/><stop stop-opacity="1" stop-color="rgb(34.47876%, 34.47876%, 34.47876%)" offset="0.621094"/><stop stop-opacity="1" stop-color="rgb(34.854126%, 34.854126%, 34.854126%)" offset="0.625"/><stop stop-opacity="1" stop-color="rgb(35.227966%, 35.227966%, 35.227966%)" offset="0.628906"/><stop stop-opacity="1" stop-color="rgb(35.603333%, 35.603333%, 35.603333%)" offset="0.632813"/><stop stop-opacity="1" stop-color="rgb(35.977173%, 35.977173%, 35.977173%)" offset="0.636719"/><stop stop-opacity="1" stop-color="rgb(36.352539%, 36.352539%, 36.352539%)" offset="0.640625"/><stop stop-opacity="1" stop-color="rgb(36.726379%, 36.726379%, 36.726379%)" offset="0.644531"/><stop stop-opacity="1" stop-color="rgb(37.101746%, 37.101746%, 37.101746%)" offset="0.648438"/><stop stop-opacity="1" stop-color="rgb(37.475586%, 37.475586%, 37.475586%)" offset="0.652344"/><stop stop-opacity="1" stop-color="rgb(37.850952%, 37.850952%, 37.850952%)" offset="0.65625"/><stop stop-opacity="1" stop-color="rgb(38.224792%, 38.224792%, 38.224792%)" offset="0.660156"/><stop stop-opacity="1" stop-color="rgb(38.600159%, 38.600159%, 38.600159%)" offset="0.664063"/><stop stop-opacity="1" stop-color="rgb(38.973999%, 38.973999%, 38.973999%)" offset="0.667969"/><stop stop-opacity="1" stop-color="rgb(39.349365%, 39.349365%, 39.349365%)" offset="0.671875"/><stop stop-opacity="1" stop-color="rgb(39.723206%, 39.723206%, 39.723206%)" offset="0.675781"/><stop stop-opacity="1" stop-color="rgb(40.098572%, 40.098572%, 40.098572%)" offset="0.679688"/><stop stop-opacity="1" stop-color="rgb(40.472412%, 40.472412%, 40.472412%)" offset="0.683594"/><stop stop-opacity="1" stop-color="rgb(40.847778%, 40.847778%, 40.847778%)" offset="0.6875"/><stop stop-opacity="1" stop-color="rgb(41.221619%, 41.221619%, 41.221619%)" offset="0.691406"/><stop stop-opacity="1" stop-color="rgb(41.596985%, 41.596985%, 41.596985%)" offset="0.695313"/><stop stop-opacity="1" stop-color="rgb(41.970825%, 41.970825%, 41.970825%)" offset="0.699219"/><stop stop-opacity="1" stop-color="rgb(42.346191%, 42.346191%, 42.346191%)" offset="0.703125"/><stop stop-opacity="1" stop-color="rgb(42.720032%, 42.720032%, 42.720032%)" offset="0.707031"/><stop stop-opacity="1" stop-color="rgb(43.095398%, 43.095398%, 43.095398%)" offset="0.710938"/><stop stop-opacity="1" stop-color="rgb(43.469238%, 43.469238%, 43.469238%)" offset="0.714844"/><stop stop-opacity="1" stop-color="rgb(43.844604%, 43.844604%, 43.844604%)" offset="0.71875"/><stop stop-opacity="1" stop-color="rgb(44.218445%, 44.218445%, 44.218445%)" offset="0.722656"/><stop stop-opacity="1" stop-color="rgb(44.593811%, 44.593811%, 44.593811%)" offset="0.726563"/><stop stop-opacity="1" stop-color="rgb(44.845581%, 44.845581%, 44.845581%)" offset="0.730469"/><stop stop-opacity="1" stop-color="rgb(45.098877%, 45.098877%, 45.098877%)" offset="0.734375"/><stop stop-opacity="1" stop-color="rgb(45.098877%, 45.098877%, 45.098877%)" offset="0.75"/><stop stop-opacity="1" stop-color="rgb(45.098877%, 45.098877%, 45.098877%)" offset="1"/></linearGradient><clipPath id="35072dd040"><rect x="0" width="185" y="0" height="75"/></clipPath><clipPath id="73c40be559"><path d="M 0 0.0195312 L 184.773438 0.0195312 L 184.773438 74.980469 L 0 74.980469 Z M 0 0.0195312 " clip-rule="nonzero"/></clipPath><clipPath id="3f269dc888"><rect x="0" width="185" y="0" height="75"/></clipPath><clipPath id="b2c3810add"><rect x="0" width="185" y="0" height="75"/></clipPath><mask id="816b838ccb"><g filter="url(#80381fa0e6)"><g transform="matrix(1, 0, 0, 1, 0, -0.000000000000000847)"><g clip-path="url(#b2c3810add)"><g clip-path="url(#73c40be559)"><g transform="matrix(1, 0, 0, 1, 0, -0.000000000000000847)"><g clip-path="url(#3f269dc888)"><g fill="#000000" fill-opacity="1"><g transform="translate(47.774962, 43.754627)"><g><path d="M 2.125 -12.765625 L 4.03125 -12.765625 L 4.03125 -10.203125 C 4.289062 -10.578125 4.578125 -10.9375 4.890625 -11.28125 C 5.210938 -11.625 5.570312 -11.921875 5.96875 -12.171875 C 6.363281 -12.429688 6.804688 -12.640625 7.296875 -12.796875 C 7.785156 -12.953125 8.320312 -13.03125 8.90625 -13.03125 C 9.664062 -13.03125 10.410156 -12.878906 11.140625 -12.578125 C 11.878906 -12.285156 12.535156 -11.851562 13.109375 -11.28125 C 13.679688 -10.71875 14.140625 -10.03125 14.484375 -9.21875 C 14.835938 -8.40625 15.015625 -7.472656 15.015625 -6.421875 L 15.015625 -6.375 C 15.015625 -5.332031 14.835938 -4.398438 14.484375 -3.578125 C 14.140625 -2.753906 13.679688 -2.054688 13.109375 -1.484375 C 12.546875 -0.921875 11.898438 -0.488281 11.171875 -0.1875 C 10.441406 0.113281 9.6875 0.265625 8.90625 0.265625 C 8.320312 0.265625 7.78125 0.191406 7.28125 0.046875 C 6.789062 -0.0976562 6.347656 -0.289062 5.953125 -0.53125 C 5.554688 -0.78125 5.195312 -1.070312 4.875 -1.40625 C 4.550781 -1.738281 4.269531 -2.082031 4.03125 -2.4375 L 4.03125 3.953125 L 2.125 3.953125 Z M 8.5625 -1.4375 C 9.175781 -1.4375 9.757812 -1.546875 10.3125 -1.765625 C 10.863281 -1.984375 11.335938 -2.300781 11.734375 -2.71875 C 12.140625 -3.144531 12.460938 -3.660156 12.703125 -4.265625 C 12.941406 -4.878906 13.0625 -5.570312 13.0625 -6.34375 L 13.0625 -6.390625 C 13.0625 -7.148438 12.941406 -7.832031 12.703125 -8.4375 C 12.460938 -9.050781 12.132812 -9.570312 11.71875 -10 C 11.3125 -10.425781 10.835938 -10.753906 10.296875 -10.984375 C 9.753906 -11.210938 9.175781 -11.328125 8.5625 -11.328125 C 7.96875 -11.328125 7.394531 -11.207031 6.84375 -10.96875 C 6.300781 -10.726562 5.8125 -10.390625 5.375 -9.953125 C 4.9375 -9.523438 4.585938 -9.007812 4.328125 -8.40625 C 4.078125 -7.800781 3.953125 -7.140625 3.953125 -6.421875 L 3.953125 -6.375 C 3.953125 -5.632812 4.078125 -4.957031 4.328125 -4.34375 C 4.585938 -3.738281 4.9375 -3.21875 5.375 -2.78125 C 5.8125 -2.351562 6.300781 -2.019531 6.84375 -1.78125 C 7.394531 -1.550781 7.96875 -1.4375 8.5625 -1.4375 Z M 8.5625 -1.4375 "/></g></g></g><g fill="#000000" fill-opacity="1"><g transform="translate(65.16887, 43.754627)"><g><path d="M 7.953125 0.296875 C 6.992188 0.296875 6.109375 0.117188 5.296875 -0.234375 C 4.492188 -0.585938 3.796875 -1.0625 3.203125 -1.65625 C 2.617188 -2.257812 2.160156 -2.960938 1.828125 -3.765625 C 1.492188 -4.566406 1.328125 -5.414062 1.328125 -6.3125 L 1.328125 -6.375 C 1.328125 -7.28125 1.492188 -8.132812 1.828125 -8.9375 C 2.160156 -9.738281 2.617188 -10.441406 3.203125 -11.046875 C 3.796875 -11.660156 4.5 -12.144531 5.3125 -12.5 C 6.132812 -12.851562 7.03125 -13.03125 8 -13.03125 C 8.957031 -13.03125 9.84375 -12.851562 10.65625 -12.5 C 11.46875 -12.144531 12.171875 -11.664062 12.765625 -11.0625 C 13.359375 -10.46875 13.816406 -9.769531 14.140625 -8.96875 C 14.472656 -8.175781 14.640625 -7.328125 14.640625 -6.421875 L 14.640625 -6.375 C 14.640625 -5.46875 14.46875 -4.609375 14.125 -3.796875 C 13.789062 -2.992188 13.328125 -2.285156 12.734375 -1.671875 C 12.140625 -1.066406 11.429688 -0.585938 10.609375 -0.234375 C 9.785156 0.117188 8.898438 0.296875 7.953125 0.296875 Z M 8 -1.40625 C 8.6875 -1.40625 9.316406 -1.535156 9.890625 -1.796875 C 10.472656 -2.066406 10.96875 -2.421875 11.375 -2.859375 C 11.789062 -3.304688 12.113281 -3.828125 12.34375 -4.421875 C 12.570312 -5.015625 12.6875 -5.644531 12.6875 -6.3125 L 12.6875 -6.375 C 12.6875 -7.0625 12.566406 -7.703125 12.328125 -8.296875 C 12.085938 -8.898438 11.753906 -9.425781 11.328125 -9.875 C 10.898438 -10.332031 10.398438 -10.691406 9.828125 -10.953125 C 9.253906 -11.222656 8.628906 -11.359375 7.953125 -11.359375 C 7.253906 -11.359375 6.617188 -11.222656 6.046875 -10.953125 C 5.472656 -10.691406 4.984375 -10.335938 4.578125 -9.890625 C 4.171875 -9.453125 3.851562 -8.929688 3.625 -8.328125 C 3.394531 -7.734375 3.28125 -7.097656 3.28125 -6.421875 L 3.28125 -6.375 C 3.28125 -5.675781 3.398438 -5.023438 3.640625 -4.421875 C 3.878906 -3.828125 4.207031 -3.304688 4.625 -2.859375 C 5.050781 -2.421875 5.550781 -2.066406 6.125 -1.796875 C 6.695312 -1.535156 7.320312 -1.40625 8 -1.40625 Z M 8 -1.40625 "/></g></g></g><g fill="#000000" fill-opacity="1"><g transform="translate(82.11869, 43.754627)"><g><path d="M 6.390625 0.21875 C 5.878906 0.21875 5.398438 0.148438 4.953125 0.015625 C 4.515625 -0.109375 4.132812 -0.3125 3.8125 -0.59375 C 3.488281 -0.882812 3.238281 -1.257812 3.0625 -1.71875 C 2.882812 -2.1875 2.796875 -2.738281 2.796875 -3.375 L 2.796875 -11.078125 L 1.015625 -11.078125 L 1.015625 -12.765625 L 2.796875 -12.765625 L 2.796875 -16.609375 L 4.6875 -16.609375 L 4.6875 -12.765625 L 8.734375 -12.765625 L 8.734375 -11.078125 L 4.6875 -11.078125 L 4.6875 -3.625 C 4.6875 -2.832031 4.882812 -2.28125 5.28125 -1.96875 C 5.675781 -1.65625 6.195312 -1.5 6.84375 -1.5 C 7.164062 -1.5 7.472656 -1.53125 7.765625 -1.59375 C 8.054688 -1.664062 8.363281 -1.785156 8.6875 -1.953125 L 8.6875 -0.328125 C 8.363281 -0.140625 8.015625 -0.00390625 7.640625 0.078125 C 7.265625 0.171875 6.847656 0.21875 6.390625 0.21875 Z M 6.390625 0.21875 "/></g></g></g><g fill="#000000" fill-opacity="1"><g transform="translate(93.097985, 43.754627)"><g><path d="M 2.296875 -18.015625 L 4.203125 -18.015625 L 4.203125 0 L 2.296875 0 Z M 2.296875 -18.015625 "/></g></g></g><g fill="#000000" fill-opacity="1"><g transform="translate(100.598575, 43.754627)"><g><path d="M 2.171875 -17.65625 L 4.34375 -17.65625 L 4.34375 -15.546875 L 2.171875 -15.546875 Z M 2.296875 -12.765625 L 4.203125 -12.765625 L 4.203125 0 L 2.296875 0 Z M 2.296875 -12.765625 "/></g></g></g><g fill="#000000" fill-opacity="1"><g transform="translate(108.099165, 43.754627)"><g><path d="M 6.390625 0.21875 C 5.878906 0.21875 5.398438 0.148438 4.953125 0.015625 C 4.515625 -0.109375 4.132812 -0.3125 3.8125 -0.59375 C 3.488281 -0.882812 3.238281 -1.257812 3.0625 -1.71875 C 2.882812 -2.1875 2.796875 -2.738281 2.796875 -3.375 L 2.796875 -11.078125 L 1.015625 -11.078125 L 1.015625 -12.765625 L 2.796875 -12.765625 L 2.796875 -16.609375 L 4.6875 -16.609375 L 4.6875 -12.765625 L 8.734375 -12.765625 L 8.734375 -11.078125 L 4.6875 -11.078125 L 4.6875 -3.625 C 4.6875 -2.832031 4.882812 -2.28125 5.28125 -1.96875 C 5.675781 -1.65625 6.195312 -1.5 6.84375 -1.5 C 7.164062 -1.5 7.472656 -1.53125 7.765625 -1.59375 C 8.054688 -1.664062 8.363281 -1.785156 8.6875 -1.953125 L 8.6875 -0.328125 C 8.363281 -0.140625 8.015625 -0.00390625 7.640625 0.078125 C 7.265625 0.171875 6.847656 0.21875 6.390625 0.21875 Z M 6.390625 0.21875 "/></g></g></g><g fill="#000000" fill-opacity="1"><g transform="translate(118.708269, 43.754627)"><g><path d="M 7.703125 0.296875 C 6.828125 0.296875 6.003906 0.132812 5.234375 -0.1875 C 4.460938 -0.507812 3.785156 -0.960938 3.203125 -1.546875 C 2.628906 -2.128906 2.171875 -2.828125 1.828125 -3.640625 C 1.492188 -4.453125 1.328125 -5.351562 1.328125 -6.34375 L 1.328125 -6.390625 C 1.328125 -7.316406 1.476562 -8.179688 1.78125 -8.984375 C 2.09375 -9.796875 2.519531 -10.5 3.0625 -11.09375 C 3.601562 -11.695312 4.25 -12.171875 5 -12.515625 C 5.75 -12.859375 6.566406 -13.03125 7.453125 -13.03125 C 8.390625 -13.03125 9.226562 -12.851562 9.96875 -12.5 C 10.707031 -12.144531 11.332031 -11.660156 11.84375 -11.046875 C 12.351562 -10.441406 12.738281 -9.734375 13 -8.921875 C 13.269531 -8.109375 13.40625 -7.234375 13.40625 -6.296875 C 13.40625 -6.160156 13.40625 -6.050781 13.40625 -5.96875 C 13.40625 -5.882812 13.394531 -5.785156 13.375 -5.671875 L 3.265625 -5.671875 C 3.328125 -4.984375 3.488281 -4.367188 3.75 -3.828125 C 4.007812 -3.296875 4.34375 -2.84375 4.75 -2.46875 C 5.15625 -2.101562 5.613281 -1.828125 6.125 -1.640625 C 6.632812 -1.453125 7.175781 -1.359375 7.75 -1.359375 C 8.632812 -1.359375 9.394531 -1.519531 10.03125 -1.84375 C 10.664062 -2.175781 11.25 -2.613281 11.78125 -3.15625 L 12.96875 -2.09375 C 12.320312 -1.375 11.585938 -0.796875 10.765625 -0.359375 C 9.941406 0.078125 8.921875 0.296875 7.703125 0.296875 Z M 11.484375 -7.078125 C 11.429688 -7.660156 11.3125 -8.210938 11.125 -8.734375 C 10.9375 -9.265625 10.671875 -9.726562 10.328125 -10.125 C 9.992188 -10.519531 9.582031 -10.835938 9.09375 -11.078125 C 8.613281 -11.316406 8.050781 -11.4375 7.40625 -11.4375 C 6.84375 -11.4375 6.320312 -11.320312 5.84375 -11.09375 C 5.375 -10.875 4.957031 -10.570312 4.59375 -10.1875 C 4.226562 -9.800781 3.929688 -9.34375 3.703125 -8.8125 C 3.472656 -8.289062 3.328125 -7.710938 3.265625 -7.078125 Z M 11.484375 -7.078125 "/></g></g></g></g></g></g></g></g></g></mask><clipPath id="63e059eadc"><path d="M 0 0.0195312 L 184.773438 0.0195312 L 184.773438 74.980469 L 0 74.980469 Z M 0 0.0195312 " clip-rule="nonzero"/></clipPath><clipPath id="23e39fc4e4"><rect x="0" width="185" y="0" height="75"/></clipPath><clipPath id="68a7c0bfb3"><rect x="0" width="185" y="0" height="75"/></clipPath><clipPath id="86b6a6efd4"><rect x="0" width="185" y="0" height="75"/></clipPath><clipPath id="e0ec26f487"><path d="M 83 0.0195312 L 224.761719 0.0195312 L 224.761719 74.980469 L 83 74.980469 Z M 83 0.0195312 " clip-rule="nonzero"/></clipPath><clipPath id="8b5b3f35c1"><path d="M 0.96875 0.0195312 L 141.761719 0.0195312 L 141.761719 74.980469 L 0.96875 74.980469 Z M 0.96875 0.0195312 " clip-rule="nonzero"/></clipPath><clipPath id="94b9aed1ee"><path d="M 0.96875 0.0195312 L 141.761719 0.0195312 L 141.761719 74.980469 L 0.96875 74.980469 Z M 0.96875 0.0195312 " clip-rule="nonzero"/></clipPath><clipPath id="a82269137d"><path d="M 4.277344 0.0195312 L 141.761719 0.0195312 L 141.761719 74.980469 L 4.277344 74.980469 Z M 4.277344 0.0195312 " clip-rule="nonzero"/></clipPath><linearGradient x1="-27.48052" gradientTransform="matrix(0.825375, 0, 0, 0.823585, 50.557158, 17.393976)" y1="98.513221" x2="101.312429" gradientUnits="userSpaceOnUse" y2="-30.2817" id="06f2ed0f09"><stop stop-opacity="1" stop-color="rgb(27.449036%, 7.058716%, 28.239441%)" offset="0"/><stop stop-opacity="1" stop-color="rgb(27.449036%, 7.058716%, 28.239441%)" offset="0.25"/><stop stop-opacity="1" stop-color="rgb(27.449036%, 7.058716%, 28.239441%)" offset="0.353345"/><stop stop-opacity="1" stop-color="rgb(27.449036%, 7.058716%, 28.239441%)" offset="0.375"/><stop stop-opacity="1" stop-color="rgb(27.449036%, 7.058716%, 28.239441%)" offset="0.40625"/><stop stop-opacity="1" stop-color="rgb(27.449036%, 7.058716%, 28.239441%)" offset="0.421875"/><stop stop-opacity="1" stop-color="rgb(27.449036%, 7.058716%, 28.239441%)" offset="0.429688"/><stop stop-opacity="1" stop-color="rgb(28.292847%, 7.374573%, 28.230286%)" offset="0.433594"/><stop stop-opacity="1" stop-color="rgb(29.136658%, 7.69043%, 28.22113%)" offset="0.4375"/><stop stop-opacity="1" stop-color="rgb(30.331421%, 8.135986%, 28.208923%)" offset="0.441406"/><stop stop-opacity="1" stop-color="rgb(31.52771%, 8.583069%, 28.196716%)" offset="0.445312"/><stop stop-opacity="1" stop-color="rgb(32.722473%, 9.030151%, 28.184509%)" offset="0.449219"/><stop stop-opacity="1" stop-color="rgb(33.918762%, 9.477234%, 28.172302%)" offset="0.453125"/><stop stop-opacity="1" stop-color="rgb(35.113525%, 9.924316%, 28.160095%)" offset="0.457031"/><stop stop-opacity="1" stop-color="rgb(36.308289%, 10.371399%, 28.147888%)" offset="0.460938"/><stop stop-opacity="1" stop-color="rgb(37.503052%, 10.816956%, 28.135681%)" offset="0.464844"/><stop stop-opacity="1" stop-color="rgb(38.699341%, 11.264038%, 28.123474%)" offset="0.46875"/><stop stop-opacity="1" stop-color="rgb(39.894104%, 11.711121%, 28.111267%)" offset="0.472656"/><stop stop-opacity="1" stop-color="rgb(41.090393%, 12.158203%, 28.09906%)" offset="0.476562"/><stop stop-opacity="1" stop-color="rgb(42.285156%, 12.60376%, 28.086853%)" offset="0.480469"/><stop stop-opacity="1" stop-color="rgb(43.479919%, 13.050842%, 28.074646%)" offset="0.484375"/><stop stop-opacity="1" stop-color="rgb(44.674683%, 13.497925%, 28.060913%)" offset="0.488281"/><stop stop-opacity="1" stop-color="rgb(45.870972%, 13.945007%, 28.048706%)" offset="0.492188"/><stop stop-opacity="1" stop-color="rgb(47.065735%, 14.390564%, 28.036499%)" offset="0.496094"/><stop stop-opacity="1" stop-color="rgb(48.262024%, 14.837646%, 28.024292%)" offset="0.5"/><stop stop-opacity="1" stop-color="rgb(49.456787%, 15.284729%, 28.012085%)" offset="0.503906"/><stop stop-opacity="1" stop-color="rgb(50.65155%, 15.731812%, 27.999878%)" offset="0.507812"/><stop stop-opacity="1" stop-color="rgb(51.846313%, 16.178894%, 27.987671%)" offset="0.511719"/><stop stop-opacity="1" stop-color="rgb(53.042603%, 16.625977%, 27.975464%)" offset="0.515625"/><stop stop-opacity="1" stop-color="rgb(54.237366%, 17.071533%, 27.963257%)" offset="0.519531"/><stop stop-opacity="1" stop-color="rgb(55.433655%, 17.518616%, 27.95105%)" offset="0.523437"/><stop stop-opacity="1" stop-color="rgb(56.628418%, 17.965698%, 27.938843%)" offset="0.527344"/><stop stop-opacity="1" stop-color="rgb(57.823181%, 18.412781%, 27.926636%)" offset="0.53125"/><stop stop-opacity="1" stop-color="rgb(59.017944%, 18.858337%, 27.914429%)" offset="0.535156"/><stop stop-opacity="1" stop-color="rgb(60.214233%, 19.30542%, 27.902222%)" offset="0.539062"/><stop stop-opacity="1" stop-color="rgb(61.408997%, 19.752502%, 27.888489%)" offset="0.542969"/><stop stop-opacity="1" stop-color="rgb(62.605286%, 20.199585%, 27.876282%)" offset="0.546875"/><stop stop-opacity="1" stop-color="rgb(63.800049%, 20.646667%, 27.864075%)" offset="0.550781"/><stop stop-opacity="1" stop-color="rgb(64.994812%, 21.09375%, 27.851868%)" offset="0.554688"/><stop stop-opacity="1" stop-color="rgb(66.146851%, 22.077942%, 28.013611%)" offset="0.558594"/><stop stop-opacity="1" stop-color="rgb(67.298889%, 23.06366%, 28.17688%)" offset="0.5625"/><stop stop-opacity="1" stop-color="rgb(68.400574%, 24.662781%, 28.538513%)" offset="0.566406"/><stop stop-opacity="1" stop-color="rgb(69.502258%, 26.263428%, 28.901672%)" offset="0.570312"/><stop stop-opacity="1" stop-color="rgb(70.603943%, 27.862549%, 29.263306%)" offset="0.574219"/><stop stop-opacity="1" stop-color="rgb(71.705627%, 29.463196%, 29.626465%)" offset="0.578125"/><stop stop-opacity="1" stop-color="rgb(72.807312%, 31.062317%, 29.988098%)" offset="0.582031"/><stop stop-opacity="1" stop-color="rgb(73.910522%, 32.662964%, 30.351257%)" offset="0.585938"/><stop stop-opacity="1" stop-color="rgb(75.012207%, 34.262085%, 30.712891%)" offset="0.589844"/><stop stop-opacity="1" stop-color="rgb(76.113892%, 35.862732%, 31.074524%)" offset="0.59375"/><stop stop-opacity="1" stop-color="rgb(77.215576%, 37.461853%, 31.436157%)" offset="0.597656"/><stop stop-opacity="1" stop-color="rgb(78.317261%, 39.0625%, 31.799316%)" offset="0.601562"/><stop stop-opacity="1" stop-color="rgb(79.418945%, 40.661621%, 32.16095%)" offset="0.605469"/><stop stop-opacity="1" stop-color="rgb(80.52063%, 42.262268%, 32.524109%)" offset="0.609375"/><stop stop-opacity="1" stop-color="rgb(81.622314%, 43.861389%, 32.885742%)" offset="0.613281"/><stop stop-opacity="1" stop-color="rgb(82.725525%, 45.462036%, 33.247375%)" offset="0.617188"/><stop stop-opacity="1" stop-color="rgb(83.827209%, 47.061157%, 33.609009%)" offset="0.621094"/><stop stop-opacity="1" stop-color="rgb(84.928894%, 48.661804%, 33.972168%)" offset="0.625"/><stop stop-opacity="1" stop-color="rgb(86.030579%, 50.260925%, 34.333801%)" offset="0.628906"/><stop stop-opacity="1" stop-color="rgb(87.132263%, 51.861572%, 34.69696%)" offset="0.632812"/><stop stop-opacity="1" stop-color="rgb(88.233948%, 53.460693%, 35.058594%)" offset="0.636719"/><stop stop-opacity="1" stop-color="rgb(89.335632%, 55.06134%, 35.420227%)" offset="0.640625"/><stop stop-opacity="1" stop-color="rgb(90.437317%, 56.660461%, 35.78186%)" offset="0.644531"/><stop stop-opacity="1" stop-color="rgb(91.540527%, 58.261108%, 36.14502%)" offset="0.648437"/><stop stop-opacity="1" stop-color="rgb(92.642212%, 59.860229%, 36.506653%)" offset="0.652344"/><stop stop-opacity="1" stop-color="rgb(93.743896%, 61.460876%, 36.869812%)" offset="0.65625"/><stop stop-opacity="1" stop-color="rgb(94.395447%, 62.60376%, 37.559509%)" offset="0.660156"/><stop stop-opacity="1" stop-color="rgb(95.048523%, 63.748169%, 38.249207%)" offset="0.664062"/><stop stop-opacity="1" stop-color="rgb(95.205688%, 64.387512%, 39.299011%)" offset="0.667969"/><stop stop-opacity="1" stop-color="rgb(95.362854%, 65.026855%, 40.350342%)" offset="0.671875"/><stop stop-opacity="1" stop-color="rgb(95.52002%, 65.666199%, 41.400146%)" offset="0.675781"/><stop stop-opacity="1" stop-color="rgb(95.677185%, 66.307068%, 42.451477%)" offset="0.679688"/><stop stop-opacity="1" stop-color="rgb(95.834351%, 66.946411%, 43.501282%)" offset="0.683594"/><stop stop-opacity="1" stop-color="rgb(95.991516%, 67.58728%, 44.552612%)" offset="0.6875"/><stop stop-opacity="1" stop-color="rgb(96.147156%, 68.226624%, 45.602417%)" offset="0.691406"/><stop stop-opacity="1" stop-color="rgb(96.304321%, 68.865967%, 46.653748%)" offset="0.695312"/><stop stop-opacity="1" stop-color="rgb(96.461487%, 69.50531%, 47.703552%)" offset="0.699219"/><stop stop-opacity="1" stop-color="rgb(96.618652%, 70.146179%, 48.754883%)" offset="0.703125"/><stop stop-opacity="1" stop-color="rgb(96.775818%, 70.785522%, 49.804688%)" offset="0.707031"/><stop stop-opacity="1" stop-color="rgb(96.932983%, 71.426392%, 50.856018%)" offset="0.710938"/><stop stop-opacity="1" stop-color="rgb(97.090149%, 72.065735%, 51.905823%)" offset="0.714844"/><stop stop-opacity="1" stop-color="rgb(97.247314%, 72.705078%, 52.957153%)" offset="0.71875"/><stop stop-opacity="1" stop-color="rgb(97.40448%, 73.344421%, 54.006958%)" offset="0.722656"/><stop stop-opacity="1" stop-color="rgb(97.561646%, 73.985291%, 55.056763%)" offset="0.726562"/><stop stop-opacity="1" stop-color="rgb(97.717285%, 74.624634%, 56.106567%)" offset="0.730469"/><stop stop-opacity="1" stop-color="rgb(97.874451%, 75.263977%, 57.157898%)" offset="0.734375"/><stop stop-opacity="1" stop-color="rgb(98.031616%, 75.90332%, 58.207703%)" offset="0.738281"/><stop stop-opacity="1" stop-color="rgb(98.188782%, 76.544189%, 59.259033%)" offset="0.742188"/><stop stop-opacity="1" stop-color="rgb(98.345947%, 77.183533%, 60.308838%)" offset="0.746094"/><stop stop-opacity="1" stop-color="rgb(98.503113%, 77.824402%, 61.360168%)" offset="0.75"/><stop stop-opacity="1" stop-color="rgb(98.660278%, 78.463745%, 62.409973%)" offset="0.753906"/><stop stop-opacity="1" stop-color="rgb(98.817444%, 79.103088%, 63.461304%)" offset="0.757812"/><stop stop-opacity="1" stop-color="rgb(98.974609%, 79.742432%, 64.511108%)" offset="0.761719"/><stop stop-opacity="1" stop-color="rgb(99.131775%, 80.383301%, 65.562439%)" offset="0.765625"/><stop stop-opacity="1" stop-color="rgb(99.28894%, 81.022644%, 66.612244%)" offset="0.769531"/><stop stop-opacity="1" stop-color="rgb(99.446106%, 81.661987%, 67.663574%)" offset="0.773437"/><stop stop-opacity="1" stop-color="rgb(99.601746%, 82.301331%, 68.713379%)" offset="0.777344"/><stop stop-opacity="1" stop-color="rgb(99.758911%, 82.9422%, 69.764709%)" offset="0.78125"/><stop stop-opacity="1" stop-color="rgb(99.879456%, 83.430481%, 70.567322%)" offset="0.785156"/><stop stop-opacity="1" stop-color="rgb(100%, 83.918762%, 71.369934%)" offset="0.789062"/><stop stop-opacity="1" stop-color="rgb(100%, 83.918762%, 71.369934%)" offset="0.796875"/><stop stop-opacity="1" stop-color="rgb(100%, 83.918762%, 71.369934%)" offset="0.8125"/><stop stop-opacity="1" stop-color="rgb(100%, 83.918762%, 71.369934%)" offset="0.875"/><stop stop-opacity="1" stop-color="rgb(100%, 83.918762%, 71.369934%)" offset="1"/></linearGradient><clipPath id="a0697e1d7e"><rect x="0" width="142" y="0" height="75"/></clipPath><clipPath id="8a8a748d77"><path d="M 0.96875 0.0195312 L 141.761719 0.0195312 L 141.761719 74.980469 L 0.96875 74.980469 Z M 0.96875 0.0195312 " clip-rule="nonzero"/></clipPath><clipPath id="9c1241ae61"><rect x="0" width="142" y="0" height="75"/></clipPath><clipPath id="bb587efdb9"><rect x="0" width="142" y="0" height="75"/></clipPath><mask id="2c21d92c45"><g filter="url(#80381fa0e6)"><g transform="matrix(1, 0, 0, 1, 0.000000000000014211, -0.000000000000000847)"><g clip-path="url(#bb587efdb9)"><g clip-path="url(#8a8a748d77)"><g transform="matrix(1, 0, 0, 1, 0.000000000000014211, -0.000000000000000847)"><g clip-path="url(#9c1241ae61)"><g fill="#000000" fill-opacity="1"><g transform="translate(53.574918, 42.540648)"><g><path d="M 9.125 -17.390625 L 10.359375 -17.390625 L 18.40625 0 L 17 0 L 14.796875 -4.828125 L 4.609375 -4.828125 L 2.421875 0 L 1.078125 0 Z M 14.265625 -6 L 9.71875 -15.984375 L 5.15625 -6 Z M 14.265625 -6 "/></g></g></g><g fill="#000000" fill-opacity="1"><g transform="translate(73.582076, 42.540648)"><g><path d="M 3.03125 -11.46875 L 1.203125 -11.46875 L 1.203125 -12.578125 L 3.03125 -12.578125 L 3.03125 -13.8125 C 3.03125 -15.257812 3.398438 -16.351562 4.140625 -17.09375 C 4.796875 -17.75 5.675781 -18.078125 6.78125 -18.078125 C 7.164062 -18.078125 7.503906 -18.050781 7.796875 -18 C 8.085938 -17.957031 8.375 -17.882812 8.65625 -17.78125 L 8.65625 -16.65625 C 8.289062 -16.769531 7.96875 -16.847656 7.6875 -16.890625 C 7.414062 -16.941406 7.113281 -16.96875 6.78125 -16.96875 C 5.09375 -16.96875 4.25 -15.910156 4.25 -13.796875 L 4.25 -12.578125 L 8.640625 -12.578125 L 8.640625 -11.46875 L 4.25 -11.46875 L 4.25 0 L 3.03125 0 Z M 3.03125 -11.46875 "/></g></g></g><g fill="#000000" fill-opacity="1"><g transform="translate(83.524286, 42.540648)"><g><path d="M 2.296875 -12.578125 L 3.5 -12.578125 L 3.5 -9 C 3.75 -9.5625 4.0625 -10.082031 4.4375 -10.5625 C 4.820312 -11.039062 5.25 -11.445312 5.71875 -11.78125 C 6.195312 -12.113281 6.71875 -12.363281 7.28125 -12.53125 C 7.851562 -12.707031 8.453125 -12.789062 9.078125 -12.78125 L 9.078125 -11.453125 L 8.953125 -11.453125 C 8.234375 -11.453125 7.539062 -11.316406 6.875 -11.046875 C 6.21875 -10.773438 5.640625 -10.367188 5.140625 -9.828125 C 4.640625 -9.296875 4.238281 -8.640625 3.9375 -7.859375 C 3.644531 -7.078125 3.5 -6.175781 3.5 -5.15625 L 3.5 0 L 2.296875 0 Z M 2.296875 -12.578125 "/></g></g></g><g fill="#000000" fill-opacity="1"><g transform="translate(94.403938, 42.540648)"><g><path d="M 2.3125 -17.515625 L 3.828125 -17.515625 L 3.828125 -15.859375 L 2.3125 -15.859375 Z M 2.46875 -12.578125 L 3.671875 -12.578125 L 3.671875 0 L 2.46875 0 Z M 2.46875 -12.578125 "/></g></g></g><g fill="#000000" fill-opacity="1"><g transform="translate(101.558506, 42.540648)"><g><path d="M 7.84375 0.296875 C 6.9375 0.296875 6.09375 0.117188 5.3125 -0.234375 C 4.53125 -0.585938 3.851562 -1.0625 3.28125 -1.65625 C 2.707031 -2.25 2.253906 -2.9375 1.921875 -3.71875 C 1.597656 -4.507812 1.4375 -5.347656 1.4375 -6.234375 L 1.4375 -6.296875 C 1.4375 -7.179688 1.597656 -8.015625 1.921875 -8.796875 C 2.253906 -9.585938 2.707031 -10.285156 3.28125 -10.890625 C 3.851562 -11.503906 4.53125 -11.988281 5.3125 -12.34375 C 6.09375 -12.695312 6.9375 -12.875 7.84375 -12.875 C 8.4375 -12.875 8.972656 -12.8125 9.453125 -12.6875 C 9.941406 -12.570312 10.390625 -12.40625 10.796875 -12.1875 C 11.210938 -11.96875 11.585938 -11.71875 11.921875 -11.4375 C 12.265625 -11.164062 12.582031 -10.875 12.875 -10.5625 L 12.015625 -9.671875 C 11.472656 -10.234375 10.875 -10.71875 10.21875 -11.125 C 9.5625 -11.539062 8.765625 -11.75 7.828125 -11.75 C 7.097656 -11.75 6.425781 -11.609375 5.8125 -11.328125 C 5.195312 -11.046875 4.660156 -10.660156 4.203125 -10.171875 C 3.753906 -9.691406 3.394531 -9.117188 3.125 -8.453125 C 2.863281 -7.796875 2.734375 -7.09375 2.734375 -6.34375 L 2.734375 -6.296875 C 2.734375 -5.535156 2.867188 -4.820312 3.140625 -4.15625 C 3.410156 -3.488281 3.78125 -2.90625 4.25 -2.40625 C 4.71875 -1.914062 5.265625 -1.53125 5.890625 -1.25 C 6.515625 -0.976562 7.191406 -0.84375 7.921875 -0.84375 C 8.804688 -0.84375 9.597656 -1.039062 10.296875 -1.4375 C 10.992188 -1.84375 11.609375 -2.34375 12.140625 -2.9375 L 12.984375 -2.203125 C 12.335938 -1.472656 11.609375 -0.875 10.796875 -0.40625 C 9.984375 0.0625 9 0.296875 7.84375 0.296875 Z M 7.84375 0.296875 "/></g></g></g><g fill="#000000" fill-opacity="1"><g transform="translate(116.656627, 42.540648)"><g><path d="M 6.125 0.296875 C 5.53125 0.296875 4.941406 0.210938 4.359375 0.046875 C 3.785156 -0.117188 3.269531 -0.363281 2.8125 -0.6875 C 2.351562 -1.019531 1.976562 -1.429688 1.6875 -1.921875 C 1.40625 -2.421875 1.265625 -3 1.265625 -3.65625 L 1.265625 -3.703125 C 1.265625 -4.359375 1.398438 -4.941406 1.671875 -5.453125 C 1.941406 -5.960938 2.3125 -6.390625 2.78125 -6.734375 C 3.257812 -7.078125 3.835938 -7.335938 4.515625 -7.515625 C 5.191406 -7.703125 5.941406 -7.796875 6.765625 -7.796875 C 7.648438 -7.796875 8.410156 -7.742188 9.046875 -7.640625 C 9.691406 -7.546875 10.316406 -7.414062 10.921875 -7.25 L 10.921875 -7.796875 C 10.921875 -9.078125 10.554688 -10.035156 9.828125 -10.671875 C 9.097656 -11.316406 8.082031 -11.640625 6.78125 -11.640625 C 6.007812 -11.640625 5.300781 -11.546875 4.65625 -11.359375 C 4.019531 -11.171875 3.414062 -10.929688 2.84375 -10.640625 L 2.390625 -11.6875 C 3.078125 -12.019531 3.773438 -12.285156 4.484375 -12.484375 C 5.191406 -12.679688 5.984375 -12.78125 6.859375 -12.78125 C 8.585938 -12.78125 9.910156 -12.316406 10.828125 -11.390625 C 11.679688 -10.535156 12.109375 -9.351562 12.109375 -7.84375 L 12.109375 0 L 10.921875 0 L 10.921875 -2.09375 C 10.710938 -1.800781 10.457031 -1.507812 10.15625 -1.21875 C 9.851562 -0.9375 9.503906 -0.679688 9.109375 -0.453125 C 8.710938 -0.234375 8.257812 -0.0546875 7.75 0.078125 C 7.25 0.222656 6.707031 0.296875 6.125 0.296875 Z M 6.1875 -0.84375 C 6.832031 -0.84375 7.441406 -0.9375 8.015625 -1.125 C 8.585938 -1.3125 9.09375 -1.570312 9.53125 -1.90625 C 9.96875 -2.25 10.3125 -2.65625 10.5625 -3.125 C 10.820312 -3.601562 10.953125 -4.132812 10.953125 -4.71875 L 10.953125 -6.140625 C 10.429688 -6.273438 9.816406 -6.398438 9.109375 -6.515625 C 8.398438 -6.640625 7.59375 -6.703125 6.6875 -6.703125 C 5.351562 -6.703125 4.328125 -6.4375 3.609375 -5.90625 C 2.898438 -5.375 2.546875 -4.664062 2.546875 -3.78125 L 2.546875 -3.71875 C 2.546875 -3.257812 2.644531 -2.851562 2.84375 -2.5 C 3.039062 -2.144531 3.304688 -1.84375 3.640625 -1.59375 C 3.972656 -1.351562 4.363281 -1.164062 4.8125 -1.03125 C 5.257812 -0.90625 5.71875 -0.84375 6.1875 -0.84375 Z M 6.1875 -0.84375 "/></g></g></g></g></g></g></g></g></g></mask><clipPath id="35b0b0e6bc"><path d="M 4.277344 0.0195312 L 141.761719 0.0195312 L 141.761719 74.980469 L 4.277344 74.980469 Z M 4.277344 0.0195312 " clip-rule="nonzero"/></clipPath><clipPath id="c1ab119a4e"><rect x="0" width="142" y="0" height="75"/></clipPath><clipPath id="5929fef100"><rect x="0" width="142" y="0" height="75"/></clipPath><clipPath id="cedd7f6fb5"><rect x="0" width="142" y="0" height="75"/></clipPath><clipPath id="3d28073945"><path d="M 111.230469 15.699219 L 224.761719 15.699219 L 224.761719 74.980469 L 111.230469 74.980469 Z M 111.230469 15.699219 " clip-rule="nonzero"/></clipPath><clipPath id="840712c5b6"><path d="M 0.230469 0.699219 L 113.761719 0.699219 L 113.761719 59.980469 L 0.230469 59.980469 Z M 0.230469 0.699219 " clip-rule="nonzero"/></clipPath><clipPath id="c54a5c4019"><path d="M 0.230469 1.449219 L 113.761719 1.449219 L 113.761719 59.980469 L 0.230469 59.980469 Z M 0.230469 1.449219 " clip-rule="nonzero"/></clipPath><linearGradient x1="-39.188" gradientTransform="matrix(0.749327, 0, 0, 0.746847, 29.593485, 29.968101)" y1="13" x2="112.322944" gradientUnits="userSpaceOnUse" y2="13" id="7c267b026c"><stop stop-opacity="1" stop-color="rgb(0%, 0%, 0%)" offset="0"/><stop stop-opacity="1" stop-color="rgb(0%, 0%, 0%)" offset="0.25"/><stop stop-opacity="1" stop-color="rgb(0%, 0%, 0%)" offset="0.257812"/><stop stop-opacity="1" stop-color="rgb(0.242615%, 0.242615%, 0.242615%)" offset="0.261719"/><stop stop-opacity="1" stop-color="rgb(0.486755%, 0.486755%, 0.486755%)" offset="0.265625"/><stop stop-opacity="1" stop-color="rgb(0.759888%, 0.759888%, 0.759888%)" offset="0.269531"/><stop stop-opacity="1" stop-color="rgb(1.03302%, 1.03302%, 1.03302%)" offset="0.273438"/><stop stop-opacity="1" stop-color="rgb(1.306152%, 1.306152%, 1.306152%)" offset="0.277344"/><stop stop-opacity="1" stop-color="rgb(1.580811%, 1.580811%, 1.580811%)" offset="0.28125"/><stop stop-opacity="1" stop-color="rgb(1.853943%, 1.853943%, 1.853943%)" offset="0.285156"/><stop stop-opacity="1" stop-color="rgb(2.127075%, 2.127075%, 2.127075%)" offset="0.289062"/><stop stop-opacity="1" stop-color="rgb(2.400208%, 2.400208%, 2.400208%)" offset="0.292969"/><stop stop-opacity="1" stop-color="rgb(2.67334%, 2.67334%, 2.67334%)" offset="0.296875"/><stop stop-opacity="1" stop-color="rgb(2.946472%, 2.946472%, 2.946472%)" offset="0.300781"/><stop stop-opacity="1" stop-color="rgb(3.219604%, 3.219604%, 3.219604%)" offset="0.304687"/><stop stop-opacity="1" stop-color="rgb(3.492737%, 3.492737%, 3.492737%)" offset="0.308594"/><stop stop-opacity="1" stop-color="rgb(3.765869%, 3.765869%, 3.765869%)" offset="0.3125"/><stop stop-opacity="1" stop-color="rgb(4.039001%, 4.039001%, 4.039001%)" offset="0.316406"/><stop stop-opacity="1" stop-color="rgb(4.312134%, 4.312134%, 4.312134%)" offset="0.320312"/><stop stop-opacity="1" stop-color="rgb(4.585266%, 4.585266%, 4.585266%)" offset="0.324219"/><stop stop-opacity="1" stop-color="rgb(4.858398%, 4.858398%, 4.858398%)" offset="0.328125"/><stop stop-opacity="1" stop-color="rgb(5.131531%, 5.131531%, 5.131531%)" offset="0.332031"/><stop stop-opacity="1" stop-color="rgb(5.406189%, 5.406189%, 5.406189%)" offset="0.335938"/><stop stop-opacity="1" stop-color="rgb(5.679321%, 5.679321%, 5.679321%)" offset="0.339844"/><stop stop-opacity="1" stop-color="rgb(5.952454%, 5.952454%, 5.952454%)" offset="0.34375"/><stop stop-opacity="1" stop-color="rgb(6.225586%, 6.225586%, 6.225586%)" offset="0.347656"/><stop stop-opacity="1" stop-color="rgb(6.498718%, 6.498718%, 6.498718%)" offset="0.351562"/><stop stop-opacity="1" stop-color="rgb(6.771851%, 6.771851%, 6.771851%)" offset="0.355469"/><stop stop-opacity="1" stop-color="rgb(7.044983%, 7.044983%, 7.044983%)" offset="0.359375"/><stop stop-opacity="1" stop-color="rgb(7.318115%, 7.318115%, 7.318115%)" offset="0.363281"/><stop stop-opacity="1" stop-color="rgb(7.591248%, 7.591248%, 7.591248%)" offset="0.367188"/><stop stop-opacity="1" stop-color="rgb(7.86438%, 7.86438%, 7.86438%)" offset="0.371094"/><stop stop-opacity="1" stop-color="rgb(8.137512%, 8.137512%, 8.137512%)" offset="0.375"/><stop stop-opacity="1" stop-color="rgb(8.410645%, 8.410645%, 8.410645%)" offset="0.378906"/><stop stop-opacity="1" stop-color="rgb(8.683777%, 8.683777%, 8.683777%)" offset="0.382812"/><stop stop-opacity="1" stop-color="rgb(8.956909%, 8.956909%, 8.956909%)" offset="0.386719"/><stop stop-opacity="1" stop-color="rgb(9.231567%, 9.231567%, 9.231567%)" offset="0.390625"/><stop stop-opacity="1" stop-color="rgb(9.5047%, 9.5047%, 9.5047%)" offset="0.394531"/><stop stop-opacity="1" stop-color="rgb(9.777832%, 9.777832%, 9.777832%)" offset="0.398438"/><stop stop-opacity="1" stop-color="rgb(10.050964%, 10.050964%, 10.050964%)" offset="0.402344"/><stop stop-opacity="1" stop-color="rgb(10.324097%, 10.324097%, 10.324097%)" offset="0.40625"/><stop stop-opacity="1" stop-color="rgb(10.597229%, 10.597229%, 10.597229%)" offset="0.410156"/><stop stop-opacity="1" stop-color="rgb(10.870361%, 10.870361%, 10.870361%)" offset="0.414062"/><stop stop-opacity="1" stop-color="rgb(11.143494%, 11.143494%, 11.143494%)" offset="0.417969"/><stop stop-opacity="1" stop-color="rgb(11.416626%, 11.416626%, 11.416626%)" offset="0.421875"/><stop stop-opacity="1" stop-color="rgb(11.689758%, 11.689758%, 11.689758%)" offset="0.425781"/><stop stop-opacity="1" stop-color="rgb(11.962891%, 11.962891%, 11.962891%)" offset="0.429687"/><stop stop-opacity="1" stop-color="rgb(12.236023%, 12.236023%, 12.236023%)" offset="0.433594"/><stop stop-opacity="1" stop-color="rgb(12.509155%, 12.509155%, 12.509155%)" offset="0.4375"/><stop stop-opacity="1" stop-color="rgb(12.782288%, 12.782288%, 12.782288%)" offset="0.441406"/><stop stop-opacity="1" stop-color="rgb(13.05542%, 13.05542%, 13.05542%)" offset="0.445312"/><stop stop-opacity="1" stop-color="rgb(13.328552%, 13.328552%, 13.328552%)" offset="0.449219"/><stop stop-opacity="1" stop-color="rgb(13.60321%, 13.60321%, 13.60321%)" offset="0.453125"/><stop stop-opacity="1" stop-color="rgb(13.876343%, 13.876343%, 13.876343%)" offset="0.457031"/><stop stop-opacity="1" stop-color="rgb(14.149475%, 14.149475%, 14.149475%)" offset="0.460937"/><stop stop-opacity="1" stop-color="rgb(14.422607%, 14.422607%, 14.422607%)" offset="0.464844"/><stop stop-opacity="1" stop-color="rgb(14.69574%, 14.69574%, 14.69574%)" offset="0.46875"/><stop stop-opacity="1" stop-color="rgb(14.968872%, 14.968872%, 14.968872%)" offset="0.472656"/><stop stop-opacity="1" stop-color="rgb(15.242004%, 15.242004%, 15.242004%)" offset="0.476562"/><stop stop-opacity="1" stop-color="rgb(15.515137%, 15.515137%, 15.515137%)" offset="0.480469"/><stop stop-opacity="1" stop-color="rgb(15.788269%, 15.788269%, 15.788269%)" offset="0.484375"/><stop stop-opacity="1" stop-color="rgb(16.061401%, 16.061401%, 16.061401%)" offset="0.488281"/><stop stop-opacity="1" stop-color="rgb(16.334534%, 16.334534%, 16.334534%)" offset="0.492187"/><stop stop-opacity="1" stop-color="rgb(16.607666%, 16.607666%, 16.607666%)" offset="0.496094"/><stop stop-opacity="1" stop-color="rgb(16.880798%, 16.880798%, 16.880798%)" offset="0.5"/><stop stop-opacity="1" stop-color="rgb(17.153931%, 17.153931%, 17.153931%)" offset="0.503906"/><stop stop-opacity="1" stop-color="rgb(17.428589%, 17.428589%, 17.428589%)" offset="0.507812"/><stop stop-opacity="1" stop-color="rgb(17.701721%, 17.701721%, 17.701721%)" offset="0.511719"/><stop stop-opacity="1" stop-color="rgb(17.974854%, 17.974854%, 17.974854%)" offset="0.515625"/><stop stop-opacity="1" stop-color="rgb(18.247986%, 18.247986%, 18.247986%)" offset="0.519531"/><stop stop-opacity="1" stop-color="rgb(18.521118%, 18.521118%, 18.521118%)" offset="0.523437"/><stop stop-opacity="1" stop-color="rgb(18.79425%, 18.79425%, 18.79425%)" offset="0.527344"/><stop stop-opacity="1" stop-color="rgb(19.067383%, 19.067383%, 19.067383%)" offset="0.53125"/><stop stop-opacity="1" stop-color="rgb(19.340515%, 19.340515%, 19.340515%)" offset="0.535156"/><stop stop-opacity="1" stop-color="rgb(19.613647%, 19.613647%, 19.613647%)" offset="0.539062"/><stop stop-opacity="1" stop-color="rgb(19.88678%, 19.88678%, 19.88678%)" offset="0.542969"/><stop stop-opacity="1" stop-color="rgb(20.159912%, 20.159912%, 20.159912%)" offset="0.546875"/><stop stop-opacity="1" stop-color="rgb(20.433044%, 20.433044%, 20.433044%)" offset="0.550781"/><stop stop-opacity="1" stop-color="rgb(20.706177%, 20.706177%, 20.706177%)" offset="0.554688"/><stop stop-opacity="1" stop-color="rgb(20.979309%, 20.979309%, 20.979309%)" offset="0.558594"/><stop stop-opacity="1" stop-color="rgb(21.253967%, 21.253967%, 21.253967%)" offset="0.5625"/><stop stop-opacity="1" stop-color="rgb(21.5271%, 21.5271%, 21.5271%)" offset="0.566406"/><stop stop-opacity="1" stop-color="rgb(21.800232%, 21.800232%, 21.800232%)" offset="0.570312"/><stop stop-opacity="1" stop-color="rgb(22.073364%, 22.073364%, 22.073364%)" offset="0.574219"/><stop stop-opacity="1" stop-color="rgb(22.346497%, 22.346497%, 22.346497%)" offset="0.578125"/><stop stop-opacity="1" stop-color="rgb(22.619629%, 22.619629%, 22.619629%)" offset="0.582031"/><stop stop-opacity="1" stop-color="rgb(22.892761%, 22.892761%, 22.892761%)" offset="0.585938"/><stop stop-opacity="1" stop-color="rgb(23.165894%, 23.165894%, 23.165894%)" offset="0.589844"/><stop stop-opacity="1" stop-color="rgb(23.439026%, 23.439026%, 23.439026%)" offset="0.59375"/><stop stop-opacity="1" stop-color="rgb(23.712158%, 23.712158%, 23.712158%)" offset="0.597656"/><stop stop-opacity="1" stop-color="rgb(23.985291%, 23.985291%, 23.985291%)" offset="0.601562"/><stop stop-opacity="1" stop-color="rgb(24.258423%, 24.258423%, 24.258423%)" offset="0.605469"/><stop stop-opacity="1" stop-color="rgb(24.531555%, 24.531555%, 24.531555%)" offset="0.609375"/><stop stop-opacity="1" stop-color="rgb(24.804688%, 24.804688%, 24.804688%)" offset="0.613281"/><stop stop-opacity="1" stop-color="rgb(25.079346%, 25.079346%, 25.079346%)" offset="0.617188"/><stop stop-opacity="1" stop-color="rgb(25.352478%, 25.352478%, 25.352478%)" offset="0.621094"/><stop stop-opacity="1" stop-color="rgb(25.62561%, 25.62561%, 25.62561%)" offset="0.625"/><stop stop-opacity="1" stop-color="rgb(25.898743%, 25.898743%, 25.898743%)" offset="0.628906"/><stop stop-opacity="1" stop-color="rgb(26.171875%, 26.171875%, 26.171875%)" offset="0.632812"/><stop stop-opacity="1" stop-color="rgb(26.445007%, 26.445007%, 26.445007%)" offset="0.636719"/><stop stop-opacity="1" stop-color="rgb(26.71814%, 26.71814%, 26.71814%)" offset="0.640625"/><stop stop-opacity="1" stop-color="rgb(26.991272%, 26.991272%, 26.991272%)" offset="0.644531"/><stop stop-opacity="1" stop-color="rgb(27.264404%, 27.264404%, 27.264404%)" offset="0.648437"/><stop stop-opacity="1" stop-color="rgb(27.537537%, 27.537537%, 27.537537%)" offset="0.652344"/><stop stop-opacity="1" stop-color="rgb(27.810669%, 27.810669%, 27.810669%)" offset="0.65625"/><stop stop-opacity="1" stop-color="rgb(28.083801%, 28.083801%, 28.083801%)" offset="0.660156"/><stop stop-opacity="1" stop-color="rgb(28.356934%, 28.356934%, 28.356934%)" offset="0.664062"/><stop stop-opacity="1" stop-color="rgb(28.630066%, 28.630066%, 28.630066%)" offset="0.667969"/><stop stop-opacity="1" stop-color="rgb(28.903198%, 28.903198%, 28.903198%)" offset="0.671875"/><stop stop-opacity="1" stop-color="rgb(29.176331%, 29.176331%, 29.176331%)" offset="0.675781"/><stop stop-opacity="1" stop-color="rgb(29.450989%, 29.450989%, 29.450989%)" offset="0.679687"/><stop stop-opacity="1" stop-color="rgb(29.724121%, 29.724121%, 29.724121%)" offset="0.683594"/><stop stop-opacity="1" stop-color="rgb(29.997253%, 29.997253%, 29.997253%)" offset="0.6875"/><stop stop-opacity="1" stop-color="rgb(30.270386%, 30.270386%, 30.270386%)" offset="0.691406"/><stop stop-opacity="1" stop-color="rgb(30.543518%, 30.543518%, 30.543518%)" offset="0.695312"/><stop stop-opacity="1" stop-color="rgb(30.81665%, 30.81665%, 30.81665%)" offset="0.699219"/><stop stop-opacity="1" stop-color="rgb(31.089783%, 31.089783%, 31.089783%)" offset="0.703125"/><stop stop-opacity="1" stop-color="rgb(31.362915%, 31.362915%, 31.362915%)" offset="0.707031"/><stop stop-opacity="1" stop-color="rgb(31.636047%, 31.636047%, 31.636047%)" offset="0.710937"/><stop stop-opacity="1" stop-color="rgb(31.90918%, 31.90918%, 31.90918%)" offset="0.714844"/><stop stop-opacity="1" stop-color="rgb(32.182312%, 32.182312%, 32.182312%)" offset="0.71875"/><stop stop-opacity="1" stop-color="rgb(32.455444%, 32.455444%, 32.455444%)" offset="0.722656"/><stop stop-opacity="1" stop-color="rgb(32.728577%, 32.728577%, 32.728577%)" offset="0.726562"/><stop stop-opacity="1" stop-color="rgb(33.001709%, 33.001709%, 33.001709%)" offset="0.730469"/><stop stop-opacity="1" stop-color="rgb(33.276367%, 33.276367%, 33.276367%)" offset="0.734375"/><stop stop-opacity="1" stop-color="rgb(33.5495%, 33.5495%, 33.5495%)" offset="0.738281"/><stop stop-opacity="1" stop-color="rgb(33.822632%, 33.822632%, 33.822632%)" offset="0.742187"/><stop stop-opacity="1" stop-color="rgb(34.095764%, 34.095764%, 34.095764%)" offset="0.746094"/><stop stop-opacity="1" stop-color="rgb(34.368896%, 34.368896%, 34.368896%)" offset="0.75"/><stop stop-opacity="1" stop-color="rgb(34.642029%, 34.642029%, 34.642029%)" offset="0.753906"/><stop stop-opacity="1" stop-color="rgb(34.915161%, 34.915161%, 34.915161%)" offset="0.757812"/><stop stop-opacity="1" stop-color="rgb(35.188293%, 35.188293%, 35.188293%)" offset="0.761719"/><stop stop-opacity="1" stop-color="rgb(35.461426%, 35.461426%, 35.461426%)" offset="0.765625"/><stop stop-opacity="1" stop-color="rgb(35.734558%, 35.734558%, 35.734558%)" offset="0.769531"/><stop stop-opacity="1" stop-color="rgb(36.00769%, 36.00769%, 36.00769%)" offset="0.773437"/><stop stop-opacity="1" stop-color="rgb(36.280823%, 36.280823%, 36.280823%)" offset="0.777344"/><stop stop-opacity="1" stop-color="rgb(36.553955%, 36.553955%, 36.553955%)" offset="0.78125"/><stop stop-opacity="1" stop-color="rgb(36.827087%, 36.827087%, 36.827087%)" offset="0.785156"/><stop stop-opacity="1" stop-color="rgb(37.101746%, 37.101746%, 37.101746%)" offset="0.789062"/><stop stop-opacity="1" stop-color="rgb(37.374878%, 37.374878%, 37.374878%)" offset="0.792969"/><stop stop-opacity="1" stop-color="rgb(37.64801%, 37.64801%, 37.64801%)" offset="0.796875"/><stop stop-opacity="1" stop-color="rgb(37.921143%, 37.921143%, 37.921143%)" offset="0.800781"/><stop stop-opacity="1" stop-color="rgb(38.194275%, 38.194275%, 38.194275%)" offset="0.804688"/><stop stop-opacity="1" stop-color="rgb(38.467407%, 38.467407%, 38.467407%)" offset="0.808594"/><stop stop-opacity="1" stop-color="rgb(38.74054%, 38.74054%, 38.74054%)" offset="0.8125"/><stop stop-opacity="1" stop-color="rgb(39.013672%, 39.013672%, 39.013672%)" offset="0.816406"/><stop stop-opacity="1" stop-color="rgb(39.286804%, 39.286804%, 39.286804%)" offset="0.820312"/><stop stop-opacity="1" stop-color="rgb(39.559937%, 39.559937%, 39.559937%)" offset="0.824219"/><stop stop-opacity="1" stop-color="rgb(39.833069%, 39.833069%, 39.833069%)" offset="0.828125"/><stop stop-opacity="1" stop-color="rgb(40.106201%, 40.106201%, 40.106201%)" offset="0.832031"/><stop stop-opacity="1" stop-color="rgb(40.379333%, 40.379333%, 40.379333%)" offset="0.835938"/><stop stop-opacity="1" stop-color="rgb(40.652466%, 40.652466%, 40.652466%)" offset="0.839844"/><stop stop-opacity="1" stop-color="rgb(40.925598%, 40.925598%, 40.925598%)" offset="0.84375"/><stop stop-opacity="1" stop-color="rgb(41.19873%, 41.19873%, 41.19873%)" offset="0.847656"/><stop stop-opacity="1" stop-color="rgb(41.473389%, 41.473389%, 41.473389%)" offset="0.851562"/><stop stop-opacity="1" stop-color="rgb(41.746521%, 41.746521%, 41.746521%)" offset="0.855469"/><stop stop-opacity="1" stop-color="rgb(42.019653%, 42.019653%, 42.019653%)" offset="0.859375"/><stop stop-opacity="1" stop-color="rgb(42.292786%, 42.292786%, 42.292786%)" offset="0.863281"/><stop stop-opacity="1" stop-color="rgb(42.565918%, 42.565918%, 42.565918%)" offset="0.867188"/><stop stop-opacity="1" stop-color="rgb(42.83905%, 42.83905%, 42.83905%)" offset="0.871094"/><stop stop-opacity="1" stop-color="rgb(43.112183%, 43.112183%, 43.112183%)" offset="0.875"/><stop stop-opacity="1" stop-color="rgb(43.385315%, 43.385315%, 43.385315%)" offset="0.878906"/><stop stop-opacity="1" stop-color="rgb(43.658447%, 43.658447%, 43.658447%)" offset="0.882812"/><stop stop-opacity="1" stop-color="rgb(43.93158%, 43.93158%, 43.93158%)" offset="0.886719"/><stop stop-opacity="1" stop-color="rgb(44.204712%, 44.204712%, 44.204712%)" offset="0.890625"/><stop stop-opacity="1" stop-color="rgb(44.477844%, 44.477844%, 44.477844%)" offset="0.894531"/><stop stop-opacity="1" stop-color="rgb(44.750977%, 44.750977%, 44.750977%)" offset="0.898437"/><stop stop-opacity="1" stop-color="rgb(44.924927%, 44.924927%, 44.924927%)" offset="0.90625"/><stop stop-opacity="1" stop-color="rgb(45.098877%, 45.098877%, 45.098877%)" offset="0.9375"/><stop stop-opacity="1" stop-color="rgb(45.098877%, 45.098877%, 45.098877%)" offset="1"/></linearGradient><clipPath id="f49d426f2d"><rect x="0" width="114" y="0" height="60"/></clipPath><clipPath id="a0b08d199f"><path d="M 0.230469 0.699219 L 113.761719 0.699219 L 113.761719 59.980469 L 0.230469 59.980469 Z M 0.230469 0.699219 " clip-rule="nonzero"/></clipPath><clipPath id="4cbb5ad299"><rect x="0" width="114" y="0" height="60"/></clipPath><clipPath id="7180b6ff3a"><rect x="0" width="114" y="0" height="60"/></clipPath><mask id="4b5a3f8862"><g filter="url(#80381fa0e6)"><g transform="matrix(1, 0, 0, 1, 0.000000000000014211, 0)"><g clip-path="url(#7180b6ff3a)"><g clip-path="url(#a0b08d199f)"><g transform="matrix(1, 0, 0, 1, 0.000000000000014211, 0)"><g clip-path="url(#4cbb5ad299)"><g fill="#000000" fill-opacity="1"><g transform="translate(29.463198, 44.924311)"><g><path d="M 3.53125 0.15625 C 3.175781 0.15625 2.828125 0.109375 2.484375 0.015625 C 2.148438 -0.078125 1.847656 -0.222656 1.578125 -0.421875 C 1.304688 -0.628906 1.085938 -0.878906 0.921875 -1.171875 C 0.765625 -1.460938 0.6875 -1.804688 0.6875 -2.203125 L 0.6875 -2.234375 C 0.6875 -2.628906 0.765625 -2.976562 0.921875 -3.28125 C 1.078125 -3.59375 1.300781 -3.847656 1.59375 -4.046875 C 1.882812 -4.253906 2.226562 -4.410156 2.625 -4.515625 C 3.019531 -4.628906 3.457031 -4.6875 3.9375 -4.6875 C 4.425781 -4.6875 4.847656 -4.65625 5.203125 -4.59375 C 5.566406 -4.539062 5.921875 -4.460938 6.265625 -4.359375 L 6.265625 -4.625 C 6.265625 -5.3125 6.066406 -5.828125 5.671875 -6.171875 C 5.273438 -6.523438 4.722656 -6.703125 4.015625 -6.703125 C 3.554688 -6.703125 3.144531 -6.648438 2.78125 -6.546875 C 2.414062 -6.441406 2.054688 -6.304688 1.703125 -6.140625 L 1.359375 -7.0625 C 1.785156 -7.257812 2.210938 -7.414062 2.640625 -7.53125 C 3.078125 -7.644531 3.570312 -7.703125 4.125 -7.703125 C 5.207031 -7.703125 6.023438 -7.421875 6.578125 -6.859375 C 7.097656 -6.335938 7.359375 -5.597656 7.359375 -4.640625 L 7.359375 0 L 6.265625 0 L 6.265625 -1.140625 C 6.003906 -0.796875 5.648438 -0.492188 5.203125 -0.234375 C 4.753906 0.0234375 4.195312 0.15625 3.53125 0.15625 Z M 3.75 -0.734375 C 4.101562 -0.734375 4.429688 -0.785156 4.734375 -0.890625 C 5.046875 -0.992188 5.316406 -1.132812 5.546875 -1.3125 C 5.773438 -1.5 5.953125 -1.710938 6.078125 -1.953125 C 6.210938 -2.203125 6.28125 -2.484375 6.28125 -2.796875 L 6.28125 -3.53125 C 6 -3.601562 5.675781 -3.671875 5.3125 -3.734375 C 4.945312 -3.804688 4.523438 -3.84375 4.046875 -3.84375 C 3.335938 -3.84375 2.789062 -3.703125 2.40625 -3.421875 C 2.03125 -3.140625 1.84375 -2.757812 1.84375 -2.28125 L 1.84375 -2.25 C 1.84375 -2.007812 1.890625 -1.796875 1.984375 -1.609375 C 2.085938 -1.421875 2.226562 -1.257812 2.40625 -1.125 C 2.582031 -1 2.785156 -0.898438 3.015625 -0.828125 C 3.242188 -0.765625 3.488281 -0.734375 3.75 -0.734375 Z M 3.75 -0.734375 "/></g></g></g><g fill="#000000" fill-opacity="1"><g transform="translate(41.338654, 44.924311)"><g><path d="M 4.625 2.375 C 3.988281 2.375 3.378906 2.285156 2.796875 2.109375 C 2.222656 1.929688 1.679688 1.671875 1.171875 1.328125 L 1.6875 0.4375 C 2.125 0.75 2.582031 0.988281 3.0625 1.15625 C 3.550781 1.320312 4.066406 1.40625 4.609375 1.40625 C 5.453125 1.40625 6.125 1.175781 6.625 0.71875 C 7.125 0.269531 7.375 -0.398438 7.375 -1.296875 L 7.375 -2.1875 C 7.039062 -1.75 6.632812 -1.375 6.15625 -1.0625 C 5.675781 -0.75 5.085938 -0.59375 4.390625 -0.59375 C 3.929688 -0.59375 3.488281 -0.675781 3.0625 -0.84375 C 2.632812 -1.007812 2.253906 -1.242188 1.921875 -1.546875 C 1.585938 -1.859375 1.320312 -2.226562 1.125 -2.65625 C 0.925781 -3.09375 0.828125 -3.585938 0.828125 -4.140625 L 0.828125 -4.171875 C 0.828125 -4.734375 0.925781 -5.234375 1.125 -5.671875 C 1.320312 -6.109375 1.585938 -6.476562 1.921875 -6.78125 C 2.253906 -7.09375 2.632812 -7.332031 3.0625 -7.5 C 3.5 -7.664062 3.941406 -7.75 4.390625 -7.75 C 4.742188 -7.75 5.066406 -7.707031 5.359375 -7.625 C 5.660156 -7.539062 5.929688 -7.429688 6.171875 -7.296875 C 6.410156 -7.160156 6.628906 -7 6.828125 -6.8125 C 7.023438 -6.625 7.203125 -6.429688 7.359375 -6.234375 L 7.359375 -7.59375 L 8.484375 -7.59375 L 8.484375 -1.328125 C 8.484375 -0.734375 8.398438 -0.21875 8.234375 0.21875 C 8.066406 0.664062 7.828125 1.046875 7.515625 1.359375 C 7.171875 1.703125 6.753906 1.957031 6.265625 2.125 C 5.773438 2.289062 5.226562 2.375 4.625 2.375 Z M 4.609375 -1.59375 C 4.972656 -1.59375 5.320312 -1.648438 5.65625 -1.765625 C 5.988281 -1.890625 6.285156 -2.066406 6.546875 -2.296875 C 6.804688 -2.523438 7.015625 -2.796875 7.171875 -3.109375 C 7.328125 -3.421875 7.40625 -3.769531 7.40625 -4.15625 L 7.40625 -4.1875 C 7.40625 -4.582031 7.328125 -4.9375 7.171875 -5.25 C 7.015625 -5.5625 6.804688 -5.828125 6.546875 -6.046875 C 6.285156 -6.273438 5.988281 -6.445312 5.65625 -6.5625 C 5.320312 -6.6875 4.972656 -6.75 4.609375 -6.75 C 4.242188 -6.75 3.898438 -6.6875 3.578125 -6.5625 C 3.265625 -6.445312 2.988281 -6.28125 2.75 -6.0625 C 2.507812 -5.84375 2.320312 -5.570312 2.1875 -5.25 C 2.050781 -4.9375 1.984375 -4.585938 1.984375 -4.203125 L 1.984375 -4.171875 C 1.984375 -3.785156 2.050781 -3.429688 2.1875 -3.109375 C 2.332031 -2.796875 2.523438 -2.523438 2.765625 -2.296875 C 3.003906 -2.078125 3.28125 -1.90625 3.59375 -1.78125 C 3.914062 -1.65625 4.253906 -1.59375 4.609375 -1.59375 Z M 4.609375 -1.59375 "/></g></g></g><g fill="#000000" fill-opacity="1"><g transform="translate(54.46156, 44.924311)"><g><path d="M 4.578125 0.171875 C 4.054688 0.171875 3.566406 0.078125 3.109375 -0.109375 C 2.648438 -0.296875 2.25 -0.5625 1.90625 -0.90625 C 1.5625 -1.257812 1.289062 -1.675781 1.09375 -2.15625 C 0.894531 -2.644531 0.796875 -3.1875 0.796875 -3.78125 L 0.796875 -3.796875 C 0.796875 -4.347656 0.882812 -4.863281 1.0625 -5.34375 C 1.25 -5.820312 1.503906 -6.238281 1.828125 -6.59375 C 2.148438 -6.957031 2.53125 -7.238281 2.96875 -7.4375 C 3.414062 -7.644531 3.90625 -7.75 4.4375 -7.75 C 4.988281 -7.75 5.484375 -7.644531 5.921875 -7.4375 C 6.367188 -7.226562 6.742188 -6.941406 7.046875 -6.578125 C 7.347656 -6.210938 7.578125 -5.785156 7.734375 -5.296875 C 7.890625 -4.816406 7.96875 -4.300781 7.96875 -3.75 C 7.96875 -3.664062 7.96875 -3.597656 7.96875 -3.546875 C 7.96875 -3.503906 7.960938 -3.445312 7.953125 -3.375 L 1.9375 -3.375 C 1.976562 -2.96875 2.078125 -2.601562 2.234375 -2.28125 C 2.390625 -1.96875 2.585938 -1.695312 2.828125 -1.46875 C 3.066406 -1.25 3.335938 -1.082031 3.640625 -0.96875 C 3.941406 -0.863281 4.265625 -0.8125 4.609375 -0.8125 C 5.140625 -0.8125 5.59375 -0.90625 5.96875 -1.09375 C 6.34375 -1.289062 6.6875 -1.550781 7 -1.875 L 7.71875 -1.25 C 7.332031 -0.820312 6.894531 -0.476562 6.40625 -0.21875 C 5.914062 0.0390625 5.304688 0.171875 4.578125 0.171875 Z M 6.828125 -4.21875 C 6.796875 -4.5625 6.722656 -4.890625 6.609375 -5.203125 C 6.503906 -5.515625 6.347656 -5.785156 6.140625 -6.015625 C 5.941406 -6.253906 5.695312 -6.441406 5.40625 -6.578125 C 5.125 -6.722656 4.789062 -6.796875 4.40625 -6.796875 C 4.070312 -6.796875 3.765625 -6.726562 3.484375 -6.59375 C 3.203125 -6.46875 2.953125 -6.289062 2.734375 -6.0625 C 2.515625 -5.832031 2.335938 -5.5625 2.203125 -5.25 C 2.066406 -4.9375 1.976562 -4.59375 1.9375 -4.21875 Z M 6.828125 -4.21875 "/></g></g></g><g fill="#000000" fill-opacity="1"><g transform="translate(66.527802, 44.924311)"><g><path d="M 1.265625 -7.59375 L 2.390625 -7.59375 L 2.390625 -6.265625 C 2.648438 -6.679688 2.984375 -7.03125 3.390625 -7.3125 C 3.804688 -7.601562 4.34375 -7.75 5 -7.75 C 5.457031 -7.75 5.863281 -7.675781 6.21875 -7.53125 C 6.570312 -7.382812 6.875 -7.175781 7.125 -6.90625 C 7.375 -6.632812 7.566406 -6.3125 7.703125 -5.9375 C 7.835938 -5.570312 7.90625 -5.164062 7.90625 -4.71875 L 7.90625 0 L 6.765625 0 L 6.765625 -4.4375 C 6.765625 -5.144531 6.582031 -5.703125 6.21875 -6.109375 C 5.863281 -6.523438 5.347656 -6.734375 4.671875 -6.734375 C 4.347656 -6.734375 4.046875 -6.675781 3.765625 -6.5625 C 3.484375 -6.445312 3.238281 -6.28125 3.03125 -6.0625 C 2.832031 -5.851562 2.675781 -5.601562 2.5625 -5.3125 C 2.445312 -5.019531 2.390625 -4.695312 2.390625 -4.34375 L 2.390625 0 L 1.265625 0 Z M 1.265625 -7.59375 "/></g></g></g><g fill="#000000" fill-opacity="1"><g transform="translate(78.946265, 44.924311)"><g><path d="M 4.6875 0.171875 C 4.125 0.171875 3.601562 0.0664062 3.125 -0.140625 C 2.65625 -0.347656 2.242188 -0.628906 1.890625 -0.984375 C 1.546875 -1.347656 1.273438 -1.769531 1.078125 -2.25 C 0.890625 -2.726562 0.796875 -3.234375 0.796875 -3.765625 L 0.796875 -3.796875 C 0.796875 -4.328125 0.890625 -4.832031 1.078125 -5.3125 C 1.273438 -5.789062 1.546875 -6.210938 1.890625 -6.578125 C 2.242188 -6.941406 2.65625 -7.226562 3.125 -7.4375 C 3.601562 -7.644531 4.125 -7.75 4.6875 -7.75 C 5.050781 -7.75 5.378906 -7.710938 5.671875 -7.640625 C 5.960938 -7.578125 6.226562 -7.484375 6.46875 -7.359375 C 6.71875 -7.242188 6.945312 -7.101562 7.15625 -6.9375 C 7.363281 -6.769531 7.550781 -6.59375 7.71875 -6.40625 L 6.984375 -5.609375 C 6.671875 -5.921875 6.335938 -6.1875 5.984375 -6.40625 C 5.628906 -6.632812 5.191406 -6.75 4.671875 -6.75 C 4.285156 -6.75 3.925781 -6.671875 3.59375 -6.515625 C 3.257812 -6.367188 2.96875 -6.164062 2.71875 -5.90625 C 2.476562 -5.644531 2.289062 -5.332031 2.15625 -4.96875 C 2.019531 -4.613281 1.953125 -4.226562 1.953125 -3.8125 L 1.953125 -3.796875 C 1.953125 -3.378906 2.019531 -2.988281 2.15625 -2.625 C 2.300781 -2.269531 2.5 -1.957031 2.75 -1.6875 C 3 -1.425781 3.289062 -1.21875 3.625 -1.0625 C 3.96875 -0.914062 4.34375 -0.84375 4.75 -0.84375 C 5.238281 -0.84375 5.671875 -0.945312 6.046875 -1.15625 C 6.421875 -1.375 6.757812 -1.644531 7.0625 -1.96875 L 7.78125 -1.296875 C 7.40625 -0.859375 6.972656 -0.503906 6.484375 -0.234375 C 5.992188 0.0351562 5.394531 0.171875 4.6875 0.171875 Z M 4.6875 0.171875 "/></g></g></g><g fill="#000000" fill-opacity="1"><g transform="translate(90.630901, 44.924311)"><g><path d="M 6.953125 -7.59375 L 8.15625 -7.59375 L 4.96875 0.25 C 4.644531 1.03125 4.285156 1.582031 3.890625 1.90625 C 3.492188 2.226562 3.007812 2.390625 2.4375 2.390625 C 2.125 2.390625 1.835938 2.359375 1.578125 2.296875 C 1.328125 2.234375 1.078125 2.140625 0.828125 2.015625 L 1.203125 1.109375 C 1.390625 1.210938 1.570312 1.285156 1.75 1.328125 C 1.9375 1.367188 2.148438 1.390625 2.390625 1.390625 C 2.734375 1.390625 3.019531 1.285156 3.25 1.078125 C 3.488281 0.878906 3.722656 0.507812 3.953125 -0.03125 L 0.5 -7.59375 L 1.75 -7.59375 L 4.515625 -1.265625 Z M 6.953125 -7.59375 "/></g></g></g></g></g></g></g></g></g></mask><clipPath id="53ce982a72"><path d="M 0.230469 1.449219 L 113.761719 1.449219 L 113.761719 59.980469 L 0.230469 59.980469 Z M 0.230469 1.449219 " clip-rule="nonzero"/></clipPath><clipPath id="7c73e25afd"><rect x="0" width="114" y="0" height="60"/></clipPath><clipPath id="0252cc302a"><rect x="0" width="114" y="0" height="60"/></clipPath></defs><g clip-path="url(#41345bae46)"><path fill="#000000" d="M 39.820312 11.347656 L 19.953125 11.347656 C 18.511719 11.347656 17.054688 11.304688 15.628906 11.558594 C 12.578125 12.097656 9.914062 13.988281 8.6875 16.898438 C 8.394531 17.605469 8.195312 18.335938 8.09375 19.09375 C 7.996094 19.851562 7.992188 20.613281 8.089844 21.371094 C 8.1875 22.128906 8.382812 22.863281 8.671875 23.570312 C 8.960938 24.277344 9.335938 24.9375 9.796875 25.542969 C 10.71875 26.753906 11.871094 27.664062 13.257812 28.277344 C 14.871094 28.980469 16.617188 29.179688 18.363281 29.1875 C 21.519531 29.203125 24.675781 29.1875 27.832031 29.1875 L 35.300781 29.1875 C 35.402344 29.1875 35.5 29.1875 35.601562 29.1875 C 35.636719 29.1875 35.671875 29.1875 35.707031 29.1875 L 35.445312 29.183594 C 35.507812 29.183594 35.570312 29.1875 35.636719 29.191406 C 35.609375 29.195312 35.25 29.15625 35.511719 29.183594 C 35.613281 29.195312 35.867188 29.15625 35.539062 29.183594 C 35.636719 29.1875 35.726562 29.203125 35.820312 29.226562 C 35.84375 29.230469 36.148438 29.289062 35.917969 29.242188 C 36.039062 29.265625 36.160156 29.296875 36.277344 29.324219 C 39.136719 30.058594 41.421875 32.40625 42.214844 35.246094 C 43.039062 38.214844 42.199219 41.53125 40 43.691406 C 38.96875 44.703125 37.679688 45.46875 36.277344 45.828125 C 36.21875 45.84375 35.789062 45.9375 36.003906 45.894531 C 35.910156 45.914062 35.820312 45.929688 35.726562 45.945312 C 35.644531 45.957031 35.359375 46.042969 35.699219 45.953125 C 35.609375 45.976562 35.503906 45.953125 35.417969 45.976562 L 35.632812 45.964844 C 35.570312 45.96875 35.507812 45.96875 35.441406 45.972656 C 35.789062 45.929688 35.773438 45.96875 35.601562 45.96875 C 35.535156 45.96875 35.46875 45.96875 35.398438 45.96875 L 9.71875 45.96875 C 9.3125 45.960938 8.910156 45.988281 8.511719 46.046875 C 8.464844 46.054688 8.035156 46.097656 8.007812 46.234375 C 7.964844 46.484375 9.667969 46.496094 9.71875 46.496094 L 34.3125 46.496094 C 35.714844 46.496094 37.125 46.519531 38.511719 46.253906 C 41.566406 45.664062 44.203125 43.6875 45.355469 40.734375 C 45.628906 40.023438 45.808594 39.285156 45.890625 38.523438 C 45.972656 37.761719 45.953125 37.003906 45.835938 36.25 C 45.71875 35.492188 45.507812 34.765625 45.199219 34.066406 C 44.890625 33.367188 44.5 32.71875 44.019531 32.125 C 43.078125 30.949219 41.917969 30.074219 40.53125 29.496094 C 38.960938 28.851562 37.273438 28.664062 35.585938 28.65625 C 34.496094 28.652344 33.40625 28.65625 32.3125 28.65625 L 18.617188 28.65625 C 18.527344 28.65625 18.441406 28.65625 18.351562 28.65625 C 17.984375 28.660156 18.777344 28.675781 18.417969 28.660156 C 18.074219 28.644531 18.789062 28.699219 18.445312 28.660156 C 18.347656 28.648438 18.089844 28.6875 18.417969 28.660156 C 18.324219 28.65625 18.230469 28.644531 18.140625 28.617188 C 18.148438 28.621094 17.847656 28.566406 17.996094 28.59375 C 18.148438 28.625 17.851562 28.5625 17.859375 28.5625 C 17.738281 28.535156 17.621094 28.503906 17.5 28.472656 C 14.632812 27.667969 12.378906 25.222656 11.675781 22.328125 C 10.953125 19.367188 11.867188 16.121094 14.085938 14.03125 C 15.164062 13.007812 16.417969 12.320312 17.859375 11.972656 C 17.886719 11.964844 18.1875 11.90625 17.957031 11.949219 C 18.046875 11.929688 18.140625 11.914062 18.230469 11.902344 C 18.3125 11.886719 18.597656 11.804688 18.257812 11.894531 C 18.347656 11.871094 18.457031 11.894531 18.542969 11.867188 C 18.519531 11.875 18.152344 11.890625 18.417969 11.875 C 18.777344 11.859375 17.988281 11.875 18.347656 11.878906 L 18.363281 11.878906 C 18.453125 11.878906 18.542969 11.878906 18.632812 11.878906 L 39.820312 11.878906 C 40.222656 11.882812 40.628906 11.859375 41.027344 11.800781 C 41.074219 11.792969 41.503906 11.746094 41.527344 11.613281 C 41.574219 11.359375 39.867188 11.347656 39.820312 11.347656 Z M 39.820312 11.347656 " fill-opacity="1" fill-rule="nonzero"/></g><g clip-path="url(#dead3460cf)"><g transform="matrix(1, 0, 0, 1, 0, -0.000000000000000847)"><g clip-path="url(#86b6a6efd4)"><g clip-path="url(#62c31702d2)"><g transform="matrix(1, 0, 0, 1, 0, -0.000000000000000847)"><g clip-path="url(#68a7c0bfb3)"><g clip-path="url(#e8d90d6e97)"><g mask="url(#816b838ccb)"><g transform="matrix(1, 0, 0, 1, 0, -0.000000000000000847)"><g clip-path="url(#23e39fc4e4)"><g clip-path="url(#63e059eadc)"><path fill="url(#704e109c4e)" d="M 0 0.0195312 L 0 74.980469 L 184.773438 74.980469 L 184.773438 0.0195312 Z M 0 0.0195312 " fill-rule="nonzero"/></g></g></g></g></g></g></g></g></g></g></g><g clip-path="url(#e0ec26f487)"><g transform="matrix(1, 0, 0, 1, 83, -0.000000000000000847)"><g clip-path="url(#cedd7f6fb5)"><g clip-path="url(#8b5b3f35c1)"><g transform="matrix(1, 0, 0, 1, 0.000000000000014211, -0.000000000000000847)"><g clip-path="url(#5929fef100)"><g clip-path="url(#94b9aed1ee)"><g mask="url(#2c21d92c45)"><g transform="matrix(1, 0, 0, 1, 0.000000000000014211, -0.000000000000000847)"><g clip-path="url(#c1ab119a4e)"><g clip-path="url(#35b0b0e6bc)"><path fill="url(#06f2ed0f09)" d="M 4.277344 0.0195312 L 4.277344 74.980469 L 141.761719 74.980469 L 141.761719 0.0195312 Z M 4.277344 0.0195312 " fill-rule="nonzero"/></g></g></g></g></g></g></g></g></g></g></g><g clip-path="url(#3d28073945)"><g transform="matrix(1, 0, 0, 1, 111, 15)"><g clip-path="url(#0252cc302a)"><g clip-path="url(#840712c5b6)"><g mask="url(#4b5a3f8862)"><g transform="matrix(1, 0, 0, 1, 0.000000000000014211, 0)"><g clip-path="url(#7c73e25afd)"><g clip-path="url(#53ce982a72)"><path fill="url(#7c267b026c)" d="M 0.230469 1.449219 L 0.230469 59.980469 L 113.761719 59.980469 L 113.761719 1.449219 Z M 0.230469 1.449219 " fill-rule="nonzero"/></g></g></g></g></g></g></g></g></svg>