<svg xmlns="http://www.w3.org/2000/svg" xmlns:xlink="http://www.w3.org/1999/xlink" width="300" zoomAndPan="magnify" viewBox="0 0 224.87999 74.999997" height="100" preserveAspectRatio="xMidYMid meet" version="1.0"><path fill="#0d395a" d="M 6.238281 30.875 C 6.355469 30.800781 6.339844 30.667969 6.375 30.5625 C 6.824219 29.269531 8 28.382812 9.363281 28.3125 C 9.53125 28.304688 9.695312 28.304688 9.859375 28.304688 C 13.875 28.304688 17.894531 28.304688 21.910156 28.304688 C 22.042969 28.304688 22.167969 28.304688 22.289062 28.304688 C 22.394531 28.15625 22.351562 28.007812 22.351562 27.875 C 22.355469 23.792969 22.359375 19.710938 22.351562 15.628906 C 22.351562 14.816406 22.542969 14.078125 23.066406 13.457031 C 23.742188 12.660156 24.5625 12.195312 25.648438 12.199219 C 29.640625 12.214844 33.636719 12.234375 37.628906 12.191406 C 39.167969 12.175781 40.933594 13.476562 40.917969 15.480469 C 40.902344 17.726562 40.914062 19.972656 40.914062 22.222656 C 40.914062 23.390625 40.914062 24.566406 40.914062 25.734375 C 40.914062 25.949219 40.898438 26.160156 40.820312 26.359375 C 40.628906 26.832031 40.105469 27.140625 39.59375 27.085938 C 39.058594 27.03125 38.628906 26.652344 38.523438 26.148438 C 38.464844 25.871094 38.457031 25.585938 38.457031 25.300781 C 38.460938 22.105469 38.460938 18.914062 38.460938 15.71875 C 38.460938 15.519531 38.476562 15.316406 38.40625 15.121094 C 38.296875 14.808594 38.085938 14.636719 37.753906 14.613281 C 37.660156 14.605469 37.5625 14.609375 37.472656 14.609375 C 33.609375 14.609375 29.75 14.609375 25.886719 14.609375 C 25.730469 14.609375 25.574219 14.597656 25.425781 14.636719 C 25.0625 14.738281 24.816406 15.054688 24.800781 15.445312 C 24.796875 15.550781 24.800781 15.660156 24.800781 15.761719 C 24.800781 20.105469 24.800781 24.445312 24.800781 28.789062 C 24.800781 29.082031 24.792969 29.378906 24.742188 29.671875 C 24.625 30.339844 24.25 30.6875 23.5625 30.714844 C 23.027344 30.734375 22.496094 30.730469 21.960938 30.730469 C 17.875 30.730469 13.789062 30.726562 9.699219 30.726562 C 9.417969 30.726562 9.160156 30.734375 8.941406 30.953125 C 8.726562 31.171875 8.652344 31.417969 8.652344 31.71875 C 8.660156 34.890625 8.65625 38.0625 8.65625 41.234375 C 8.65625 41.953125 8.671875 42.679688 8.652344 43.398438 C 8.632812 43.984375 8.984375 44.378906 9.625 44.421875 C 9.882812 44.4375 10.148438 44.429688 10.40625 44.429688 C 14.660156 44.429688 18.914062 44.425781 23.167969 44.425781 C 23.324219 44.425781 23.472656 44.425781 23.628906 44.433594 C 24.199219 44.453125 24.613281 44.796875 24.738281 45.351562 C 24.800781 45.621094 24.800781 45.890625 24.800781 46.164062 C 24.800781 49.949219 24.800781 53.734375 24.800781 57.523438 C 24.800781 57.632812 24.800781 57.746094 24.800781 57.859375 C 24.824219 57.863281 24.84375 57.871094 24.859375 57.875 C 25.105469 57.535156 25.355469 57.195312 25.601562 56.855469 C 28.210938 53.246094 31.445312 50.289062 35.054688 47.710938 C 37.253906 46.140625 39.582031 44.777344 41.960938 43.511719 C 42.878906 43.019531 43.789062 42.515625 44.703125 42.015625 C 44.769531 42.003906 44.839844 41.992188 44.808594 41.890625 C 44.699219 41.882812 44.585938 41.859375 44.492188 41.945312 C 43.171875 42.074219 41.847656 42.175781 40.519531 42.171875 C 37.289062 42.167969 34.121094 41.761719 31.085938 40.597656 C 28.28125 39.523438 25.757812 37.992188 23.59375 35.894531 C 23.355469 35.664062 23.109375 35.445312 22.867188 35.210938 C 22.707031 35.058594 22.566406 34.878906 22.453125 34.683594 C 22.203125 34.234375 22.253906 33.730469 22.582031 33.328125 C 22.894531 32.949219 23.378906 32.8125 23.867188 32.972656 C 24.09375 33.050781 24.300781 33.167969 24.464844 33.347656 C 25.679688 34.675781 27.089844 35.765625 28.613281 36.714844 C 30.925781 38.160156 33.460938 38.984375 36.144531 39.414062 C 38.292969 39.753906 40.457031 39.828125 42.625 39.675781 C 44.789062 39.527344 46.929688 39.210938 49.054688 38.765625 C 51.183594 38.320312 53.289062 37.777344 55.363281 37.113281 C 56.03125 36.898438 56.625 37.136719 56.90625 37.699219 C 57.230469 38.335938 56.96875 39.03125 56.28125 39.347656 C 55.769531 39.589844 55.242188 39.804688 54.722656 40.03125 C 51.207031 41.554688 47.71875 43.136719 44.332031 44.929688 C 41.539062 46.410156 38.8125 48 36.238281 49.839844 C 34.171875 51.3125 32.230469 52.945312 30.476562 54.777344 C 28.476562 56.871094 26.710938 59.152344 25.363281 61.730469 C 25.175781 62.085938 24.988281 62.441406 24.800781 62.796875 C 24.722656 62.945312 24.648438 63.089844 24.550781 63.222656 C 24.242188 63.652344 23.773438 63.835938 23.316406 63.710938 C 22.804688 63.578125 22.429688 63.144531 22.378906 62.625 C 22.367188 62.488281 22.367188 62.34375 22.367188 62.199219 C 22.367188 57.21875 22.367188 52.242188 22.367188 47.261719 C 22.367188 47.132812 22.394531 47.003906 22.335938 46.875 C 22.210938 46.808594 22.082031 46.839844 21.953125 46.839844 C 17.890625 46.835938 13.828125 46.839844 9.761719 46.839844 C 8.09375 46.839844 6.894531 45.996094 6.339844 44.429688 C 6.320312 44.378906 6.328125 44.308594 6.25 44.292969 C 6.238281 39.820312 6.238281 35.347656 6.238281 30.875 Z M 6.238281 30.875 " fill-opacity="1" fill-rule="nonzero"/><path fill="#0d395a" d="M 186.785156 38.167969 C 186.628906 38.109375 186.484375 38.136719 186.347656 38.136719 C 180.375 38.136719 174.40625 38.136719 168.433594 38.136719 C 168.3125 38.136719 168.191406 38.140625 168.078125 38.132812 C 167.53125 38.105469 167.160156 37.722656 167.132812 37.175781 C 167.128906 37.035156 167.125 36.894531 167.132812 36.753906 C 167.167969 36.226562 167.546875 35.855469 168.078125 35.832031 C 168.171875 35.828125 168.269531 35.828125 168.359375 35.828125 C 174.886719 35.828125 181.414062 35.828125 187.941406 35.828125 C 188.085938 35.828125 188.226562 35.824219 188.367188 35.839844 C 188.777344 35.890625 189.113281 36.21875 189.164062 36.625 C 189.179688 36.753906 189.183594 36.882812 189.183594 37.015625 C 189.183594 40.457031 189.183594 43.898438 189.183594 47.339844 C 189.183594 47.472656 189.183594 47.601562 189.164062 47.730469 C 189.105469 48.148438 188.75 48.484375 188.332031 48.53125 C 188.222656 48.542969 188.117188 48.539062 188.011719 48.539062 C 183.429688 48.539062 178.84375 48.535156 174.257812 48.539062 C 172.296875 48.539062 170.410156 48.195312 168.6875 47.246094 C 165.492188 45.484375 163.433594 42.851562 162.78125 39.222656 C 162.292969 36.5 162.5625 33.851562 163.914062 31.410156 C 165.71875 28.160156 168.460938 26.160156 172.164062 25.539062 C 172.832031 25.429688 173.503906 25.386719 174.183594 25.386719 C 178.800781 25.386719 183.421875 25.386719 188.042969 25.382812 C 188.34375 25.382812 188.628906 25.410156 188.863281 25.632812 C 189.28125 26.027344 189.324219 26.976562 188.929688 27.394531 C 188.761719 27.570312 188.554688 27.679688 188.304688 27.695312 C 188.183594 27.703125 188.066406 27.699219 187.949219 27.699219 C 183.4375 27.699219 178.921875 27.699219 174.410156 27.699219 C 173.253906 27.699219 172.105469 27.796875 171.023438 28.222656 C 167.734375 29.511719 165.703125 31.867188 165.121094 35.375 C 164.785156 37.394531 164.984375 39.378906 165.953125 41.203125 C 167.589844 44.285156 170.167969 45.980469 173.679688 46.195312 C 173.878906 46.207031 174.082031 46.207031 174.285156 46.207031 C 178.335938 46.207031 182.386719 46.207031 186.441406 46.207031 C 186.546875 46.207031 186.652344 46.207031 186.78125 46.207031 C 186.785156 43.527344 186.785156 40.855469 186.785156 38.167969 Z M 186.785156 38.167969 " fill-opacity="1" fill-rule="nonzero"/><path fill="#0d395a" d="M 96.074219 39.597656 C 96.074219 39.777344 96.074219 39.910156 96.074219 40.042969 C 96.074219 42.457031 96.074219 44.867188 96.074219 47.28125 C 96.074219 47.4375 96.074219 47.589844 96.046875 47.738281 C 95.964844 48.179688 95.617188 48.5 95.171875 48.535156 C 94.960938 48.550781 94.746094 48.550781 94.53125 48.535156 C 94.0625 48.492188 93.71875 48.160156 93.65625 47.695312 C 93.640625 47.578125 93.644531 47.460938 93.644531 47.339844 C 93.644531 40.417969 93.644531 33.5 93.644531 26.582031 C 93.644531 26.472656 93.640625 26.367188 93.652344 26.261719 C 93.703125 25.789062 94.066406 25.441406 94.539062 25.398438 C 94.632812 25.390625 94.730469 25.394531 94.820312 25.394531 C 100.886719 25.394531 106.949219 25.398438 113.015625 25.390625 C 114.332031 25.390625 115.589844 25.625 116.722656 26.308594 C 118.820312 27.566406 120.023438 29.402344 120.222656 31.863281 C 120.34375 33.351562 120.101562 34.769531 119.332031 36.0625 C 118.371094 37.6875 116.992188 38.800781 115.160156 39.324219 C 115.082031 39.347656 114.992188 39.339844 114.925781 39.441406 C 115.367188 40.089844 115.8125 40.742188 116.257812 41.394531 C 117.5 43.222656 118.738281 45.050781 119.984375 46.878906 C 120.183594 47.171875 120.324219 47.472656 120.210938 47.839844 C 120.136719 48.09375 119.988281 48.28125 119.765625 48.414062 C 119.191406 48.742188 118.328125 48.550781 117.960938 48.011719 C 116.382812 45.710938 114.808594 43.40625 113.238281 41.101562 C 112.9375 40.664062 112.632812 40.226562 112.335938 39.78125 C 112.25 39.652344 112.152344 39.589844 111.992188 39.597656 C 111.746094 39.609375 111.492188 39.601562 111.242188 39.601562 C 106.339844 39.601562 101.433594 39.601562 96.53125 39.601562 C 96.390625 39.597656 96.253906 39.597656 96.074219 39.597656 Z M 96.078125 37.230469 C 96.191406 37.292969 96.273438 37.273438 96.351562 37.273438 C 101.929688 37.273438 107.511719 37.273438 113.089844 37.277344 C 113.421875 37.277344 113.753906 37.25 114.074219 37.179688 C 117.75 36.390625 118.84375 32.238281 116.988281 29.683594 C 115.988281 28.308594 114.601562 27.703125 112.914062 27.707031 C 107.394531 27.714844 101.875 27.710938 96.355469 27.710938 C 96.269531 27.710938 96.164062 27.675781 96.082031 27.769531 C 96.078125 30.914062 96.078125 34.066406 96.078125 37.230469 Z M 96.078125 37.230469 " fill-opacity="1" fill-rule="nonzero"/><path fill="#0d395a" d="M 195.71875 37.3125 C 195.71875 40.277344 195.71875 43.21875 195.71875 46.171875 C 195.851562 46.253906 195.996094 46.214844 196.132812 46.214844 C 202.457031 46.21875 208.785156 46.214844 215.113281 46.21875 C 215.253906 46.21875 215.398438 46.210938 215.539062 46.226562 C 216.007812 46.273438 216.363281 46.648438 216.390625 47.121094 C 216.398438 47.289062 216.398438 47.453125 216.390625 47.617188 C 216.371094 48.109375 216.007812 48.488281 215.523438 48.539062 C 215.402344 48.550781 215.28125 48.546875 215.167969 48.546875 C 208.285156 48.546875 201.398438 48.546875 194.515625 48.546875 C 194.421875 48.546875 194.324219 48.550781 194.234375 48.542969 C 193.707031 48.507812 193.328125 48.132812 193.292969 47.609375 C 193.289062 47.527344 193.289062 47.445312 193.289062 47.363281 C 193.289062 40.429688 193.289062 33.5 193.289062 26.566406 C 193.289062 26.402344 193.28125 26.234375 193.339844 26.074219 C 193.484375 25.683594 193.75 25.449219 194.171875 25.40625 C 194.28125 25.394531 194.386719 25.398438 194.492188 25.398438 C 201.386719 25.398438 208.285156 25.398438 215.179688 25.398438 C 215.296875 25.398438 215.417969 25.402344 215.535156 25.40625 C 215.714844 25.414062 215.871094 25.496094 216.023438 25.59375 C 216.53125 25.925781 216.550781 27.25 215.957031 27.566406 C 215.816406 27.644531 215.675781 27.699219 215.523438 27.707031 C 215.390625 27.714844 215.261719 27.710938 215.132812 27.710938 C 208.804688 27.710938 202.476562 27.710938 196.152344 27.710938 C 196.011719 27.710938 195.867188 27.679688 195.722656 27.75 C 195.722656 30.132812 195.722656 32.519531 195.722656 34.925781 C 195.855469 34.972656 195.996094 34.953125 196.132812 34.953125 C 202.09375 34.953125 208.046875 34.953125 214.007812 34.953125 C 214.175781 34.953125 214.34375 34.953125 214.507812 34.976562 C 214.984375 35.046875 215.296875 35.382812 215.335938 35.855469 C 215.351562 36.042969 215.347656 36.234375 215.332031 36.425781 C 215.289062 36.878906 214.933594 37.234375 214.472656 37.273438 C 214.339844 37.285156 214.210938 37.277344 214.082031 37.277344 C 208.109375 37.277344 202.140625 37.277344 196.167969 37.277344 C 196.03125 37.277344 195.886719 37.253906 195.71875 37.3125 Z M 195.71875 37.3125 " fill-opacity="1" fill-rule="nonzero"/><path fill="#0d395a" d="M 161.328125 48.535156 C 160.8125 48.613281 160.453125 48.363281 160.152344 47.917969 C 158.753906 45.875 157.335938 43.851562 155.9375 41.816406 C 155.800781 41.621094 155.664062 41.535156 155.421875 41.523438 C 152.757812 41.417969 150.09375 41.445312 147.441406 41.746094 C 144.429688 42.089844 141.503906 42.769531 138.75 44.078125 C 136.671875 45.066406 134.824219 46.367188 133.28125 48.066406 C 132.757812 48.640625 132.148438 48.621094 131.519531 48.460938 C 130.925781 48.3125 130.703125 47.578125 131.054688 47.039062 C 131.335938 46.601562 131.644531 46.179688 131.941406 45.753906 C 134.773438 41.683594 137.597656 37.617188 140.429688 33.550781 C 142.199219 31.007812 143.996094 28.484375 145.730469 25.917969 C 146.179688 25.253906 147.316406 25.246094 147.777344 25.910156 C 150.9375 30.507812 154.136719 35.082031 157.328125 39.660156 C 158.992188 42.046875 160.652344 44.4375 162.316406 46.824219 C 162.382812 46.917969 162.453125 47.015625 162.511719 47.117188 C 162.828125 47.722656 162.445312 48.449219 161.765625 48.527344 C 161.625 48.546875 161.492188 48.535156 161.328125 48.535156 Z M 154.046875 39.09375 C 151.601562 35.582031 149.1875 32.125 146.753906 28.632812 C 143.726562 33.007812 140.714844 37.359375 137.703125 41.710938 C 137.710938 41.738281 137.714844 41.769531 137.722656 41.796875 C 142.957031 39.765625 148.367188 38.84375 154.046875 39.09375 Z M 154.046875 39.09375 " fill-opacity="1" fill-rule="nonzero"/><path fill="#0d395a" d="M 75 27.734375 C 74.851562 27.683594 74.722656 27.707031 74.59375 27.707031 C 71.089844 27.707031 67.578125 27.707031 64.074219 27.707031 C 63.8125 27.707031 63.566406 27.671875 63.324219 27.53125 C 62.800781 27.222656 62.726562 25.867188 63.40625 25.519531 C 63.53125 25.457031 63.664062 25.402344 63.808594 25.394531 C 63.9375 25.390625 64.066406 25.390625 64.195312 25.390625 C 72.21875 25.390625 80.238281 25.390625 88.257812 25.390625 C 88.390625 25.390625 88.523438 25.390625 88.648438 25.394531 C 88.957031 25.40625 89.1875 25.5625 89.359375 25.804688 C 89.636719 26.1875 89.613281 26.984375 89.316406 27.347656 C 89.152344 27.550781 88.941406 27.675781 88.679688 27.695312 C 88.550781 27.707031 88.421875 27.703125 88.289062 27.703125 C 84.820312 27.703125 81.347656 27.703125 77.878906 27.703125 C 77.75 27.703125 77.617188 27.675781 77.488281 27.730469 C 77.410156 27.863281 77.453125 28.003906 77.453125 28.144531 C 77.449219 34.507812 77.449219 40.871094 77.449219 47.238281 C 77.449219 47.34375 77.453125 47.453125 77.449219 47.554688 C 77.414062 48.140625 77.03125 48.519531 76.445312 48.535156 C 76.277344 48.539062 76.113281 48.542969 75.949219 48.53125 C 75.433594 48.496094 75.0625 48.132812 75.027344 47.617188 C 75.019531 47.488281 75.023438 47.359375 75.023438 47.230469 C 75.023438 40.863281 75.023438 34.5 75.023438 28.136719 C 75.023438 28.011719 75.046875 27.882812 75 27.734375 Z M 75 27.734375 " fill-opacity="1" fill-rule="nonzero"/><path fill="#123b5c" d="M 122.546875 52.828125 C 142.085938 52.828125 161.625 52.828125 181.160156 52.828125 C 181.292969 52.828125 181.425781 52.820312 181.550781 52.839844 C 181.679688 52.859375 181.769531 52.9375 181.765625 53.078125 C 181.761719 53.214844 181.675781 53.296875 181.542969 53.316406 C 181.429688 53.328125 181.308594 53.324219 181.1875 53.324219 C 172.242188 53.324219 163.296875 53.324219 154.351562 53.324219 C 124.210938 53.324219 94.070312 53.324219 63.925781 53.324219 C 63.808594 53.324219 63.6875 53.328125 63.570312 53.316406 C 63.4375 53.300781 63.347656 53.222656 63.339844 53.089844 C 63.332031 52.933594 63.433594 52.847656 63.578125 52.832031 C 63.699219 52.820312 63.816406 52.824219 63.933594 52.824219 C 71.609375 52.824219 79.289062 52.824219 86.964844 52.824219 C 98.828125 52.828125 110.691406 52.828125 122.546875 52.828125 Z M 122.546875 52.828125 " fill-opacity="1" fill-rule="nonzero"/><path fill="#0d395a" d="M 124.351562 36.941406 C 124.351562 33.488281 124.351562 30.035156 124.351562 26.578125 C 124.351562 26.386719 124.351562 26.199219 124.417969 26.015625 C 124.585938 25.566406 124.921875 25.386719 125.609375 25.386719 C 126.222656 25.386719 126.5625 25.578125 126.722656 26.019531 C 126.777344 26.175781 126.796875 26.339844 126.796875 26.507812 C 126.796875 33.464844 126.796875 40.421875 126.792969 47.378906 C 126.792969 48.164062 126.414062 48.535156 125.640625 48.539062 C 125.53125 48.539062 125.425781 48.542969 125.320312 48.539062 C 124.792969 48.515625 124.410156 48.152344 124.359375 47.625 C 124.347656 47.511719 124.355469 47.390625 124.355469 47.273438 C 124.351562 43.828125 124.351562 40.386719 124.351562 36.941406 Z M 124.351562 36.941406 " fill-opacity="1" fill-rule="nonzero"/><path fill="#ae722e" d="M 35.605469 33.867188 C 35.589844 31.667969 37.382812 29.722656 39.664062 29.703125 C 41.957031 29.683594 43.847656 31.480469 43.832031 33.8125 C 43.820312 36.039062 42.082031 37.886719 39.695312 37.894531 C 37.105469 37.90625 35.589844 35.722656 35.605469 33.867188 Z M 35.605469 33.867188 " fill-opacity="1" fill-rule="nonzero"/><path fill="#0d395a" d="M 205.777344 54.390625 C 206.0625 53.960938 206.320312 53.566406 206.582031 53.171875 C 207.003906 52.53125 207.425781 51.886719 207.847656 51.246094 C 207.898438 51.167969 207.945312 51.082031 208.011719 51.015625 C 208.105469 50.925781 208.222656 50.917969 208.34375 50.957031 C 208.457031 50.996094 208.507812 51.082031 208.511719 51.203125 C 208.515625 51.25 208.515625 51.296875 208.515625 51.347656 C 208.515625 52.503906 208.515625 53.664062 208.515625 54.820312 C 208.515625 54.953125 208.527344 55.085938 208.398438 55.175781 C 208.1875 55.320312 207.945312 55.183594 207.941406 54.90625 C 207.929688 54.421875 207.9375 53.933594 207.9375 53.449219 C 207.9375 53.058594 207.9375 52.671875 207.9375 52.28125 C 207.8125 52.261719 207.800781 52.367188 207.761719 52.425781 C 207.226562 53.234375 206.691406 54.046875 206.160156 54.855469 C 206.113281 54.921875 206.070312 54.996094 206.019531 55.0625 C 205.84375 55.285156 205.707031 55.289062 205.542969 55.070312 C 205.484375 54.992188 205.433594 54.914062 205.382812 54.835938 C 204.847656 54.023438 204.316406 53.214844 203.78125 52.402344 C 203.75 52.355469 203.730469 52.296875 203.664062 52.269531 C 203.558594 52.316406 203.617188 52.410156 203.617188 52.480469 C 203.613281 53.222656 203.613281 53.972656 203.613281 54.714844 C 203.613281 54.808594 203.617188 54.90625 203.605469 54.996094 C 203.582031 55.148438 203.484375 55.214844 203.332031 55.222656 C 203.179688 55.230469 203.082031 55.160156 203.046875 55.015625 C 203.027344 54.9375 203.035156 54.855469 203.035156 54.769531 C 203.035156 53.648438 203.035156 52.523438 203.035156 51.402344 C 203.035156 51.339844 203.035156 51.28125 203.039062 51.222656 C 203.042969 51.089844 203.097656 50.996094 203.230469 50.957031 C 203.367188 50.917969 203.492188 50.945312 203.578125 51.0625 C 203.691406 51.21875 203.789062 51.378906 203.894531 51.535156 C 204.511719 52.464844 205.128906 53.402344 205.777344 54.390625 Z M 205.777344 54.390625 " fill-opacity="1" fill-rule="nonzero"/><path fill="#0d395b" d="M 212.003906 51.519531 C 212.003906 51.902344 212.003906 52.265625 212.003906 52.65625 C 212.277344 52.65625 212.539062 52.65625 212.796875 52.65625 C 213.527344 52.65625 214.265625 52.65625 214.996094 52.65625 C 215.078125 52.65625 215.164062 52.65625 215.242188 52.660156 C 215.398438 52.667969 215.480469 52.75 215.488281 52.90625 C 215.5 53.066406 215.421875 53.179688 215.257812 53.210938 C 215.179688 53.226562 215.097656 53.214844 215.011719 53.214844 C 214.015625 53.214844 213.023438 53.214844 212.007812 53.214844 C 212.007812 53.6875 212.007812 54.152344 212.007812 54.628906 C 212.109375 54.683594 212.21875 54.660156 212.316406 54.660156 C 213.277344 54.664062 214.234375 54.660156 215.195312 54.660156 C 215.277344 54.660156 215.363281 54.65625 215.441406 54.664062 C 215.589844 54.683594 215.679688 54.761719 215.679688 54.917969 C 215.679688 55.078125 215.617188 55.191406 215.441406 55.210938 C 215.371094 55.21875 215.296875 55.214844 215.230469 55.214844 C 214.105469 55.214844 212.984375 55.214844 211.855469 55.214844 C 211.445312 55.214844 211.410156 55.183594 211.410156 54.769531 C 211.410156 53.636719 211.410156 52.5 211.410156 51.367188 C 211.410156 50.976562 211.449219 50.933594 211.832031 50.933594 C 212.984375 50.929688 214.128906 50.933594 215.277344 50.933594 C 215.363281 50.933594 215.445312 50.9375 215.523438 50.960938 C 215.65625 51.003906 215.6875 51.117188 215.675781 51.246094 C 215.664062 51.363281 215.609375 51.453125 215.488281 51.472656 C 215.398438 51.488281 215.304688 51.484375 215.207031 51.484375 C 214.25 51.484375 213.289062 51.484375 212.332031 51.484375 C 212.230469 51.488281 212.125 51.460938 212.003906 51.519531 Z M 212.003906 51.519531 " fill-opacity="1" fill-rule="nonzero"/><path fill="#0d395a" d="M 197.59375 55.21875 C 197.238281 55.199219 196.859375 55.246094 196.484375 55.152344 C 195.464844 54.886719 194.84375 53.972656 194.925781 52.835938 C 194.992188 51.886719 195.777344 51.066406 196.75 50.964844 C 197.328125 50.902344 197.914062 50.902344 198.492188 50.964844 C 199.460938 51.0625 200.253906 51.898438 200.320312 52.878906 C 200.398438 53.941406 199.757812 54.882812 198.78125 55.144531 C 198.394531 55.246094 198 55.207031 197.59375 55.21875 Z M 197.625 54.65625 C 197.839844 54.65625 198.050781 54.664062 198.265625 54.65625 C 199.066406 54.628906 199.691406 54.003906 199.753906 53.179688 C 199.808594 52.363281 199.253906 51.644531 198.460938 51.527344 C 197.910156 51.449219 197.351562 51.449219 196.800781 51.523438 C 195.964844 51.640625 195.4375 52.339844 195.496094 53.222656 C 195.542969 54.003906 196.1875 54.625 196.988281 54.652344 C 197.199219 54.664062 197.410156 54.65625 197.625 54.65625 Z M 197.625 54.65625 " fill-opacity="1" fill-rule="nonzero"/><path fill="#0f3a5b" d="M 191.613281 53.265625 C 190.347656 53.265625 189.136719 53.265625 187.929688 53.265625 C 187.832031 53.355469 187.871094 53.453125 187.867188 53.546875 C 187.863281 53.960938 187.867188 54.371094 187.863281 54.785156 C 187.859375 55.117188 187.789062 55.214844 187.574219 55.21875 C 187.355469 55.222656 187.285156 55.125 187.285156 54.796875 C 187.285156 53.78125 187.285156 52.765625 187.285156 51.746094 C 187.285156 51.617188 187.285156 51.488281 187.285156 51.359375 C 187.289062 51.046875 187.371094 50.929688 187.582031 50.9375 C 187.777344 50.941406 187.863281 51.054688 187.863281 51.339844 C 187.867188 51.660156 187.863281 51.976562 187.863281 52.300781 C 187.863281 52.414062 187.863281 52.53125 187.863281 52.671875 C 189.117188 52.671875 190.339844 52.671875 191.570312 52.671875 C 191.644531 52.59375 191.609375 52.496094 191.609375 52.402344 C 191.613281 52.003906 191.613281 51.601562 191.613281 51.199219 C 191.613281 51.019531 191.730469 50.945312 191.890625 50.9375 C 192.046875 50.929688 192.160156 51.011719 192.179688 51.183594 C 192.1875 51.265625 192.1875 51.351562 192.1875 51.429688 C 192.1875 52.539062 192.1875 53.652344 192.1875 54.761719 C 192.1875 54.859375 192.191406 54.953125 192.167969 55.042969 C 192.132812 55.175781 192.023438 55.222656 191.894531 55.21875 C 191.757812 55.21875 191.660156 55.164062 191.632812 55.027344 C 191.613281 54.925781 191.613281 54.816406 191.613281 54.710938 C 191.613281 54.238281 191.613281 53.769531 191.613281 53.265625 Z M 191.613281 53.265625 " fill-opacity="1" fill-rule="nonzero"/><path fill="#888da2" d="M 44.484375 41.941406 C 44.578125 41.855469 44.691406 41.878906 44.800781 41.886719 C 44.824219 41.988281 44.761719 42 44.695312 42.011719 C 44.652344 41.914062 44.546875 41.984375 44.484375 41.941406 Z M 44.484375 41.941406 " fill-opacity="1" fill-rule="nonzero"/></svg>