<svg xmlns="http://www.w3.org/2000/svg" xmlns:xlink="http://www.w3.org/1999/xlink" width="300" zoomAndPan="magnify" viewBox="0 0 224.87999 74.999997" height="100" preserveAspectRatio="xMidYMid meet" version="1.0"><path fill="#fcfafa" d="M 3.660156 27.851562 C 3.78125 27.769531 3.78125 27.652344 3.78125 27.53125 C 4.21875 26.210938 5.417969 25.332031 6.773438 25.253906 C 6.933594 25.253906 7.09375 25.253906 7.292969 25.253906 C 11.324219 25.253906 15.355469 25.253906 19.386719 25.253906 C 19.507812 25.253906 19.667969 25.253906 19.746094 25.253906 C 19.867188 25.09375 19.828125 24.972656 19.828125 24.8125 C 19.828125 20.699219 19.828125 16.625 19.828125 12.507812 C 19.828125 11.710938 20.027344 10.949219 20.546875 10.3125 C 21.222656 9.511719 22.0625 9.03125 23.140625 9.03125 C 27.132812 9.03125 31.164062 9.070312 35.15625 9.03125 C 36.710938 9.03125 38.46875 10.3125 38.46875 12.347656 C 38.46875 14.585938 38.46875 16.863281 38.46875 19.140625 C 38.46875 20.300781 38.46875 21.496094 38.46875 22.65625 C 38.46875 22.855469 38.46875 23.097656 38.386719 23.296875 C 38.1875 23.773438 37.667969 24.09375 37.152344 24.015625 C 36.632812 23.976562 36.191406 23.574219 36.074219 23.054688 C 35.992188 22.777344 35.992188 22.496094 35.992188 22.21875 C 35.992188 19.019531 35.992188 15.785156 35.992188 12.589844 C 35.992188 12.386719 35.992188 12.1875 35.953125 11.988281 C 35.832031 11.667969 35.632812 11.507812 35.316406 11.46875 C 35.234375 11.46875 35.113281 11.46875 35.035156 11.46875 C 31.164062 11.46875 27.292969 11.46875 23.417969 11.46875 C 23.261719 11.46875 23.101562 11.46875 22.941406 11.507812 C 22.582031 11.628906 22.34375 11.910156 22.300781 12.308594 C 22.300781 12.429688 22.300781 12.507812 22.300781 12.628906 C 22.300781 16.984375 22.300781 21.339844 22.300781 25.734375 C 22.300781 26.011719 22.300781 26.332031 22.222656 26.613281 C 22.101562 27.289062 21.742188 27.609375 21.023438 27.652344 C 20.503906 27.652344 19.945312 27.652344 19.429688 27.652344 C 15.316406 27.652344 11.246094 27.652344 7.132812 27.652344 C 6.855469 27.652344 6.613281 27.652344 6.375 27.890625 C 6.175781 28.089844 6.097656 28.371094 6.097656 28.648438 C 6.097656 31.84375 6.097656 35 6.097656 38.199219 C 6.097656 38.917969 6.097656 39.636719 6.097656 40.355469 C 6.097656 40.953125 6.414062 41.355469 7.09375 41.394531 C 7.375 41.394531 7.613281 41.394531 7.890625 41.394531 C 12.164062 41.394531 16.433594 41.394531 20.707031 41.394531 C 20.863281 41.394531 21.023438 41.394531 21.183594 41.394531 C 21.742188 41.394531 22.183594 41.753906 22.300781 42.3125 C 22.382812 42.59375 22.382812 42.871094 22.382812 43.113281 C 22.382812 46.90625 22.382812 50.703125 22.382812 54.539062 C 22.382812 54.660156 22.382812 54.777344 22.382812 54.898438 C 22.421875 54.898438 22.421875 54.898438 22.421875 54.898438 C 22.660156 54.539062 22.941406 54.21875 23.179688 53.859375 C 25.816406 50.222656 29.046875 47.269531 32.679688 44.671875 C 34.875 43.074219 37.230469 41.714844 39.625 40.4375 C 40.542969 39.957031 41.460938 39.4375 42.378906 38.917969 C 42.460938 38.917969 42.5 38.878906 42.5 38.796875 C 42.378906 38.796875 42.261719 38.757812 42.179688 38.835938 C 40.863281 38.957031 39.546875 39.078125 38.1875 39.078125 C 34.957031 39.078125 31.761719 38.675781 28.730469 37.480469 C 25.894531 36.398438 23.378906 34.882812 21.222656 32.765625 C 20.984375 32.523438 20.746094 32.324219 20.503906 32.085938 C 20.347656 31.925781 20.1875 31.765625 20.105469 31.566406 C 19.867188 31.125 19.90625 30.605469 20.226562 30.207031 C 20.546875 29.808594 21.023438 29.6875 21.503906 29.847656 C 21.742188 29.929688 21.941406 30.046875 22.101562 30.207031 C 23.339844 31.527344 24.738281 32.644531 26.253906 33.605469 C 28.570312 35.042969 31.125 35.882812 33.796875 36.320312 C 35.953125 36.679688 38.109375 36.71875 40.304688 36.601562 C 42.460938 36.441406 44.617188 36.121094 46.769531 35.679688 C 48.925781 35.242188 51.003906 34.683594 53.117188 34.042969 C 53.796875 33.84375 54.394531 34.082031 54.675781 34.640625 C 54.992188 35.28125 54.753906 36 54.035156 36.28125 C 53.515625 36.519531 52.996094 36.71875 52.480469 36.960938 C 48.964844 38.476562 45.453125 40.074219 42.0625 41.875 C 39.265625 43.351562 36.511719 44.949219 33.957031 46.789062 C 31.882812 48.265625 29.925781 49.90625 28.167969 51.742188 C 26.175781 53.859375 24.378906 56.136719 23.058594 58.734375 C 22.859375 59.09375 22.699219 59.453125 22.5 59.8125 C 22.421875 59.972656 22.34375 60.09375 22.261719 60.253906 C 21.941406 60.691406 21.464844 60.851562 21.023438 60.730469 C 20.503906 60.613281 20.144531 60.171875 20.105469 59.652344 C 20.105469 59.492188 20.105469 59.375 20.105469 59.214844 C 20.105469 54.21875 20.105469 49.226562 20.105469 44.191406 C 20.105469 44.070312 20.144531 43.953125 20.066406 43.792969 C 19.945312 43.710938 19.828125 43.75 19.667969 43.75 C 15.597656 43.75 11.523438 43.75 7.453125 43.75 C 5.777344 43.75 4.578125 42.914062 4.019531 41.316406 C 4.019531 41.273438 4.019531 41.195312 3.941406 41.195312 C 3.660156 36.839844 3.660156 32.363281 3.660156 27.851562 Z M 3.660156 27.851562 " fill-opacity="1" fill-rule="nonzero"/><path fill="#fcfafa" d="M 184.761719 35.203125 C 184.601562 35.160156 184.441406 35.160156 184.324219 35.160156 C 178.335938 35.160156 172.347656 35.160156 166.359375 35.160156 C 166.242188 35.160156 166.121094 35.160156 166 35.160156 C 165.441406 35.121094 165.082031 34.761719 165.042969 34.203125 C 165.042969 34.042969 165.042969 33.921875 165.042969 33.761719 C 165.082031 33.242188 165.441406 32.84375 166 32.84375 C 166.082031 32.84375 166.199219 32.84375 166.28125 32.84375 C 172.828125 32.84375 179.375 32.84375 185.917969 32.84375 C 186.078125 32.84375 186.199219 32.84375 186.359375 32.84375 C 186.757812 32.882812 187.117188 33.242188 187.15625 33.644531 C 187.15625 33.761719 187.15625 33.882812 187.15625 34.042969 C 187.15625 37.480469 187.15625 40.953125 187.15625 44.429688 C 187.15625 44.550781 187.15625 44.710938 187.15625 44.832031 C 187.117188 45.230469 186.757812 45.589844 186.320312 45.628906 C 186.199219 45.628906 186.121094 45.628906 186 45.628906 C 181.410156 45.628906 176.820312 45.628906 172.1875 45.628906 C 170.234375 45.628906 168.316406 45.269531 166.601562 44.3125 C 163.40625 42.554688 161.332031 39.917969 160.691406 36.242188 C 160.214844 33.523438 160.492188 30.847656 161.851562 28.410156 C 163.644531 25.132812 166.402344 23.136719 170.113281 22.496094 C 170.792969 22.375 171.46875 22.335938 172.148438 22.335938 C 176.777344 22.335938 181.410156 22.335938 186.039062 22.335938 C 186.359375 22.335938 186.636719 22.375 186.878906 22.578125 C 187.277344 22.976562 187.316406 23.933594 186.957031 24.335938 C 186.796875 24.535156 186.597656 24.613281 186.320312 24.652344 C 186.199219 24.652344 186.078125 24.652344 185.960938 24.652344 C 181.449219 24.652344 176.898438 24.652344 172.386719 24.652344 C 171.230469 24.652344 170.074219 24.773438 168.996094 25.171875 C 165.683594 26.453125 163.644531 28.847656 163.085938 32.363281 C 162.769531 34.402344 162.96875 36.398438 163.925781 38.199219 C 165.5625 41.316406 168.15625 42.992188 171.667969 43.191406 C 171.871094 43.191406 172.070312 43.191406 172.269531 43.191406 C 176.339844 43.191406 180.410156 43.191406 184.441406 43.191406 C 184.5625 43.191406 184.644531 43.191406 184.800781 43.191406 C 184.761719 40.554688 184.761719 37.878906 184.761719 35.203125 Z M 184.761719 35.203125 " fill-opacity="1" fill-rule="nonzero"/><path fill="#fcfafa" d="M 93.792969 36.640625 C 93.792969 36.839844 93.792969 36.960938 93.792969 37.078125 C 93.792969 39.515625 93.792969 41.914062 93.792969 44.351562 C 93.792969 44.511719 93.792969 44.671875 93.753906 44.789062 C 93.671875 45.230469 93.3125 45.550781 92.875 45.589844 C 92.675781 45.589844 92.433594 45.589844 92.234375 45.589844 C 91.757812 45.550781 91.4375 45.230469 91.359375 44.75 C 91.359375 44.628906 91.359375 44.511719 91.359375 44.390625 C 91.359375 37.4375 91.359375 30.488281 91.359375 23.535156 C 91.359375 23.414062 91.359375 23.335938 91.359375 23.214844 C 91.398438 22.734375 91.757812 22.375 92.234375 22.335938 C 92.316406 22.335938 92.433594 22.335938 92.515625 22.335938 C 98.582031 22.335938 104.691406 22.335938 110.757812 22.335938 C 112.074219 22.335938 113.351562 22.578125 114.46875 23.253906 C 116.585938 24.535156 117.78125 26.371094 117.980469 28.847656 C 118.101562 30.328125 117.863281 31.765625 117.105469 33.085938 C 116.144531 34.722656 114.75 35.839844 112.914062 36.359375 C 112.832031 36.398438 112.753906 36.359375 112.671875 36.480469 C 113.113281 37.121094 113.550781 37.796875 113.992188 38.4375 C 115.226562 40.277344 116.464844 42.113281 117.742188 43.953125 C 117.941406 44.230469 118.101562 44.550781 117.980469 44.910156 C 117.902344 45.148438 117.742188 45.351562 117.542969 45.46875 C 116.984375 45.789062 116.105469 45.589844 115.746094 45.070312 C 114.148438 42.753906 112.59375 40.4375 110.996094 38.117188 C 110.675781 37.679688 110.398438 37.238281 110.078125 36.800781 C 110 36.679688 109.878906 36.601562 109.71875 36.601562 C 109.480469 36.601562 109.199219 36.601562 108.960938 36.601562 C 104.050781 36.601562 99.140625 36.601562 94.191406 36.601562 C 94.113281 36.640625 93.953125 36.640625 93.792969 36.640625 Z M 93.792969 34.242188 C 93.914062 34.324219 93.992188 34.28125 94.070312 34.28125 C 99.660156 34.28125 105.25 34.28125 110.875 34.28125 C 111.195312 34.28125 111.554688 34.242188 111.875 34.203125 C 115.546875 33.402344 116.664062 29.25 114.789062 26.652344 C 113.789062 25.253906 112.394531 24.652344 110.71875 24.652344 C 105.167969 24.652344 99.660156 24.652344 94.113281 24.652344 C 94.03125 24.652344 93.914062 24.613281 93.832031 24.695312 C 93.792969 27.890625 93.792969 31.085938 93.792969 34.242188 Z M 93.792969 34.242188 " fill-opacity="1" fill-rule="nonzero"/><path fill="#fcfafa" d="M 193.742188 34.324219 C 193.742188 37.320312 193.742188 40.277344 193.742188 43.230469 C 193.863281 43.3125 194.023438 43.273438 194.144531 43.273438 C 200.488281 43.273438 206.835938 43.273438 213.183594 43.273438 C 213.34375 43.273438 213.460938 43.273438 213.621094 43.273438 C 214.101562 43.3125 214.460938 43.710938 214.460938 44.191406 C 214.460938 44.351562 214.460938 44.511719 214.460938 44.710938 C 214.460938 45.191406 214.0625 45.589844 213.582031 45.628906 C 213.460938 45.628906 213.34375 45.628906 213.222656 45.628906 C 206.316406 45.628906 199.410156 45.628906 192.507812 45.628906 C 192.425781 45.628906 192.304688 45.628906 192.226562 45.628906 C 191.707031 45.589844 191.308594 45.230469 191.269531 44.710938 C 191.269531 44.628906 191.269531 44.550781 191.269531 44.472656 C 191.269531 37.519531 191.269531 30.527344 191.269531 23.574219 C 191.269531 23.414062 191.269531 23.253906 191.308594 23.097656 C 191.46875 22.695312 191.707031 22.457031 192.148438 22.417969 C 192.265625 22.417969 192.347656 22.417969 192.464844 22.417969 C 199.371094 22.417969 206.316406 22.417969 213.222656 22.417969 C 213.34375 22.417969 213.460938 22.417969 213.582031 22.417969 C 213.78125 22.417969 213.902344 22.496094 214.0625 22.617188 C 214.578125 22.9375 214.578125 24.292969 213.980469 24.613281 C 213.863281 24.695312 213.703125 24.734375 213.542969 24.773438 C 213.421875 24.773438 213.261719 24.773438 213.144531 24.773438 C 206.796875 24.773438 200.449219 24.773438 194.101562 24.773438 C 193.941406 24.773438 193.824219 24.734375 193.664062 24.8125 C 193.664062 27.210938 193.664062 29.609375 193.664062 32.003906 C 193.785156 32.046875 193.941406 32.046875 194.0625 32.046875 C 200.050781 32.046875 206.039062 32.046875 211.984375 32.046875 C 212.144531 32.046875 212.304688 32.046875 212.503906 32.085938 C 212.984375 32.164062 213.300781 32.484375 213.34375 32.964844 C 213.34375 33.164062 213.34375 33.363281 213.34375 33.523438 C 213.300781 33.964844 212.941406 34.324219 212.464844 34.363281 C 212.34375 34.363281 212.183594 34.363281 212.066406 34.363281 C 206.078125 34.363281 200.089844 34.363281 194.101562 34.363281 C 194.0625 34.28125 193.902344 34.28125 193.742188 34.324219 Z M 193.742188 34.324219 " fill-opacity="1" fill-rule="nonzero"/><path fill="#fcfafa" d="M 159.253906 45.589844 C 158.738281 45.667969 158.378906 45.429688 158.058594 44.992188 C 156.660156 42.953125 155.222656 40.914062 153.828125 38.878906 C 153.707031 38.675781 153.546875 38.597656 153.308594 38.597656 C 150.632812 38.476562 147.960938 38.519531 145.285156 38.835938 C 142.25 39.195312 139.335938 39.875 136.582031 41.195312 C 134.507812 42.195312 132.632812 43.511719 131.074219 45.191406 C 130.554688 45.75 129.957031 45.75 129.316406 45.589844 C 128.71875 45.429688 128.519531 44.710938 128.839844 44.152344 C 129.117188 43.710938 129.4375 43.273438 129.71875 42.871094 C 132.550781 38.796875 135.386719 34.683594 138.21875 30.605469 C 140.015625 28.050781 141.8125 25.53125 143.527344 22.9375 C 143.96875 22.257812 145.125 22.257812 145.5625 22.9375 C 148.757812 27.570312 151.949219 32.164062 155.144531 36.761719 C 156.820312 39.15625 158.496094 41.554688 160.132812 43.953125 C 160.214844 44.03125 160.292969 44.152344 160.332031 44.230469 C 160.652344 44.832031 160.253906 45.589844 159.574219 45.628906 C 159.535156 45.628906 159.414062 45.589844 159.253906 45.589844 Z M 151.949219 36.121094 C 149.515625 32.605469 147.082031 29.128906 144.644531 25.613281 C 141.613281 30.007812 138.578125 34.363281 135.585938 38.757812 C 135.585938 38.796875 135.585938 38.796875 135.585938 38.835938 C 140.8125 36.800781 146.242188 35.882812 151.949219 36.121094 Z M 151.949219 36.121094 " fill-opacity="1" fill-rule="nonzero"/><path fill="#fcfafa" d="M 72.636719 24.734375 C 72.476562 24.695312 72.355469 24.695312 72.238281 24.695312 C 68.726562 24.695312 65.210938 24.695312 61.699219 24.695312 C 61.421875 24.695312 61.179688 24.652344 60.941406 24.535156 C 60.421875 24.214844 60.34375 22.855469 61.019531 22.496094 C 61.140625 22.417969 61.261719 22.375 61.421875 22.375 C 61.539062 22.375 61.660156 22.375 61.820312 22.375 C 69.882812 22.375 77.90625 22.375 85.96875 22.375 C 86.089844 22.375 86.25 22.375 86.367188 22.375 C 86.6875 22.375 86.925781 22.535156 87.085938 22.777344 C 87.367188 23.175781 87.324219 23.976562 87.046875 24.335938 C 86.886719 24.535156 86.6875 24.652344 86.40625 24.695312 C 86.289062 24.695312 86.167969 24.695312 86.007812 24.695312 C 82.535156 24.695312 79.0625 24.695312 75.550781 24.695312 C 75.429688 24.695312 75.3125 24.652344 75.152344 24.734375 C 75.070312 24.855469 75.113281 25.011719 75.113281 25.132812 C 75.113281 31.527344 75.113281 37.917969 75.113281 44.3125 C 75.113281 44.429688 75.113281 44.511719 75.113281 44.628906 C 75.070312 45.230469 74.671875 45.589844 74.113281 45.628906 C 73.953125 45.628906 73.792969 45.628906 73.59375 45.628906 C 73.074219 45.589844 72.714844 45.230469 72.675781 44.710938 C 72.675781 44.589844 72.675781 44.472656 72.675781 44.3125 C 72.675781 37.917969 72.675781 31.527344 72.675781 25.132812 C 72.675781 24.972656 72.675781 24.855469 72.636719 24.734375 Z M 72.636719 24.734375 " fill-opacity="1" fill-rule="nonzero"/><path fill="#fcfafa" d="M 120.335938 49.90625 C 139.9375 49.90625 159.535156 49.90625 179.132812 49.90625 C 179.253906 49.90625 179.414062 49.90625 179.535156 49.90625 C 179.652344 49.90625 179.734375 49.984375 179.734375 50.144531 C 179.734375 50.265625 179.652344 50.34375 179.492188 50.382812 C 179.375 50.382812 179.253906 50.382812 179.132812 50.382812 C 170.152344 50.382812 161.171875 50.382812 152.230469 50.382812 C 121.972656 50.382812 91.757812 50.382812 61.5 50.382812 C 61.378906 50.382812 61.261719 50.382812 61.140625 50.382812 C 61.019531 50.382812 60.902344 50.304688 60.902344 50.144531 C 60.902344 49.984375 60.980469 49.90625 61.140625 49.90625 C 61.261719 49.90625 61.378906 49.90625 61.5 49.90625 C 69.203125 49.90625 76.90625 49.90625 84.613281 49.90625 C 96.546875 49.90625 108.441406 49.90625 120.335938 49.90625 Z M 120.335938 49.90625 " fill-opacity="1" fill-rule="nonzero"/><path fill="#fcfafa" d="M 122.132812 33.964844 C 122.132812 30.488281 122.132812 27.011719 122.132812 23.535156 C 122.132812 23.335938 122.132812 23.136719 122.214844 22.976562 C 122.371094 22.535156 122.730469 22.335938 123.410156 22.335938 C 124.007812 22.335938 124.367188 22.535156 124.527344 22.976562 C 124.566406 23.136719 124.609375 23.296875 124.609375 23.457031 C 124.609375 30.449219 124.609375 37.4375 124.609375 44.429688 C 124.609375 45.230469 124.207031 45.589844 123.449219 45.589844 C 123.332031 45.589844 123.25 45.589844 123.132812 45.589844 C 122.613281 45.550781 122.214844 45.191406 122.171875 44.671875 C 122.171875 44.550781 122.171875 44.429688 122.171875 44.3125 C 122.132812 40.875 122.132812 37.4375 122.132812 33.964844 Z M 122.132812 33.964844 " fill-opacity="1" fill-rule="nonzero"/><path fill="#fcfafa" d="M 33.121094 30.886719 C 33.121094 28.6875 34.914062 26.730469 37.191406 26.691406 C 39.507812 26.691406 41.382812 28.488281 41.382812 30.808594 C 41.382812 33.042969 39.625 34.882812 37.230469 34.921875 C 34.636719 34.921875 33.121094 32.726562 33.121094 30.886719 Z M 33.121094 30.886719 " fill-opacity="1" fill-rule="nonzero"/><path fill="#fcfafa" d="M 203.84375 51.503906 C 204.121094 51.0625 204.402344 50.664062 204.640625 50.265625 C 205.078125 49.625 205.480469 48.984375 205.917969 48.347656 C 205.957031 48.265625 206.039062 48.1875 206.078125 48.105469 C 206.15625 48.027344 206.277344 47.988281 206.398438 48.066406 C 206.515625 48.105469 206.558594 48.1875 206.558594 48.304688 C 206.558594 48.347656 206.558594 48.386719 206.558594 48.464844 C 206.558594 49.625 206.558594 50.785156 206.558594 51.941406 C 206.558594 52.0625 206.558594 52.222656 206.4375 52.300781 C 206.238281 52.460938 205.996094 52.300781 205.957031 52.023438 C 205.957031 51.542969 205.957031 51.0625 205.957031 50.542969 C 205.957031 50.144531 205.957031 49.746094 205.957031 49.386719 C 205.839844 49.386719 205.839844 49.464844 205.796875 49.546875 C 205.28125 50.34375 204.71875 51.183594 204.203125 51.980469 C 204.160156 52.0625 204.121094 52.140625 204.082031 52.183594 C 203.921875 52.421875 203.761719 52.421875 203.601562 52.183594 C 203.5625 52.101562 203.484375 52.023438 203.441406 51.941406 C 202.925781 51.144531 202.367188 50.304688 201.847656 49.503906 C 201.808594 49.464844 201.808594 49.386719 201.726562 49.386719 C 201.605469 49.425781 201.6875 49.546875 201.6875 49.585938 C 201.6875 50.34375 201.6875 51.101562 201.6875 51.824219 C 201.6875 51.902344 201.6875 52.023438 201.6875 52.101562 C 201.6875 52.261719 201.566406 52.300781 201.40625 52.339844 C 201.246094 52.339844 201.167969 52.261719 201.128906 52.140625 C 201.128906 52.0625 201.128906 51.980469 201.128906 51.902344 C 201.128906 50.785156 201.128906 49.664062 201.128906 48.507812 C 201.128906 48.464844 201.128906 48.386719 201.128906 48.304688 C 201.128906 48.1875 201.207031 48.066406 201.328125 48.027344 C 201.449219 47.988281 201.605469 48.027344 201.6875 48.148438 C 201.808594 48.304688 201.886719 48.464844 202.007812 48.625 C 202.566406 49.546875 203.164062 50.503906 203.84375 51.503906 Z M 203.84375 51.503906 " fill-opacity="1" fill-rule="nonzero"/><path fill="#fcfafa" d="M 210.070312 48.625 C 210.070312 49.027344 210.070312 49.386719 210.070312 49.785156 C 210.347656 49.785156 210.589844 49.785156 210.867188 49.785156 C 211.585938 49.785156 212.34375 49.785156 213.0625 49.785156 C 213.144531 49.785156 213.222656 49.785156 213.300781 49.785156 C 213.460938 49.785156 213.542969 49.863281 213.542969 50.023438 C 213.542969 50.183594 213.460938 50.304688 213.300781 50.34375 C 213.222656 50.34375 213.144531 50.34375 213.0625 50.34375 C 212.066406 50.34375 211.066406 50.34375 210.070312 50.34375 C 210.070312 50.824219 210.070312 51.304688 210.070312 51.742188 C 210.1875 51.78125 210.269531 51.78125 210.390625 51.78125 C 211.347656 51.78125 212.304688 51.78125 213.261719 51.78125 C 213.34375 51.78125 213.421875 51.78125 213.503906 51.78125 C 213.660156 51.78125 213.742188 51.902344 213.742188 52.023438 C 213.742188 52.183594 213.660156 52.300781 213.503906 52.300781 C 213.421875 52.300781 213.34375 52.300781 213.300781 52.300781 C 212.183594 52.300781 211.027344 52.300781 209.910156 52.300781 C 209.511719 52.300781 209.46875 52.261719 209.46875 51.863281 C 209.46875 50.703125 209.46875 49.585938 209.46875 48.425781 C 209.46875 48.027344 209.511719 47.988281 209.910156 47.988281 C 211.066406 47.988281 212.226562 47.988281 213.382812 47.988281 C 213.460938 47.988281 213.542969 47.988281 213.621094 48.027344 C 213.742188 48.066406 213.78125 48.1875 213.78125 48.304688 C 213.78125 48.425781 213.703125 48.507812 213.582031 48.546875 C 213.503906 48.546875 213.382812 48.546875 213.300781 48.546875 C 212.34375 48.546875 211.386719 48.546875 210.429688 48.546875 C 210.308594 48.585938 210.1875 48.546875 210.070312 48.625 Z M 210.070312 48.625 " fill-opacity="1" fill-rule="nonzero"/><path fill="#fcfafa" d="M 195.621094 52.300781 C 195.261719 52.300781 194.859375 52.339844 194.5 52.222656 C 193.464844 51.941406 192.867188 51.023438 192.945312 49.90625 C 193.023438 48.945312 193.785156 48.105469 194.78125 48.027344 C 195.378906 47.988281 195.9375 47.988281 196.539062 48.027344 C 197.496094 48.148438 198.292969 48.984375 198.375 49.945312 C 198.453125 51.023438 197.816406 51.941406 196.816406 52.222656 C 196.417969 52.339844 196.019531 52.300781 195.621094 52.300781 Z M 195.660156 51.742188 C 195.859375 51.742188 196.097656 51.742188 196.296875 51.742188 C 197.097656 51.703125 197.734375 51.101562 197.773438 50.265625 C 197.816406 49.464844 197.257812 48.707031 196.496094 48.625 C 195.9375 48.546875 195.378906 48.546875 194.820312 48.625 C 193.984375 48.746094 193.464844 49.425781 193.503906 50.34375 C 193.542969 51.144531 194.183594 51.742188 195.019531 51.78125 C 195.21875 51.742188 195.421875 51.742188 195.660156 51.742188 Z M 195.660156 51.742188 " fill-opacity="1" fill-rule="nonzero"/><path fill="#fcfafa" d="M 189.632812 50.34375 C 188.355469 50.34375 187.15625 50.34375 185.917969 50.34375 C 185.800781 50.425781 185.878906 50.542969 185.839844 50.625 C 185.839844 51.023438 185.839844 51.460938 185.839844 51.863281 C 185.839844 52.183594 185.761719 52.300781 185.5625 52.300781 C 185.359375 52.300781 185.28125 52.222656 185.28125 51.863281 C 185.28125 50.824219 185.28125 49.824219 185.28125 48.785156 C 185.28125 48.664062 185.28125 48.546875 185.28125 48.386719 C 185.28125 48.066406 185.359375 47.945312 185.601562 47.945312 C 185.800781 47.945312 185.878906 48.066406 185.878906 48.347656 C 185.878906 48.664062 185.878906 48.984375 185.878906 49.304688 C 185.878906 49.425781 185.878906 49.546875 185.878906 49.664062 C 187.117188 49.664062 188.355469 49.664062 189.59375 49.664062 C 189.671875 49.585938 189.632812 49.503906 189.632812 49.386719 C 189.632812 48.984375 189.632812 48.585938 189.632812 48.1875 C 189.632812 47.988281 189.75 47.945312 189.910156 47.90625 C 190.070312 47.867188 190.191406 47.988281 190.191406 48.148438 C 190.191406 48.226562 190.191406 48.304688 190.191406 48.386719 C 190.191406 49.503906 190.191406 50.625 190.191406 51.742188 C 190.191406 51.824219 190.191406 51.941406 190.191406 52.023438 C 190.152344 52.140625 190.03125 52.222656 189.910156 52.183594 C 189.792969 52.183594 189.671875 52.140625 189.671875 51.980469 C 189.671875 51.863281 189.671875 51.78125 189.671875 51.664062 C 189.632812 51.34375 189.632812 50.863281 189.632812 50.34375 Z M 189.632812 50.34375 " fill-opacity="1" fill-rule="nonzero"/><path fill="#fcfafa" d="M 42.019531 38.996094 C 42.101562 38.917969 42.21875 38.917969 42.339844 38.957031 C 42.378906 39.078125 42.300781 39.078125 42.21875 39.078125 C 42.21875 38.957031 42.101562 39.039062 42.019531 38.996094 Z M 42.019531 38.996094 " fill-opacity="1" fill-rule="nonzero"/></svg>